<svg width="41" height="18" viewBox="0 0 41 18" fill="none" xmlns="http://www.w3.org/2000/svg">
<g clip-path="url(#clip0_491_54)">
<mask id="path-1-inside-1_491_54" fill="white">
<path d="M0.359375 0H18.3594V16H0.359375V0Z"/>
</mask>
<path d="M11.387 8.5C11.41 10.922 13.512 11.727 13.535 11.738C13.517 11.794 13.199 12.886 12.428 14.013C11.761 14.988 11.068 15.959 9.97798 15.979C8.90798 15.999 8.56298 15.344 7.33798 15.344C6.11298 15.344 5.73098 15.959 4.71598 15.999C3.66398 16.039 2.86298 14.945 2.18998 13.974C0.816984 11.987 -0.233016 8.36 1.17698 5.912C1.87698 4.697 3.12898 3.927 4.48698 3.907C5.52098 3.887 6.49698 4.602 7.12798 4.602C7.75998 4.602 8.94498 3.742 10.191 3.869C10.713 3.891 12.177 4.079 13.118 5.456C13.042 5.503 11.369 6.476 11.387 8.5ZM9.37498 2.555C9.93298 1.878 10.309 0.937 10.207 0C9.40098 0.032 8.42698 0.537 7.84898 1.213C7.33198 1.811 6.87898 2.769 7.00098 3.688C7.89798 3.757 8.81498 3.231 9.37398 2.555" fill="white"/>
</g>
<path d="M17.3594 0V16H19.3594V0H17.3594Z" fill="white" mask="url(#path-1-inside-1_491_54)"/>
<path d="M34.8159 7.54838L33.2469 6.64138L31.3569 8.96338L33.2829 11.3334L34.8159 10.4484C35.4559 10.0804 35.8059 9.56337 35.8059 8.99837C35.8059 8.43237 35.4559 7.91838 34.8159 7.54838ZM24.6499 16.0114L30.3889 8.96437L24.7239 1.99438C24.7059 1.99338 24.6869 1.98438 24.6689 1.98438C23.7969 1.98438 23.2109 2.69438 23.2109 3.75038V14.2504C23.2129 15.2964 23.7909 16.0004 24.6509 16.0114H24.6499ZM32.5879 6.26437L26.1319 2.53438L30.8729 8.36938L32.5879 6.26437ZM30.8719 9.55838L26.0049 15.5364L32.6239 11.7134L30.8719 9.55838Z" fill="white"/>
<defs>
<clipPath id="clip0_491_54">
<path d="M0.359375 0H18.3594V16H0.359375V0Z" fill="white"/>
</clipPath>
</defs>
</svg>
