<svg width="49" height="49" viewBox="0 0 49 49" fill="none" xmlns="http://www.w3.org/2000/svg">
<rect width="49" height="49" rx="24.5" fill="#171717"/>
<rect x="0.5" y="0.5" width="48" height="48" rx="24" stroke="#F7F7F9" stroke-opacity="0.4"/>
<path d="M38.0001 24.8074C38.0013 23.8875 37.9219 22.9691 37.7629 22.0625H24.7734V27.2617H32.2132C32.061 28.0921 31.7388 28.8837 31.266 29.5887C30.7932 30.2938 30.1796 30.8977 29.4623 31.3641V34.739H33.9024C36.5022 32.3897 38.0001 28.9154 38.0001 24.8074Z" fill="#4285F4"/>
<path d="M24.7753 37.9999C28.4923 37.9999 31.622 36.8037 33.9043 34.7412L29.4641 31.3663C28.2283 32.1876 26.6367 32.6563 24.7753 32.6563C21.1826 32.6563 18.1332 30.2826 17.0428 27.084H12.4688V30.562C13.6152 32.7978 15.3731 34.6774 17.5462 35.9908C19.7193 37.3042 22.2222 37.9998 24.7753 37.9999Z" fill="#34A853"/>
<path d="M17.0407 27.0841C16.4643 25.408 16.4643 23.5928 17.0407 21.9167V18.4387H12.4667C11.5023 20.3196 11 22.3954 11 24.5004C11 26.6054 11.5023 28.6812 12.4667 30.5621L17.0407 27.0841Z" fill="#FBBC04"/>
<path d="M24.7753 16.3445C26.7396 16.313 28.6376 17.0404 30.0591 18.3694L33.9904 14.5164C31.4975 12.2216 28.1951 10.9617 24.7753 11.0009C22.2222 11.001 19.7193 11.6966 17.5462 13.01C15.3731 14.3234 13.6152 16.2029 12.4688 18.4388L17.0428 21.9168C18.1332 18.7181 21.1826 16.3445 24.7753 16.3445Z" fill="#EA4335"/>
</svg>
