<svg width="249" height="39" viewBox="0 0 249 39" fill="none" xmlns="http://www.w3.org/2000/svg">
<g clip-path="url(#clip0_352_225)">
<mask id="mask0_352_225" style="mask-type:luminance" maskUnits="userSpaceOnUse" x="0" y="0" width="126" height="38">
<path d="M125.382 0.924805H0.632812V37.9901H125.382V0.924805Z" fill="white"/>
</mask>
<g mask="url(#mask0_352_225)">
<mask id="mask1_352_225" style="mask-type:luminance" maskUnits="userSpaceOnUse" x="0" y="0" width="126" height="38">
<path d="M125.4 0.924805H0.650391V37.9901H125.4V0.924805Z" fill="white"/>
</mask>
<g mask="url(#mask1_352_225)">
<path d="M120.605 37.8975H5.3523C2.81673 37.8975 0.742188 35.823 0.742188 33.2874V5.62671C0.742188 3.09114 2.81673 1.0166 5.3523 1.0166H120.605C123.141 1.0166 125.215 3.09114 125.215 5.62671V33.2874C125.215 35.823 123.141 37.8975 120.605 37.8975Z" fill="white"/>
<path d="M120.605 1.0166H5.3523C2.81673 1.0166 0.742188 3.09114 0.742188 5.62671V33.2874C0.742188 35.823 2.81673 37.8975 5.3523 37.8975H120.605C123.141 37.8975 125.215 35.823 125.215 33.2874V5.62671C125.215 3.09114 123.141 1.0166 120.605 1.0166ZM120.605 1.75422C122.741 1.75422 124.477 3.49167 124.477 5.62671V33.2874C124.477 35.4228 122.741 37.1603 120.605 37.1603H5.3523C3.21726 37.1603 1.4798 35.4228 1.4798 33.2874V5.62671C1.4798 3.49167 3.21726 1.75422 5.3523 1.75422H120.605Z" fill="#171717"/>
<path d="M19.7516 18.833L9.93555 29.2517C9.93591 29.2538 9.93665 29.2556 9.93702 29.2578C10.238 30.389 11.2713 31.2221 12.4977 31.2221C12.988 31.2221 13.4482 31.0896 13.8429 30.8569L13.8742 30.8385L24.9235 24.4627L19.7516 18.833Z" fill="#EB3131"/>
<path d="M29.6813 17.0599L29.6719 17.0534L24.9016 14.2881L19.5273 19.0703L24.9203 24.4625L29.6655 21.7246C30.4974 21.2755 31.062 20.3986 31.062 19.3872C31.062 18.3831 30.5049 17.5104 29.6813 17.0599Z" fill="#F6B60B"/>
<path d="M9.93378 9.47852C9.87477 9.69611 9.84375 9.92403 9.84375 10.1607V28.5708C9.84375 28.8071 9.8744 29.0358 9.93414 29.2525L20.088 19.1005L9.93378 9.47852Z" fill="#5778C5"/>
<path d="M19.8243 19.3649L24.9051 14.2857L13.8684 7.88676C13.4672 7.64648 12.9991 7.50781 12.4981 7.50781C11.2717 7.50781 10.2371 8.34232 9.93591 9.47499L9.93555 9.47785L19.8243 19.3649Z" fill="#3BAD49"/>
</g>
<path d="M44.4469 10.4621C44.4469 11.2345 44.2182 11.8497 43.76 12.3086C43.2396 12.8542 42.5614 13.1273 41.7275 13.1273C40.9291 13.1273 40.2502 12.8507 39.6919 12.2967C39.1326 11.7431 38.8535 11.0567 38.8535 10.2376C38.8535 9.41824 39.1326 8.73216 39.6919 8.17822C40.2502 7.62463 40.9291 7.34766 41.7275 7.34766C42.1237 7.34766 42.503 7.42511 42.8633 7.57964C43.2234 7.73454 43.5123 7.94015 43.7284 8.19767L43.2421 8.68422C42.8759 8.24664 42.3716 8.02802 41.7275 8.02802C41.1452 8.02802 40.6417 8.23261 40.2168 8.64208C39.7917 9.05202 39.5792 9.58357 39.5792 10.2376C39.5792 10.8917 39.7917 11.4233 40.2168 11.8332C40.6417 12.2426 41.1452 12.4473 41.7275 12.4473C42.3453 12.4473 42.8603 12.2416 43.2727 11.8296C43.5403 11.5612 43.6952 11.1882 43.7365 10.7091H41.7275V10.0446H44.4084C44.4343 10.1891 44.4469 10.3277 44.4469 10.4621Z" fill="#171717"/>
<path d="M44.4473 10.4615H44.3551C44.3544 11.2164 44.1339 11.8027 43.6952 12.2429L43.6942 12.2436C43.1903 12.7705 42.5423 13.0334 41.728 13.0344C40.9508 13.0334 40.3003 12.7683 39.7571 12.231C39.2152 11.6924 38.9472 11.0352 38.9462 10.2371C38.9472 9.4386 39.2152 8.78166 39.7571 8.24357C40.3003 7.70584 40.9508 7.44039 41.728 7.43928C42.1123 7.43928 42.4782 7.51424 42.8273 7.6637C43.1766 7.81427 43.4525 8.01159 43.6581 8.25656L43.7288 8.19709L43.6636 8.1319L43.1773 8.61882L43.2424 8.68364L43.3135 8.62464C42.9302 8.16538 42.3922 7.93386 41.728 7.93524C41.124 7.9345 40.5928 8.15026 40.1533 8.5753C39.7097 9.00174 39.4867 9.56316 39.4874 10.2371C39.4867 10.9109 39.7097 11.4723 40.1533 11.8988C40.5928 12.3239 41.124 12.5396 41.728 12.5389C42.3662 12.54 42.9101 12.3236 43.3383 11.8942C43.6243 11.6075 43.7864 11.2103 43.8289 10.7164L43.8375 10.6163H41.8202V10.1362H44.4088V10.044L44.3179 10.0602C44.3432 10.2 44.3551 10.3329 44.3551 10.4615H44.4473H44.5395C44.5395 10.3214 44.5265 10.1773 44.4995 10.0275L44.4859 9.95179H41.6357V10.7085V10.8007H43.737V10.7085L43.6451 10.7006C43.6045 11.1646 43.4567 11.5139 43.2079 11.7639C42.8117 12.1585 42.3255 12.3534 41.728 12.3544C41.1672 12.3537 40.6915 12.1607 40.2812 11.7663C39.875 11.3734 39.6729 10.8717 39.6719 10.2371C39.6729 9.60244 39.875 9.10076 40.2812 8.70781C40.6915 8.31346 41.1672 8.12038 41.728 8.11964C42.3514 8.12112 42.8223 8.3271 43.1719 8.74312L43.2368 8.8202L43.794 8.26228L43.8537 8.20254L43.7993 8.13799C43.5728 7.86793 43.271 7.65356 42.9 7.49442C42.5283 7.33482 42.1361 7.25488 41.728 7.25488C40.9083 7.25414 40.201 7.54228 39.6272 8.11246C39.0512 8.68153 38.761 9.39683 38.7617 10.2371C38.761 11.077 39.0512 11.7926 39.6276 12.3621C40.201 12.9318 40.9083 13.2196 41.728 13.2189C42.5816 13.2196 43.2897 12.9361 43.827 12.3717L43.7604 12.308L43.8256 12.3732C44.3032 11.896 44.5401 11.2513 44.5395 10.4615H44.4473Z" fill="#171717"/>
<path d="M48.6964 8.15131H46.177V9.90536H48.4489V10.5702H46.177V12.3242H48.6964V13.0038H45.4668V7.47168H48.6964V8.15131Z" fill="#171717"/>
<path d="M48.6967 8.15097V8.05877H46.0852V9.99723H48.3571V10.4773L46.0852 10.4776V12.4161H48.6046V12.9113H45.5594V7.56355H48.6046V8.15097H48.6967H48.789V7.47135V7.37915H45.375V13.0956H48.789V12.3239V12.2316H46.2696V10.662H48.5416V9.90502V9.81282H46.2696V8.24318H48.789V8.15097H48.6967Z" fill="#171717"/>
<path d="M51.694 13.0038H50.9826V8.15131H49.4375V7.47168H53.2391V8.15131H51.694V13.0038Z" fill="#171717"/>
<path d="M51.6944 13.0035V12.9113H51.0753V8.05877H49.5301V7.56355H53.1472V8.05877H51.6021V13.0035H51.6944H51.7865V8.24318H53.3317V7.47135V7.37915H49.3457V8.15097V8.24318H50.8908V13.0956H51.6944H51.7865V13.0035H51.6944Z" fill="#171717"/>
<path d="M55.9902 13.0038V7.47168H56.7009V13.0038H55.9902Z" fill="#171717"/>
<path d="M55.9907 13.0032H56.0829V7.5633H56.609V12.9111H55.9907V13.0032V13.0954H56.7013H56.7934V7.37891H55.9907H55.8984V13.0954H55.9907V13.0032Z" fill="#171717"/>
<path d="M59.8541 13.0038H59.1428V8.15131H57.5977V7.47168H61.3992V8.15131H59.8541V13.0038Z" fill="#171717"/>
<path d="M59.8543 13.0032V12.9111H59.2352V8.05852H57.6902V7.5633H61.3073V8.05852H59.7622V13.0032H59.8543H59.9466V8.24293H61.4917V7.47111V7.37891H57.5059V8.15073V8.24293H59.0509V13.0954H59.8543H59.9466V13.0032H59.8543Z" fill="#171717"/>
<path d="M65.0644 11.8256C65.4739 12.2402 65.9749 12.4473 66.5673 12.4473C67.1598 12.4473 67.6612 12.2402 68.07 11.8256C68.4798 11.4111 68.6851 10.8812 68.6851 10.2376C68.6851 9.59407 68.4798 9.06419 68.07 8.64964C67.6612 8.2351 67.1598 8.02802 66.5673 8.02802C65.9749 8.02802 65.4739 8.2351 65.0644 8.64964C64.6556 9.06419 64.4503 9.59407 64.4503 10.2376C64.4503 10.8812 64.6556 11.4111 65.0644 11.8256ZM68.5958 12.2888C68.0519 12.848 67.3756 13.1273 66.5673 13.1273C65.7584 13.1273 65.0824 12.848 64.5396 12.2888C63.9954 11.7301 63.7246 11.0462 63.7246 10.2376C63.7246 9.42903 63.9954 8.74508 64.5396 8.18651C65.0824 7.62712 65.7584 7.34766 66.5673 7.34766C67.3713 7.34766 68.0458 7.6286 68.5922 8.19011C69.1378 8.75162 69.4109 9.4341 69.4109 10.2376C69.4109 11.0462 69.1385 11.7301 68.5958 12.2888Z" fill="#171717"/>
<path d="M65.0647 11.825L64.9992 11.8899C65.4239 12.321 65.9536 12.54 66.5678 12.5389C67.1814 12.54 67.712 12.321 68.136 11.8899C68.5634 11.4584 68.7784 10.9001 68.7778 10.2371C68.7784 9.57405 68.5634 9.01576 68.136 8.58426C67.712 8.15311 67.1814 7.93414 66.5678 7.93524C65.9536 7.93414 65.4239 8.15311 64.9992 8.58426C64.5727 9.01576 64.3574 9.57405 64.3585 10.2371C64.3574 10.9001 64.5727 11.4584 64.9992 11.8899L65.0647 11.825L65.1304 11.7602C64.7392 11.3622 64.5437 10.8616 64.543 10.2371C64.5437 9.61258 64.7392 9.11192 65.1304 8.71389C65.5251 8.31595 65.9964 8.12075 66.5678 8.11964C67.1386 8.12075 67.6112 8.31595 68.0048 8.71389C68.3967 9.11192 68.5922 9.61258 68.5929 10.2371C68.5922 10.8616 68.3967 11.3622 68.0048 11.7602C67.6112 12.1582 67.1386 12.3534 66.5678 12.3545C65.9964 12.3534 65.5251 12.1582 65.1304 11.7602L65.0647 11.825ZM68.5962 12.2882L68.5303 12.2241C68.0016 12.7658 67.3551 13.0334 66.5678 13.0344C65.7801 13.0334 65.1335 12.7658 64.6059 12.2241C64.0783 11.6806 63.818 11.0252 63.8171 10.2371C63.818 9.44901 64.0783 8.79355 64.6059 8.25002C65.1335 7.70833 65.7801 7.44039 66.5678 7.43928C67.35 7.44039 67.9951 7.70944 68.5267 8.25398C69.0561 8.8 69.318 9.45446 69.3191 10.2371C69.318 11.0252 69.0569 11.6806 68.5303 12.2241L68.5962 12.2882L68.6625 12.3523C69.2214 11.7782 69.5041 11.0661 69.5035 10.2371C69.5041 9.41269 69.2203 8.70209 68.6588 8.12545C68.0971 7.54661 67.3933 7.25387 66.5678 7.25489C65.7379 7.25387 65.032 7.54522 64.4738 8.12186C63.9137 8.69627 63.632 9.40798 63.6328 10.2371C63.632 11.0661 63.9137 11.7782 64.4738 12.3526C65.032 12.9292 65.7379 13.2196 66.5678 13.2189C67.3973 13.2196 68.1031 12.9289 68.6625 12.3523L68.5962 12.2882Z" fill="#171717"/>
<path d="M70.4082 13.0038V7.47168H71.2734L73.962 11.7753H73.9926L73.962 10.7092V7.47168H74.6733V13.0038H73.9314L71.1185 8.49163H71.0879L71.1185 9.55813V13.0038H70.4082Z" fill="#171717"/>
<path d="M70.4086 13.0032H70.5007V7.5633H71.2225L73.9112 11.8669H73.993H74.0876L74.0545 10.7072V7.5633H74.5814V12.9111H73.9829L71.17 8.39885H71.0882H70.9935L71.0266 9.55902V12.9111H70.4086V13.0032V13.0954H71.1187H71.211V9.55607L71.1804 8.48856L71.0882 8.49105V8.58325H71.1187V8.49105L71.0406 8.5401L73.8805 13.0954H74.6737H74.7658V7.37891H73.9623H73.8701V10.7097L73.9007 11.7772L73.993 11.7747V11.6826H73.9623V11.7747L74.0405 11.7258L71.3248 7.37891H70.4086H70.3164V13.0954H70.4086V13.0032Z" fill="#171717"/>
<path d="M99.3243 28.678H101.045V17.1517H99.3243V28.678ZM114.821 21.3037L112.849 26.301H112.79L110.742 21.3037H108.889L111.959 28.2882L110.209 32.1734H112.003L116.734 21.3037H114.821ZM105.064 27.3688C104.499 27.3688 103.714 27.0872 103.714 26.3899C103.714 25.5003 104.693 25.1592 105.538 25.1592C106.295 25.1592 106.65 25.3224 107.11 25.545C106.976 26.6125 106.057 27.3688 105.064 27.3688ZM105.272 21.0515C104.026 21.0515 102.735 21.6004 102.202 22.8164L103.729 23.4538C104.055 22.8164 104.663 22.6085 105.301 22.6085C106.19 22.6085 107.096 23.1427 107.11 24.0917V24.2102C106.798 24.0322 106.131 23.7653 105.315 23.7653C103.67 23.7653 101.994 24.6697 101.994 26.3603C101.994 27.9026 103.343 28.8963 104.855 28.8963C106.012 28.8963 106.65 28.3772 107.051 27.7694H107.11V28.6589H108.77V24.2397C108.77 22.1936 107.244 21.0515 105.272 21.0515ZM94.6386 22.7068H92.1915V18.7558H94.6386C95.9248 18.7558 96.6551 19.8208 96.6551 20.7313C96.6551 21.6246 95.9248 22.7068 94.6386 22.7068ZM94.5944 17.1517H90.4719V28.678H92.1915V24.311H94.5944C96.5011 24.311 98.3756 22.9305 98.3756 20.7313C98.3756 18.5322 96.5011 17.1517 94.5944 17.1517ZM72.1145 27.371C70.926 27.371 69.9308 26.3758 69.9308 25.009C69.9308 23.6279 70.926 22.6175 72.1145 22.6175C73.288 22.6175 74.2089 23.6279 74.2089 25.009C74.2089 26.3758 73.288 27.371 72.1145 27.371ZM74.09 21.9491H74.0306C73.6445 21.4887 72.9014 21.0728 71.9658 21.0728C70.0051 21.0728 68.2078 22.7957 68.2078 25.009C68.2078 27.2075 70.0051 28.9157 71.9658 28.9157C72.9014 28.9157 73.6445 28.4997 74.0306 28.0246H74.09V28.589C74.09 30.0895 73.288 30.8916 71.9956 30.8916C70.941 30.8916 70.2874 30.1338 70.0198 29.4952L68.5197 30.119C68.9505 31.1588 70.0944 32.4364 71.9956 32.4364C74.0158 32.4364 75.724 31.2478 75.724 28.3513V21.3105H74.09V21.9491ZM76.9123 28.678H78.6353V17.1513H76.9123V28.678ZM81.1755 24.8754C81.1309 23.3601 82.349 22.5879 83.2252 22.5879C83.909 22.5879 84.488 22.9294 84.6807 23.42L81.1755 24.8754ZM86.5229 23.5683C86.1966 22.6917 85.2008 21.0728 83.1658 21.0728C81.1456 21.0728 79.4673 22.6622 79.4673 24.9942C79.4673 27.1927 81.1309 28.9157 83.3588 28.9157C85.1566 28.9157 86.1966 27.8164 86.6271 27.1779L85.2902 26.2865C84.8449 26.9401 84.2354 27.371 83.3588 27.371C82.4825 27.371 81.8588 26.9698 81.4575 26.1827L86.7009 24.0139L86.5229 23.5683ZM44.7477 22.276V23.9396H48.7286C48.6097 24.8754 48.2978 25.5586 47.8225 26.034C47.2434 26.6135 46.3372 27.2521 44.7477 27.2521C42.2967 27.2521 40.3807 25.2766 40.3807 22.8256C40.3807 20.3747 42.2967 18.399 44.7477 18.399C46.0698 18.399 47.0352 18.9189 47.7482 19.5874L48.9217 18.4141C47.9265 17.4632 46.6043 16.7354 44.7477 16.7354C41.3906 16.7354 38.5684 19.4685 38.5684 22.8256C38.5684 26.1827 41.3906 28.9157 44.7477 28.9157C46.5601 28.9157 47.9265 28.3219 48.9959 27.2075C50.0951 26.1082 50.437 24.5635 50.437 23.3159C50.437 22.9294 50.4074 22.5732 50.3476 22.276H44.7477ZM54.9628 27.371C53.7742 27.371 52.7492 26.3906 52.7492 24.9942C52.7492 23.5831 53.7742 22.6175 54.9628 22.6175C56.1508 22.6175 57.1759 23.5831 57.1759 24.9942C57.1759 26.3906 56.1508 27.371 54.9628 27.371ZM54.9628 21.0728C52.7938 21.0728 51.0261 22.7216 51.0261 24.9942C51.0261 27.2521 52.7938 28.9157 54.9628 28.9157C57.1313 28.9157 58.899 27.2521 58.899 24.9942C58.899 22.7216 57.1313 21.0728 54.9628 21.0728ZM63.5498 27.371C62.3616 27.371 61.3366 26.3906 61.3366 24.9942C61.3366 23.5831 62.3616 22.6175 63.5498 22.6175C64.7379 22.6175 65.7629 23.5831 65.7629 24.9942C65.7629 26.3906 64.7379 27.371 63.5498 27.371ZM63.5498 21.0728C61.3809 21.0728 59.6135 22.7216 59.6135 24.9942C59.6135 27.2521 61.3809 28.9157 63.5498 28.9157C65.7183 28.9157 67.4861 27.2521 67.4861 24.9942C67.4861 22.7216 65.7183 21.0728 63.5498 21.0728Z" fill="#171717"/>
</g>
</g>
<g clip-path="url(#clip1_352_225)">
<mask id="mask2_352_225" style="mask-type:luminance" maskUnits="userSpaceOnUse" x="136" y="0" width="112" height="39">
<path d="M247.507 0.88855H136.4V38.0279H247.507V0.88855Z" fill="white"/>
</mask>
<g mask="url(#mask2_352_225)">
<path d="M238.659 0.888548H145.253C144.913 0.888548 144.576 0.888548 144.237 0.890405C143.952 0.892262 143.67 0.897656 143.384 0.902196C142.76 0.909533 142.138 0.964383 141.523 1.06627C140.909 1.17037 140.314 1.36663 139.758 1.64843C139.203 1.9326 138.696 2.30185 138.255 2.7428C137.812 3.18249 137.443 3.69072 137.161 4.24795C136.879 4.80406 136.683 5.39998 136.581 6.01514C136.477 6.62952 136.422 7.251 136.414 7.87397C136.406 8.15864 136.405 8.44426 136.4 8.72896V30.1901C136.405 30.4785 136.406 30.7578 136.414 31.0461C136.422 31.669 136.477 32.2905 136.581 32.9049C136.683 33.5203 136.879 34.1167 137.161 34.673C137.442 35.2284 137.812 35.7345 138.255 36.1718C138.694 36.6147 139.202 36.9842 139.758 37.2662C140.314 37.5488 140.909 37.7462 141.523 37.8519C142.138 37.953 142.76 38.0079 143.384 38.016C143.67 38.0223 143.952 38.026 144.237 38.026C144.576 38.0278 144.913 38.0278 145.253 38.0278H238.659C238.993 38.0278 239.332 38.0278 239.666 38.026C239.948 38.026 240.238 38.0223 240.521 38.016C241.143 38.0083 241.764 37.9534 242.378 37.8519C242.994 37.7455 243.592 37.5481 244.149 37.2662C244.705 36.984 245.212 36.6145 245.651 36.1718C246.093 35.7328 246.464 35.2271 246.749 34.673C247.029 34.1163 247.222 33.52 247.323 32.9049C247.427 32.2904 247.484 31.6691 247.495 31.0461C247.499 30.7578 247.499 30.4785 247.499 30.1901C247.506 29.8528 247.506 29.5173 247.506 29.1745V9.74267C247.506 9.40266 247.506 9.06535 247.499 8.72896C247.499 8.44426 247.499 8.15864 247.495 7.87392C247.484 7.2509 247.427 6.62957 247.323 6.0151C247.222 5.40031 247.029 4.80442 246.749 4.24791C246.176 3.13102 245.266 2.22188 244.149 1.64835C243.592 1.36724 242.994 1.17103 242.378 1.06618C241.764 0.963851 241.143 0.908981 240.521 0.902067C240.238 0.897536 239.948 0.892095 239.666 0.890284C239.332 0.888428 238.993 0.888548 238.659 0.888548Z" fill="#171717"/>
<path d="M144.241 37.2157C143.958 37.2157 143.682 37.212 143.402 37.2057C142.82 37.1982 142.24 37.1474 141.666 37.0543C141.131 36.962 140.613 36.7906 140.128 36.5455C139.648 36.3025 139.21 35.9838 138.831 35.6017C138.446 35.224 138.126 34.786 137.883 34.3051C137.638 33.8209 137.468 33.302 137.379 32.7663C137.284 32.1908 137.232 31.6088 137.225 31.0255C137.221 30.9068 137.217 30.621 137.214 30.4139C137.212 30.2563 137.211 30.0988 137.211 29.9412V8.98483C137.211 8.81439 137.212 8.64407 137.214 8.47366C137.217 8.27257 137.221 8.00855 137.225 7.89861C137.232 7.31615 137.283 6.73509 137.378 6.16042C137.467 5.62331 137.637 5.1029 137.883 4.6172C138.125 4.13653 138.443 3.69821 138.825 3.31922C139.207 2.93664 139.646 2.61629 140.127 2.36988C140.611 2.12557 141.128 1.95532 141.663 1.86484C142.238 1.77066 142.82 1.71974 143.404 1.7125L144.242 1.70117H239.66L240.508 1.71296C241.087 1.71983 241.663 1.77029 242.234 1.86392C242.773 1.95555 243.296 2.12699 243.785 2.3726C244.749 2.86919 245.533 3.65485 246.028 4.61946C246.269 5.10181 246.437 5.61798 246.525 6.15045C246.62 6.72982 246.674 7.31547 246.686 7.90269C246.689 8.16564 246.689 8.44809 246.689 8.72917C246.696 9.07735 246.696 9.40876 246.696 9.74288V29.1748C246.696 29.5121 246.696 29.8413 246.689 30.1731C246.689 30.4751 246.689 30.7516 246.685 31.0363C246.674 31.6131 246.62 32.1882 246.526 32.7573C246.439 33.2968 246.27 33.8197 246.025 34.3078C245.781 34.7836 245.462 35.2177 245.082 35.5944C244.702 35.9786 244.263 36.2991 243.783 36.5438C243.295 36.7908 242.773 36.9629 242.234 37.0543C241.66 37.148 241.08 37.1987 240.498 37.2057C240.226 37.212 239.941 37.2157 239.665 37.2157L238.659 37.2175L144.241 37.2157Z" fill="white"/>
<path d="M159.609 19.3563C159.62 18.5504 159.834 17.7602 160.232 17.0593C160.63 16.3584 161.198 15.7695 161.885 15.3474C161.449 14.7245 160.873 14.2119 160.204 13.8502C159.535 13.4886 158.791 13.2879 158.031 13.2642C156.41 13.0939 154.838 14.2344 154.012 14.2344C153.17 14.2344 151.898 13.2811 150.528 13.3092C149.642 13.3379 148.778 13.5955 148.021 14.0571C147.264 14.5186 146.64 15.1684 146.209 15.943C144.342 19.176 145.735 23.9274 147.523 26.5407C148.418 27.8203 149.464 29.2498 150.833 29.1991C152.172 29.1435 152.672 28.3451 154.289 28.3451C155.89 28.3451 156.36 29.1991 157.756 29.1669C159.193 29.1435 160.098 27.8815 160.962 26.5898C161.605 25.6779 162.1 24.6702 162.428 23.6039C161.593 23.2508 160.881 22.6596 160.379 21.9043C159.878 21.149 159.61 20.2629 159.609 19.3563Z" fill="#171717"/>
<path d="M156.973 11.5459C157.756 10.6052 158.142 9.39619 158.049 8.17554C156.852 8.30127 155.746 8.8734 154.952 9.77793C154.563 10.2198 154.266 10.7339 154.077 11.2908C153.887 11.8476 153.809 12.4364 153.847 13.0234C154.446 13.0296 155.038 12.8998 155.58 12.6438C156.121 12.388 156.597 12.0125 156.973 11.5459Z" fill="#171717"/>
<path d="M175.677 26.087H171.282L170.227 29.2034H168.365L172.528 17.6736H174.462L178.625 29.2034H176.732L175.677 26.087ZM171.737 24.649H175.221L173.504 19.5913H173.456L171.737 24.649Z" fill="#171717"/>
<path d="M187.614 25.0008C187.614 27.6131 186.216 29.2915 184.106 29.2915C183.571 29.3195 183.04 29.1963 182.572 28.9362C182.104 28.6761 181.719 28.2895 181.461 27.8207H181.421V31.9844H179.695V20.7973H181.365V22.1955H181.397C181.667 21.7289 182.059 21.3443 182.53 21.0827C183.002 20.821 183.535 20.692 184.074 20.7093C186.207 20.7093 187.614 22.3959 187.614 25.0008ZM185.84 25.0008C185.84 23.299 184.961 22.18 183.619 22.18C182.3 22.18 181.414 23.3225 181.414 25.0008C181.414 26.6946 182.3 27.829 183.619 27.829C184.961 27.829 185.84 26.7182 185.84 25.0008Z" fill="#171717"/>
<path d="M196.868 25.0008C196.868 27.6131 195.47 29.2915 193.36 29.2915C192.825 29.3195 192.294 29.1963 191.826 28.9362C191.358 28.6761 190.973 28.2895 190.715 27.8207H190.675V31.9844H188.949V20.7973H190.619V22.1955H190.651C190.921 21.7289 191.313 21.3443 191.784 21.0827C192.256 20.821 192.789 20.692 193.328 20.7093C195.461 20.7093 196.868 22.3959 196.868 25.0008ZM195.094 25.0008C195.094 23.299 194.215 22.18 192.873 22.18C191.554 22.18 190.668 23.3225 190.668 25.0008C190.668 26.6946 191.554 27.829 192.873 27.829C194.215 27.829 195.094 26.7182 195.094 25.0008Z" fill="#171717"/>
<path d="M202.981 25.9918C203.109 27.1352 204.22 27.8859 205.738 27.8859C207.192 27.8859 208.238 27.1352 208.238 26.1042C208.238 25.2093 207.607 24.6734 206.113 24.3062L204.619 23.9463C202.501 23.4348 201.519 22.4447 201.519 20.838C201.519 18.8486 203.252 17.4822 205.713 17.4822C208.15 17.4822 209.821 18.8486 209.877 20.838H208.135C208.031 19.6874 207.08 18.9928 205.69 18.9928C204.3 18.9928 203.348 19.6956 203.348 20.7183C203.348 21.5334 203.956 22.0131 205.442 22.3803L206.712 22.6922C209.078 23.2517 210.06 24.2019 210.06 25.8884C210.06 28.0455 208.343 29.3965 205.61 29.3965C203.053 29.3965 201.326 28.0772 201.215 25.9917L202.981 25.9918Z" fill="#171717"/>
<path d="M213.786 18.8093V20.7987H215.385V22.1652H213.786V26.7994C213.786 27.5194 214.106 27.8548 214.809 27.8548C214.999 27.8515 215.188 27.8381 215.376 27.8148V29.1732C215.06 29.2322 214.739 29.2589 214.418 29.253C212.716 29.253 212.052 28.6137 212.052 26.9834V22.1652H210.83V20.7987H212.052V18.8093H213.786Z" fill="#171717"/>
<path d="M216.309 25.002C216.309 22.3571 217.866 20.6951 220.295 20.6951C222.733 20.6951 224.283 22.3571 224.283 25.002C224.283 27.6542 222.741 29.3089 220.295 29.3089C217.851 29.3089 216.309 27.6542 216.309 25.002ZM222.525 25.002C222.525 23.1876 221.694 22.1168 220.295 22.1168C218.897 22.1168 218.066 23.1959 218.066 25.002C218.066 26.8236 218.897 27.8863 220.295 27.8863C221.694 27.8863 222.525 26.8236 222.525 25.002Z" fill="#171717"/>
<path d="M225.707 20.7971H227.353V22.2279H227.393C227.504 21.781 227.766 21.3862 228.134 21.1096C228.502 20.833 228.954 20.6916 229.415 20.7092C229.614 20.7085 229.812 20.7301 230.006 20.7736V22.3876C229.755 22.3108 229.493 22.2756 229.231 22.2833C228.98 22.2731 228.73 22.3173 228.498 22.4128C228.266 22.5083 228.057 22.6529 227.887 22.8367C227.716 23.0204 227.587 23.2389 227.508 23.4773C227.43 23.7155 227.404 23.968 227.433 24.2173V29.2033H225.707V20.7971Z" fill="#171717"/>
<path d="M237.96 26.7357C237.728 28.2617 236.242 29.309 234.34 29.309C231.895 29.309 230.377 27.6705 230.377 25.0419C230.377 22.4052 231.903 20.6951 234.268 20.6951C236.593 20.6951 238.056 22.2928 238.056 24.8415V25.4328H232.119V25.537C232.091 25.8463 232.13 26.158 232.232 26.4512C232.335 26.7446 232.498 27.0126 232.712 27.2379C232.926 27.4631 233.185 27.6401 233.473 27.7574C233.76 27.8747 234.07 27.9295 234.38 27.918C234.788 27.9563 235.197 27.8618 235.547 27.6488C235.897 27.4358 236.168 27.1155 236.321 26.7357H237.96ZM232.127 24.2268H236.33C236.345 23.9486 236.303 23.6702 236.206 23.4092C236.109 23.148 235.958 22.9099 235.765 22.7095C235.571 22.5092 235.338 22.351 235.081 22.245C234.823 22.1389 234.546 22.0873 234.268 22.0933C233.987 22.0916 233.708 22.1455 233.448 22.2521C233.188 22.3586 232.952 22.5156 232.753 22.714C232.554 22.9123 232.396 23.1481 232.289 23.4077C232.181 23.6675 232.126 23.9457 232.127 24.2268Z" fill="#171717"/>
<path d="M171.521 8.9953C171.882 8.96934 172.245 9.02399 172.583 9.15531C172.922 9.28663 173.226 9.49134 173.476 9.75468C173.725 10.018 173.913 10.3335 174.026 10.6781C174.138 11.0229 174.173 11.3883 174.128 11.7481C174.128 13.5181 173.171 14.5354 171.521 14.5354H169.52V8.9953H171.521ZM170.38 13.7519H171.425C171.683 13.7674 171.942 13.7249 172.182 13.6278C172.422 13.5307 172.637 13.3813 172.812 13.1904C172.987 12.9995 173.117 12.7721 173.193 12.5245C173.27 12.2769 173.289 12.0156 173.252 11.7594C173.287 11.5042 173.265 11.2444 173.188 10.9987C173.11 10.7529 172.98 10.5273 172.805 10.338C172.631 10.1487 172.416 10.0003 172.178 9.90351C171.939 9.80672 171.682 9.76394 171.425 9.77821H170.38V13.7519Z" fill="#171717"/>
<path d="M175.101 12.4435C175.075 12.1687 175.106 11.8915 175.193 11.6296C175.281 11.3677 175.421 11.1269 175.607 10.9226C175.793 10.7184 176.019 10.5552 176.271 10.4435C176.524 10.3319 176.797 10.2742 177.073 10.2742C177.349 10.2742 177.622 10.3319 177.874 10.4435C178.127 10.5552 178.353 10.7184 178.538 10.9226C178.724 11.1269 178.865 11.3677 178.952 11.6296C179.039 11.8915 179.071 12.1687 179.044 12.4435C179.071 12.7185 179.04 12.9961 178.953 13.2584C178.866 13.5208 178.726 13.762 178.54 13.9666C178.354 14.1713 178.128 14.3348 177.875 14.4467C177.622 14.5587 177.349 14.6164 177.073 14.6164C176.796 14.6164 176.523 14.5587 176.27 14.4467C176.018 14.3348 175.791 14.1713 175.606 13.9666C175.42 13.762 175.279 13.5208 175.192 13.2584C175.105 12.9961 175.074 12.7185 175.101 12.4435ZM178.196 12.4435C178.196 11.5372 177.789 11.0072 177.074 11.0072C176.357 11.0072 175.953 11.5372 175.953 12.4435C175.953 13.3569 176.357 13.8829 177.074 13.8829C177.789 13.8828 178.196 13.3534 178.196 12.4435Z" fill="#171717"/>
<path d="M184.285 14.5351H183.429L182.565 11.4559H182.499L181.639 14.5351H180.791L179.639 10.3542H180.476L181.225 13.5445H181.286L182.146 10.3542H182.937L183.797 13.5445H183.862L184.607 10.3542H185.433L184.285 14.5351Z" fill="#171717"/>
<path d="M186.402 10.3543H187.197V11.0185H187.258C187.363 10.7799 187.539 10.58 187.763 10.4465C187.987 10.313 188.246 10.2525 188.506 10.2736C188.709 10.2584 188.914 10.289 189.104 10.3634C189.294 10.4377 189.464 10.5539 189.603 10.7033C189.742 10.8526 189.846 11.0313 189.906 11.2261C189.967 11.421 189.983 11.6268 189.953 11.8286V14.5352H189.128V12.0358C189.128 11.3639 188.836 11.0299 188.226 11.0299C188.088 11.0234 187.95 11.0469 187.822 11.0987C187.693 11.1506 187.578 11.2296 187.483 11.3301C187.388 11.4308 187.316 11.5508 187.272 11.6818C187.228 11.8129 187.213 11.9518 187.227 12.0894V14.5352H186.402V10.3543Z" fill="#171717"/>
<path d="M191.268 8.72241H192.093V14.5354H191.268V8.72241Z" fill="#171717"/>
<path d="M193.24 12.4425C193.213 12.1678 193.245 11.8906 193.332 11.6286C193.419 11.3667 193.56 11.1259 193.746 10.9217C193.931 10.7175 194.158 10.5542 194.41 10.4426C194.663 10.3309 194.936 10.2732 195.212 10.2732C195.488 10.2732 195.761 10.3309 196.013 10.4426C196.265 10.5542 196.492 10.7175 196.677 10.9217C196.863 11.1259 197.004 11.3667 197.091 11.6286C197.178 11.8906 197.21 12.1678 197.184 12.4425C197.21 12.7176 197.179 12.9952 197.092 13.2576C197.005 13.5198 196.864 13.761 196.679 13.9657C196.493 14.1703 196.267 14.3339 196.014 14.4458C195.761 14.5577 195.488 14.6156 195.212 14.6156C194.935 14.6156 194.662 14.5577 194.409 14.4458C194.157 14.3339 193.93 14.1703 193.745 13.9657C193.559 13.761 193.418 13.5198 193.331 13.2576C193.244 12.9952 193.213 12.7176 193.24 12.4425ZM196.334 12.4425C196.334 11.5363 195.927 11.0063 195.213 11.0063C194.496 11.0063 194.092 11.5363 194.092 12.4425C194.092 13.3561 194.496 13.882 195.213 13.882C195.927 13.882 196.334 13.3524 196.334 12.4425Z" fill="#171717"/>
<path d="M198.053 13.3534C198.053 12.6008 198.613 12.1669 199.608 12.1053L200.74 12.04V11.6791C200.74 11.2376 200.448 10.9882 199.884 10.9882C199.424 10.9882 199.105 11.1573 199.013 11.4529H198.214C198.299 10.7348 198.974 10.2742 199.922 10.2742C200.971 10.2742 201.562 10.796 201.562 11.6791V14.5358H200.767V13.9482H200.702C200.57 14.159 200.384 14.3308 200.163 14.4461C199.942 14.5614 199.695 14.6161 199.446 14.6046C199.271 14.6229 199.093 14.6042 198.926 14.5497C198.758 14.4951 198.603 14.4061 198.472 14.2883C198.341 14.1704 198.235 14.0263 198.163 13.8652C198.091 13.7042 198.053 13.5298 198.053 13.3534ZM200.74 12.9961V12.6466L199.719 12.7118C199.144 12.7504 198.882 12.9462 198.882 13.3149C198.882 13.6911 199.209 13.9101 199.658 13.9101C199.789 13.9235 199.922 13.9101 200.048 13.871C200.175 13.832 200.292 13.7679 200.393 13.6827C200.494 13.5973 200.577 13.4927 200.636 13.3747C200.696 13.2568 200.731 13.1281 200.74 12.9961Z" fill="#171717"/>
<path d="M202.646 12.4432C202.646 11.122 203.326 10.2852 204.382 10.2852C204.643 10.2731 204.903 10.3357 205.13 10.4656C205.357 10.5955 205.542 10.7873 205.664 11.0187H205.726V8.72241H206.551V14.5354H205.76V13.8748H205.695C205.563 14.1046 205.372 14.2941 205.14 14.4227C204.909 14.5513 204.647 14.6141 204.382 14.6043C203.318 14.6043 202.646 13.7674 202.646 12.4432ZM203.499 12.4432C203.499 13.3299 203.917 13.8635 204.616 13.8635C205.311 13.8635 205.741 13.3223 205.741 12.4467C205.741 11.5754 205.307 11.0264 204.616 11.0264C203.921 11.0264 203.499 11.5636 203.499 12.4432Z" fill="#171717"/>
<path d="M209.964 12.4435C209.938 12.1687 209.97 11.8915 210.057 11.6296C210.144 11.3677 210.285 11.1269 210.47 10.9226C210.656 10.7184 210.882 10.5552 211.135 10.4435C211.387 10.3319 211.66 10.2742 211.936 10.2742C212.212 10.2742 212.485 10.3319 212.737 10.4435C212.99 10.5552 213.216 10.7184 213.402 10.9226C213.587 11.1269 213.728 11.3677 213.815 11.6296C213.903 11.8915 213.934 12.1687 213.908 12.4435C213.934 12.7185 213.903 12.9961 213.817 13.2584C213.73 13.5208 213.589 13.762 213.403 13.9666C213.218 14.1713 212.991 14.3348 212.738 14.4467C212.486 14.5587 212.212 14.6164 211.936 14.6164C211.66 14.6164 211.386 14.5587 211.134 14.4467C210.881 14.3348 210.655 14.1713 210.469 13.9666C210.283 13.762 210.142 13.5208 210.056 13.2584C209.969 12.9961 209.938 12.7185 209.964 12.4435ZM213.059 12.4435C213.059 11.5372 212.652 11.0072 211.937 11.0072C211.22 11.0072 210.817 11.5372 210.817 12.4435C210.817 13.3569 211.22 13.8829 211.937 13.8829C212.652 13.8828 213.059 13.3534 213.059 12.4435Z" fill="#171717"/>
<path d="M215.014 10.3541H215.808V11.0182H215.87C215.974 10.7797 216.151 10.5797 216.374 10.4462C216.598 10.3128 216.858 10.2523 217.117 10.2734C217.321 10.2581 217.525 10.2888 217.715 10.3632C217.905 10.4375 218.076 10.5537 218.215 10.703C218.354 10.8524 218.457 11.0311 218.518 11.2258C218.578 11.4207 218.594 11.6266 218.564 11.8284V14.535H217.739V12.0356C217.739 11.3637 217.447 11.0296 216.837 11.0296C216.699 11.0231 216.561 11.0467 216.433 11.0985C216.305 11.1504 216.189 11.2293 216.094 11.3299C216 11.4306 215.928 11.5505 215.883 11.6816C215.839 11.8126 215.824 11.9516 215.839 12.0891V14.535H215.014V10.3541Z" fill="#171717"/>
<path d="M223.228 9.31323V10.3732H224.134V11.0682H223.228V13.218C223.228 13.656 223.408 13.8477 223.819 13.8477C223.924 13.8474 224.029 13.841 224.134 13.8287V14.516C223.986 14.5425 223.835 14.5566 223.685 14.5582C222.767 14.5582 222.402 14.2353 222.402 13.4293V11.0682H221.738V10.3732H222.402V9.31323H223.228Z" fill="#171717"/>
<path d="M225.26 8.72241H226.078V11.0264H226.143C226.253 10.7856 226.434 10.5845 226.662 10.4505C226.89 10.3164 227.154 10.256 227.418 10.2774C227.62 10.2664 227.822 10.3003 228.01 10.3764C228.198 10.4526 228.367 10.5693 228.504 10.7181C228.642 10.867 228.745 11.0443 228.806 11.2377C228.867 11.4309 228.885 11.6353 228.858 11.8361V14.5354H228.032V12.0397C228.032 11.3719 227.721 11.0336 227.138 11.0336C226.996 11.022 226.853 11.0415 226.72 11.0908C226.586 11.14 226.465 11.2178 226.365 11.3188C226.264 11.4197 226.188 11.5414 226.139 11.6753C226.091 11.8091 226.072 11.9518 226.085 12.0935V14.5354H225.26V8.72241Z" fill="#171717"/>
<path d="M233.669 13.406C233.557 13.7881 233.314 14.1186 232.983 14.3398C232.652 14.5608 232.253 14.6584 231.857 14.6156C231.582 14.6228 231.308 14.5701 231.055 14.4609C230.802 14.3518 230.576 14.189 230.392 13.9836C230.208 13.7782 230.072 13.5354 229.991 13.2719C229.911 13.0084 229.888 12.7306 229.926 12.4576C229.889 12.1838 229.912 11.9052 229.992 11.6409C230.073 11.3766 230.209 11.1327 230.391 10.9256C230.574 10.7185 230.799 10.553 231.052 10.4405C231.304 10.3279 231.577 10.2709 231.854 10.2733C233.017 10.2733 233.719 11.068 233.719 12.3809V12.6689H230.767V12.7151C230.754 12.8685 230.773 13.023 230.823 13.1685C230.873 13.314 230.954 13.4474 231.058 13.5603C231.163 13.673 231.29 13.7626 231.432 13.8233C231.573 13.884 231.726 13.9145 231.88 13.9128C232.077 13.9365 232.277 13.9009 232.454 13.8107C232.632 13.7204 232.778 13.5796 232.875 13.406H233.669ZM230.767 12.0586H232.878C232.889 11.9183 232.87 11.7774 232.822 11.6448C232.775 11.5123 232.701 11.3912 232.604 11.2891C232.507 11.1871 232.389 11.1066 232.26 11.0525C232.13 10.9986 231.99 10.9723 231.849 10.9756C231.706 10.9737 231.565 11.0005 231.433 11.0544C231.3 11.1081 231.18 11.1878 231.08 11.2887C230.979 11.3897 230.899 11.5098 230.845 11.642C230.791 11.7743 230.765 11.9159 230.767 12.0586Z" fill="#171717"/>
</g>
</g>
<defs>
<clipPath id="clip0_352_225">
<rect width="126" height="38.6129" fill="white" transform="translate(0.0703125 0.151367)"/>
</clipPath>
<clipPath id="clip1_352_225">
<rect width="111.997" height="38.69" fill="white" transform="translate(136.072 0.113281)"/>
</clipPath>
</defs>
</svg>
