<svg width="13" height="16" viewBox="0 0 13 16" fill="none" xmlns="http://www.w3.org/2000/svg">
<path d="M11.8159 6.54838L10.2469 5.64138L8.35694 7.96338L10.2829 10.3334L11.8159 9.44837C12.4559 9.08037 12.8059 8.56337 12.8059 7.99837C12.8059 7.43237 12.4559 6.91838 11.8159 6.54838ZM1.64994 15.0114L7.38894 7.96437L1.72394 0.994375C1.70594 0.993375 1.68694 0.984375 1.66894 0.984375C0.796937 0.984375 0.210938 1.69438 0.210938 2.75038V13.2504C0.212938 14.2964 0.790938 15.0004 1.65094 15.0114H1.64994ZM9.58794 5.26437L3.13194 1.53438L7.87294 7.36938L9.58794 5.26437ZM7.87194 8.55838L3.00494 14.5364L9.62394 10.7134L7.87194 8.55838Z" fill="white"/>
</svg>
