<svg width="241" height="241" viewBox="0 0 241 241" fill="none" xmlns="http://www.w3.org/2000/svg">
<rect x="0.0742188" y="0.113281" width="240" height="240" rx="12" fill="white" fill-opacity="0.1"/>
<rect x="50.0742" y="30.1133" width="140" height="140" rx="12" fill="white"/>
<path d="M70 75V50H95V60H80V75H70ZM70 150V125H80V140H95V150H70ZM145 150V140H160V125H170V150H145ZM160 75V60H145V50H170V75H160ZM147.5 127.5H155V135H147.5V127.5ZM147.5 112.5H155V120H147.5V112.5ZM140 120H147.5V127.5H140V120ZM132.5 127.5H140V135H132.5V127.5ZM125 120H132.5V127.5H125V120ZM140 105H147.5V112.5H140V105ZM132.5 112.5H140V120H132.5V112.5ZM125 105H132.5V112.5H125V105ZM155 65V95H125V65H155ZM115 105V135H85V105H115ZM115 65V95H85V65H115ZM107.5 127.5V112.5H92.5V127.5H107.5ZM107.5 87.5V72.5H92.5V87.5H107.5ZM147.5 87.5V72.5H132.5V87.5H147.5Z" fill="#171717"/>
<path d="M66.6296 204.253C66.0509 204.253 65.5609 204.202 65.1596 204.099C64.7583 203.987 64.3429 203.824 63.9136 203.609L63.7736 201.313H63.9976L64.6836 202.797C65.0196 203.077 65.3463 203.283 65.6636 203.413C65.9809 203.535 66.3029 203.595 66.6296 203.595C67.1803 203.595 67.6096 203.451 67.9176 203.161C68.2349 202.872 68.3936 202.48 68.3936 201.985C68.3936 201.575 68.3003 201.253 68.1136 201.019C67.9363 200.786 67.6749 200.581 67.3296 200.403C66.9936 200.217 66.5923 200.007 66.1256 199.773C65.6869 199.549 65.3136 199.33 65.0056 199.115C64.6976 198.901 64.4643 198.653 64.3056 198.373C64.1469 198.084 64.0676 197.725 64.0676 197.295C64.0676 196.978 64.1423 196.67 64.2916 196.371C64.4503 196.063 64.6603 195.788 64.9216 195.545C65.1923 195.293 65.4909 195.097 65.8176 194.957C66.1536 194.808 66.4989 194.733 66.8536 194.733C67.2829 194.733 67.6796 194.785 68.0436 194.887C68.4076 194.99 68.7809 195.135 69.1636 195.321L69.3036 197.561H69.0796L68.4356 196.091C68.1089 195.849 67.8243 195.676 67.5816 195.573C67.3389 195.461 67.0589 195.405 66.7416 195.405C66.3309 195.405 65.9903 195.545 65.7196 195.825C65.4583 196.105 65.3276 196.451 65.3276 196.861C65.3276 197.337 65.4723 197.711 65.7616 197.981C66.0509 198.243 66.5036 198.523 67.1196 198.821C67.6889 199.101 68.1556 199.363 68.5196 199.605C68.8836 199.839 69.1543 200.109 69.3316 200.417C69.5089 200.725 69.5976 201.117 69.5976 201.593C69.5976 202.032 69.5043 202.419 69.3176 202.755C69.1309 203.082 68.8883 203.357 68.5896 203.581C68.3003 203.805 67.9783 203.973 67.6236 204.085C67.2783 204.197 66.9469 204.253 66.6296 204.253ZM74.2705 204.253C73.3652 204.253 72.6512 203.978 72.1285 203.427C71.6059 202.877 71.3445 202.149 71.3445 201.243C71.3445 200.543 71.4845 199.927 71.7645 199.395C72.0539 198.854 72.4412 198.434 72.9265 198.135C73.4119 197.827 73.9579 197.673 74.5645 197.673C74.9379 197.673 75.3019 197.739 75.6565 197.869C76.0112 197.991 76.2819 198.154 76.4685 198.359C76.6179 198.537 76.6925 198.677 76.6925 198.779C76.6925 198.91 76.6319 199.022 76.5105 199.115L75.9785 199.563H75.8805L75.4045 198.919C75.2645 198.733 75.0872 198.583 74.8725 198.471C74.6672 198.35 74.4105 198.289 74.1025 198.289C73.5892 198.289 73.1832 198.495 72.8845 198.905C72.5952 199.307 72.4505 199.871 72.4505 200.599C72.4505 201.047 72.5252 201.472 72.6745 201.873C72.8239 202.265 73.0712 202.587 73.4165 202.839C73.7712 203.082 74.2565 203.203 74.8725 203.203C75.3859 203.203 75.9879 203.017 76.6785 202.643H76.7205V202.783C76.5059 203.185 76.1839 203.53 75.7545 203.819C75.3345 204.109 74.8399 204.253 74.2705 204.253ZM79.5278 204.253C79.0891 204.253 78.7251 204.127 78.4358 203.875C78.1464 203.614 78.0018 203.255 78.0018 202.797C78.0018 202.34 78.1698 201.943 78.5058 201.607C78.8511 201.271 79.4251 201.01 80.2278 200.823L81.5578 200.515V199.493C81.5578 199.176 81.4271 198.905 81.1658 198.681C80.9138 198.448 80.6244 198.331 80.2978 198.331C79.9431 198.331 79.6958 198.429 79.5558 198.625C79.4158 198.812 79.3458 199.064 79.3458 199.381V199.773L79.2758 199.843H78.5478C78.4078 199.843 78.3098 199.82 78.2538 199.773C78.2071 199.727 78.1838 199.619 78.1838 199.451C78.1838 199.246 78.2444 199.036 78.3658 198.821C78.4871 198.607 78.6738 198.42 78.9258 198.261C79.1871 198.093 79.4578 197.953 79.7378 197.841C80.0271 197.729 80.3351 197.673 80.6618 197.673C80.9884 197.673 81.3058 197.72 81.6138 197.813C81.9311 197.907 82.1878 198.065 82.3838 198.289C82.5798 198.504 82.6778 198.807 82.6778 199.199V203.175C82.7431 203.241 82.8364 203.297 82.9578 203.343C83.0791 203.39 83.2471 203.413 83.4618 203.413H83.9938L84.0358 203.441V203.483C83.9238 203.689 83.7558 203.871 83.5318 204.029C83.3171 204.179 83.0511 204.253 82.7338 204.253C82.4444 204.253 82.2064 204.179 82.0198 204.029C81.8424 203.871 81.7164 203.665 81.6418 203.413H81.5578C81.3151 203.656 81.0118 203.857 80.6478 204.015C80.2931 204.174 79.9198 204.253 79.5278 204.253ZM79.0938 202.517C79.0938 203.096 79.4438 203.385 80.1438 203.385C80.3678 203.385 80.5871 203.362 80.8018 203.315C81.0258 203.269 81.2778 203.185 81.5578 203.063V200.991C80.8111 201.131 80.2651 201.281 79.9198 201.439C79.5744 201.589 79.3504 201.752 79.2478 201.929C79.1451 202.107 79.0938 202.303 79.0938 202.517ZM84.8654 204.113V203.889L85.7474 203.441V199.269L84.9074 198.541V198.443L86.6434 197.673H86.7274L86.8534 198.709H86.9234C87.278 198.355 87.6187 198.093 87.9454 197.925C88.2814 197.757 88.65 197.673 89.0514 197.673C89.602 197.673 90.05 197.813 90.3954 198.093C90.75 198.364 90.9274 198.77 90.9274 199.311V203.441L91.8094 203.889V204.113H88.8134V203.889L89.8074 203.441V199.969C89.8074 199.559 89.6767 199.246 89.4154 199.031C89.1634 198.817 88.832 198.709 88.4214 198.709C88.1694 198.709 87.8894 198.751 87.5814 198.835C87.2827 198.919 87.0447 199.041 86.8674 199.199V203.441L87.8614 203.889V204.113H84.8654ZM98.8098 204.253C98.0071 204.253 97.3585 204.034 96.8638 203.595C96.3691 203.147 96.1218 202.559 96.1218 201.831C96.1218 201.393 96.2711 200.954 96.5698 200.515C96.8778 200.067 97.3818 199.61 98.0818 199.143C97.7365 198.779 97.4798 198.481 97.3118 198.247C97.1531 198.005 97.0458 197.785 96.9898 197.589C96.9431 197.393 96.9198 197.169 96.9198 196.917C96.9198 196.591 97.0225 196.259 97.2278 195.923C97.4425 195.587 97.7411 195.307 98.1238 195.083C98.5065 194.85 98.9498 194.733 99.4538 194.733C100.182 194.733 100.746 194.901 101.148 195.237C101.549 195.573 101.75 196.003 101.75 196.525C101.75 196.955 101.549 197.337 101.148 197.673C100.746 198.009 100.2 198.387 99.5098 198.807C99.5845 198.882 99.6591 198.957 99.7338 199.031C99.8085 199.106 99.8878 199.185 99.9718 199.269L102.212 201.509C102.482 201.099 102.73 200.632 102.954 200.109C103.187 199.577 103.406 198.994 103.612 198.359L102.24 197.813V197.589H105.572V197.813L104.382 198.331C104.083 199.022 103.784 199.666 103.486 200.263C103.196 200.851 102.893 201.388 102.576 201.873L104.102 203.385L105.264 203.889V204.113H103.01L101.778 202.881C101.376 203.32 100.933 203.661 100.448 203.903C99.9625 204.137 99.4165 204.253 98.8098 204.253ZM98.1378 196.637C98.1378 196.945 98.2171 197.235 98.3758 197.505C98.5345 197.767 98.8005 198.089 99.1738 198.471C99.6125 198.154 99.9531 197.855 100.196 197.575C100.438 197.295 100.56 196.964 100.56 196.581C100.56 196.208 100.443 195.914 100.21 195.699C99.9858 195.475 99.7011 195.363 99.3558 195.363C99.0198 195.363 98.7305 195.475 98.4878 195.699C98.2545 195.923 98.1378 196.236 98.1378 196.637ZM97.4098 201.495C97.4098 201.887 97.4985 202.223 97.6758 202.503C97.8531 202.774 98.0911 202.984 98.3898 203.133C98.6885 203.273 99.0105 203.343 99.3558 203.343C100.112 203.343 100.793 203.063 101.4 202.503L99.3558 200.459C99.1691 200.273 98.9965 200.1 98.8378 199.941C98.6791 199.783 98.5345 199.633 98.4038 199.493C98.1051 199.727 97.8858 199.941 97.7458 200.137C97.6058 200.333 97.5125 200.539 97.4658 200.753C97.4285 200.968 97.4098 201.215 97.4098 201.495ZM112.128 204.253C111.662 204.253 111.242 204.137 110.868 203.903C110.504 203.67 110.215 203.343 110 202.923C109.795 202.494 109.692 201.985 109.692 201.397C109.692 200.604 109.846 199.932 110.154 199.381C110.462 198.821 110.873 198.397 111.386 198.107C111.9 197.818 112.46 197.673 113.066 197.673C113.328 197.673 113.556 197.687 113.752 197.715C113.948 197.734 114.126 197.762 114.284 197.799V195.209L113.374 194.481V194.383L115.32 193.613H115.404V203.483L116.398 203.889V204.113H114.424L114.312 203.399H114.214C113.86 203.698 113.514 203.917 113.178 204.057C112.852 204.188 112.502 204.253 112.128 204.253ZM110.812 201.075C110.812 201.85 111.018 202.415 111.428 202.769C111.839 203.115 112.329 203.287 112.898 203.287C113.122 203.287 113.351 203.255 113.584 203.189C113.827 203.115 114.06 203.007 114.284 202.867V198.947C114.06 198.751 113.836 198.607 113.612 198.513C113.398 198.411 113.155 198.359 112.884 198.359C112.511 198.359 112.166 198.453 111.848 198.639C111.54 198.817 111.288 199.106 111.092 199.507C110.906 199.899 110.812 200.422 110.812 201.075ZM120.676 204.253C120.06 204.253 119.519 204.109 119.052 203.819C118.595 203.53 118.236 203.138 117.974 202.643C117.722 202.149 117.596 201.589 117.596 200.963C117.596 200.338 117.722 199.778 117.974 199.283C118.236 198.789 118.595 198.397 119.052 198.107C119.519 197.818 120.06 197.673 120.676 197.673C121.292 197.673 121.829 197.818 122.286 198.107C122.753 198.397 123.112 198.789 123.364 199.283C123.626 199.778 123.756 200.338 123.756 200.963C123.756 201.589 123.626 202.149 123.364 202.643C123.112 203.138 122.753 203.53 122.286 203.819C121.829 204.109 121.292 204.253 120.676 204.253ZM120.872 203.651C121.246 203.651 121.554 203.535 121.796 203.301C122.039 203.068 122.216 202.769 122.328 202.405C122.44 202.032 122.496 201.645 122.496 201.243C122.496 200.749 122.426 200.273 122.286 199.815C122.156 199.358 121.941 198.985 121.642 198.695C121.353 198.406 120.975 198.261 120.508 198.261C120.126 198.261 119.813 198.378 119.57 198.611C119.328 198.845 119.146 199.143 119.024 199.507C118.912 199.871 118.856 200.259 118.856 200.669C118.856 201.164 118.926 201.64 119.066 202.097C119.206 202.555 119.426 202.928 119.724 203.217C120.023 203.507 120.406 203.651 120.872 203.651ZM127.271 204.113L125.073 198.471L124.135 198.037V197.813H127.481V198.037L126.333 198.457V198.541L127.789 202.419H127.845L129.833 197.813H130.127L132.115 202.377H132.171L133.585 198.625V198.541L132.577 198.037V197.813H135.321V198.037L134.285 198.527L131.947 204.113H131.653L129.637 199.549L127.565 204.113H127.271ZM135.67 204.113V203.889L136.552 203.441V199.269L135.712 198.541V198.443L137.448 197.673H137.532L137.658 198.709H137.728C138.083 198.355 138.423 198.093 138.75 197.925C139.086 197.757 139.455 197.673 139.856 197.673C140.407 197.673 140.855 197.813 141.2 198.093C141.555 198.364 141.732 198.77 141.732 199.311V203.441L142.614 203.889V204.113H139.618V203.889L140.612 203.441V199.969C140.612 199.559 140.481 199.246 140.22 199.031C139.968 198.817 139.637 198.709 139.226 198.709C138.974 198.709 138.694 198.751 138.386 198.835C138.087 198.919 137.849 199.041 137.672 199.199V203.441L138.666 203.889V204.113H135.67ZM143.762 204.113V203.889L144.644 203.441V195.209L143.804 194.481V194.383L145.68 193.613H145.764V203.441L146.646 203.889V204.113H143.762ZM151.042 204.253C150.426 204.253 149.884 204.109 149.418 203.819C148.96 203.53 148.601 203.138 148.34 202.643C148.088 202.149 147.962 201.589 147.962 200.963C147.962 200.338 148.088 199.778 148.34 199.283C148.601 198.789 148.96 198.397 149.418 198.107C149.884 197.818 150.426 197.673 151.042 197.673C151.658 197.673 152.194 197.818 152.652 198.107C153.118 198.397 153.478 198.789 153.73 199.283C153.991 199.778 154.122 200.338 154.122 200.963C154.122 201.589 153.991 202.149 153.73 202.643C153.478 203.138 153.118 203.53 152.652 203.819C152.194 204.109 151.658 204.253 151.042 204.253ZM151.238 203.651C151.611 203.651 151.919 203.535 152.162 203.301C152.404 203.068 152.582 202.769 152.694 202.405C152.806 202.032 152.862 201.645 152.862 201.243C152.862 200.749 152.792 200.273 152.652 199.815C152.521 199.358 152.306 198.985 152.008 198.695C151.718 198.406 151.34 198.261 150.874 198.261C150.491 198.261 150.178 198.378 149.936 198.611C149.693 198.845 149.511 199.143 149.39 199.507C149.278 199.871 149.222 200.259 149.222 200.669C149.222 201.164 149.292 201.64 149.432 202.097C149.572 202.555 149.791 202.928 150.09 203.217C150.388 203.507 150.771 203.651 151.238 203.651ZM157.075 204.253C156.636 204.253 156.272 204.127 155.983 203.875C155.693 203.614 155.549 203.255 155.549 202.797C155.549 202.34 155.717 201.943 156.053 201.607C156.398 201.271 156.972 201.01 157.775 200.823L159.105 200.515V199.493C159.105 199.176 158.974 198.905 158.713 198.681C158.461 198.448 158.171 198.331 157.845 198.331C157.49 198.331 157.243 198.429 157.103 198.625C156.963 198.812 156.893 199.064 156.893 199.381V199.773L156.823 199.843H156.095C155.955 199.843 155.857 199.82 155.801 199.773C155.754 199.727 155.731 199.619 155.731 199.451C155.731 199.246 155.791 199.036 155.913 198.821C156.034 198.607 156.221 198.42 156.473 198.261C156.734 198.093 157.005 197.953 157.285 197.841C157.574 197.729 157.882 197.673 158.209 197.673C158.535 197.673 158.853 197.72 159.161 197.813C159.478 197.907 159.735 198.065 159.931 198.289C160.127 198.504 160.225 198.807 160.225 199.199V203.175C160.29 203.241 160.383 203.297 160.505 203.343C160.626 203.39 160.794 203.413 161.009 203.413H161.541L161.583 203.441V203.483C161.471 203.689 161.303 203.871 161.079 204.029C160.864 204.179 160.598 204.253 160.281 204.253C159.991 204.253 159.753 204.179 159.567 204.029C159.389 203.871 159.263 203.665 159.189 203.413H159.105C158.862 203.656 158.559 203.857 158.195 204.015C157.84 204.174 157.467 204.253 157.075 204.253ZM156.641 202.517C156.641 203.096 156.991 203.385 157.691 203.385C157.915 203.385 158.134 203.362 158.349 203.315C158.573 203.269 158.825 203.185 159.105 203.063V200.991C158.358 201.131 157.812 201.281 157.467 201.439C157.121 201.589 156.897 201.752 156.795 201.929C156.692 202.107 156.641 202.303 156.641 202.517ZM164.792 204.253C164.326 204.253 163.906 204.137 163.532 203.903C163.168 203.67 162.879 203.343 162.664 202.923C162.459 202.494 162.356 201.985 162.356 201.397C162.356 200.604 162.51 199.932 162.818 199.381C163.126 198.821 163.537 198.397 164.05 198.107C164.564 197.818 165.124 197.673 165.73 197.673C165.992 197.673 166.22 197.687 166.416 197.715C166.612 197.734 166.79 197.762 166.948 197.799V195.209L166.038 194.481V194.383L167.984 193.613H168.068V203.483L169.062 203.889V204.113H167.088L166.976 203.399H166.878C166.524 203.698 166.178 203.917 165.842 204.057C165.516 204.188 165.166 204.253 164.792 204.253ZM163.476 201.075C163.476 201.85 163.682 202.415 164.092 202.769C164.503 203.115 164.993 203.287 165.562 203.287C165.786 203.287 166.015 203.255 166.248 203.189C166.491 203.115 166.724 203.007 166.948 202.867V198.947C166.724 198.751 166.5 198.607 166.276 198.513C166.062 198.411 165.819 198.359 165.548 198.359C165.175 198.359 164.83 198.453 164.512 198.639C164.204 198.817 163.952 199.106 163.756 199.507C163.57 199.899 163.476 200.422 163.476 201.075Z" fill="#7C7C7C"/>
</svg>
