<svg width="40" height="40" viewBox="0 0 40 40" fill="none" xmlns="http://www.w3.org/2000/svg">
<circle cx="20" cy="20" r="20" fill="#00AFCB"/>
<path fill-rule="evenodd" clip-rule="evenodd" d="M18.5939 10.3187C19.0329 10.1089 19.5133 10 19.9999 10C20.4865 10 20.9669 10.1089 21.4059 10.3187C21.7929 10.5037 22.1459 10.8057 22.6369 11.2237L22.7149 11.2897C22.9529 11.4927 23.0279 11.5547 23.1039 11.6057C23.2969 11.7357 23.5139 11.8247 23.7409 11.8697C23.8309 11.8877 23.9279 11.8967 24.2399 11.9207L24.3409 11.9287C24.9829 11.9797 25.4469 12.0167 25.8509 12.1587C26.3098 12.3213 26.7267 12.5844 27.0709 12.9286C27.4152 13.2729 27.6783 13.6897 27.8409 14.1487C27.9829 14.5527 28.0189 15.0167 28.0709 15.6587L28.0789 15.7597C28.1029 16.0717 28.1119 16.1697 28.1299 16.2587C28.1749 16.4867 28.2649 16.7037 28.3939 16.8967C28.4449 16.9717 28.5069 17.0467 28.7099 17.2847L28.7759 17.3627C29.1949 17.8527 29.4959 18.2067 29.6809 18.5927C30.1059 19.4827 30.1059 20.5167 29.6809 21.4057C29.4969 21.7927 29.1949 22.1457 28.7759 22.6367L28.7099 22.7147C28.5978 22.8387 28.4923 22.9685 28.3939 23.1037C28.2639 23.2967 28.1749 23.5137 28.1299 23.7407C28.1119 23.8307 28.1039 23.9277 28.0789 24.2397L28.0699 24.3407C28.0199 24.9827 27.9829 25.4467 27.8399 25.8507C27.678 26.3099 27.4153 26.7269 27.0711 27.0713C26.727 27.4157 26.31 27.6786 25.8509 27.8407C25.4469 27.9827 24.9829 28.0187 24.3409 28.0707L24.2399 28.0787C24.0728 28.0869 23.9062 28.1039 23.7409 28.1297C23.5132 28.1747 23.2967 28.2644 23.1039 28.3937C22.9685 28.4922 22.8383 28.5977 22.7139 28.7097L22.6369 28.7757C22.1469 29.1947 21.7929 29.4957 21.4069 29.6807C20.9678 29.8906 20.4872 29.9996 20.0004 29.9996C19.5137 29.9996 19.0331 29.8906 18.5939 29.6807C18.2069 29.4967 17.8539 29.1947 17.3629 28.7757C17.3369 28.7537 17.3109 28.7317 17.2849 28.7097C17.1612 28.5976 17.0317 28.4922 16.8969 28.3937C16.7039 28.2641 16.487 28.1743 16.2589 28.1297C16.0936 28.1039 15.927 28.0869 15.7599 28.0787L15.6589 28.0697C15.0169 28.0197 14.5529 27.9827 14.1489 27.8397C13.6898 27.6777 13.2727 27.415 12.9284 27.0708C12.584 26.7267 12.3211 26.3097 12.1589 25.8507C12.0169 25.4467 11.9799 24.9827 11.9289 24.3407L11.9209 24.2397C11.9127 24.0726 11.8957 23.906 11.8699 23.7407C11.8249 23.513 11.7351 23.2965 11.6059 23.1037C11.5075 22.9682 11.4021 22.838 11.2899 22.7137L11.2239 22.6367C10.8059 22.1467 10.5039 21.7927 10.3189 21.4067C10.109 20.9675 10 20.4869 10 20.0002C10 19.5134 10.109 19.0328 10.3189 18.5937C10.5039 18.2067 10.8059 17.8537 11.2239 17.3627L11.2899 17.2847C11.402 17.161 11.5075 17.0315 11.6059 16.8967C11.7359 16.7037 11.8249 16.4867 11.8699 16.2587C11.8879 16.1687 11.8969 16.0717 11.9209 15.7597L11.9289 15.6587C11.9799 15.0167 12.0169 14.5527 12.1589 14.1487C12.321 13.6894 12.5838 13.2723 12.9282 12.928C13.2726 12.5836 13.6897 12.3207 14.1489 12.1587C14.5529 12.0167 15.0169 11.9797 15.6589 11.9287L15.7599 11.9207C15.9271 11.913 16.0937 11.896 16.2589 11.8697C16.4869 11.8247 16.7039 11.7347 16.8969 11.6057C16.9719 11.5547 17.0469 11.4927 17.2849 11.2897L17.3629 11.2237C17.8529 10.8057 18.2079 10.5037 18.5939 10.3187ZM20.7559 11.6767C20.5195 11.5637 20.2609 11.5051 19.9989 11.5051C19.7369 11.5051 19.4783 11.5637 19.2419 11.6767C19.0569 11.7647 18.8619 11.9237 18.2609 12.4347L18.2309 12.4597C18.0339 12.6277 17.8909 12.7507 17.7339 12.8557C17.3749 13.0957 16.9729 13.2627 16.5489 13.3457C16.3639 13.3827 16.1759 13.3977 15.9169 13.4187L15.8789 13.4217C15.0919 13.4847 14.8429 13.5107 14.6489 13.5787C14.1489 13.7557 13.7549 14.1487 13.5789 14.6497C13.5089 14.8437 13.4839 15.0927 13.4209 15.8797L13.4179 15.9177C13.3979 16.1767 13.3819 16.3647 13.3459 16.5497C13.2619 16.9737 13.0959 17.3757 12.8559 17.7347C12.7499 17.8917 12.6269 18.0347 12.4589 18.2327L12.4339 18.2617C11.9229 18.8617 11.7639 19.0577 11.6759 19.2417C11.5628 19.4782 11.5041 19.737 11.5041 19.9992C11.5041 20.2613 11.5628 20.5202 11.6759 20.7567C11.7639 20.9417 11.9229 21.1367 12.4339 21.7377L12.4589 21.7677C12.6269 21.9647 12.7499 22.1077 12.8549 22.2647C13.0949 22.6237 13.2619 23.0257 13.3449 23.4497C13.3819 23.6347 13.3969 23.8227 13.4179 24.0817L13.4209 24.1197C13.4839 24.9067 13.5099 25.1557 13.5779 25.3497C13.7549 25.8497 14.1479 26.2437 14.6489 26.4197C14.8429 26.4897 15.0919 26.5147 15.8789 26.5777L15.9169 26.5807C16.1759 26.6007 16.3639 26.6167 16.5489 26.6527C16.9729 26.7367 17.3749 26.9027 17.7339 27.1427C17.8909 27.2487 18.0339 27.3717 18.2319 27.5397L18.2609 27.5647C18.8609 28.0757 19.0569 28.2347 19.2409 28.3227C19.4774 28.4358 19.7363 28.4945 19.9984 28.4945C20.2606 28.4945 20.5194 28.4358 20.7559 28.3227C20.9409 28.2347 21.1359 28.0757 21.7369 27.5647L21.7669 27.5397C21.9639 27.3717 22.1069 27.2487 22.2639 27.1437C22.6229 26.9037 23.0249 26.7367 23.4489 26.6537C23.658 26.6172 23.869 26.5929 24.0809 26.5807L24.1189 26.5777C24.9059 26.5147 25.1549 26.4887 25.3489 26.4207C25.8489 26.2437 26.2429 25.8507 26.4189 25.3497C26.4889 25.1557 26.5139 24.9057 26.5769 24.1197L26.5799 24.0817C26.5917 23.8695 26.6158 23.6581 26.6519 23.4487C26.7359 23.0257 26.9019 22.6237 27.1419 22.2647C27.2479 22.1077 27.3709 21.9647 27.5389 21.7667L27.5639 21.7377C28.0749 21.1377 28.2339 20.9417 28.3219 20.7577C28.435 20.5212 28.4937 20.2623 28.4937 20.0002C28.4937 19.738 28.435 19.4792 28.3219 19.2427C28.2339 19.0577 28.0749 18.8627 27.5639 18.2617L27.5389 18.2317C27.3709 18.0347 27.2479 17.8917 27.1429 17.7347C26.9028 17.376 26.7362 16.9732 26.6529 16.5497C26.6165 16.3406 26.5921 16.1296 26.5799 15.9177L26.5769 15.8797C26.5139 15.0927 26.4879 14.8437 26.4199 14.6497C26.2429 14.1497 25.8499 13.7557 25.3489 13.5797C25.1549 13.5097 24.9049 13.4847 24.1189 13.4217L24.0809 13.4187C23.8687 13.4068 23.6574 13.3827 23.4479 13.3467C23.0247 13.2632 22.6223 13.0967 22.2639 12.8567C22.1069 12.7507 21.9639 12.6277 21.7659 12.4597L21.7369 12.4347C21.1369 11.9237 20.9409 11.7647 20.7569 11.6767M24.0439 16.9587C24.114 17.0285 24.1696 17.1115 24.2075 17.2029C24.2454 17.2943 24.2649 17.3922 24.2649 17.4912C24.2649 17.5901 24.2454 17.6881 24.2075 17.7794C24.1696 17.8708 24.114 17.9538 24.0439 18.0237L19.0269 23.0407C18.8857 23.1816 18.6944 23.2608 18.4949 23.2608C18.2954 23.2608 18.1041 23.1816 17.9629 23.0407L15.9559 21.0337C15.8813 20.9649 15.8213 20.8818 15.7795 20.7893C15.7378 20.6967 15.7152 20.5967 15.7132 20.4953C15.7111 20.3938 15.7295 20.2929 15.7674 20.1988C15.8053 20.1046 15.8618 20.0191 15.9335 19.9473C16.0053 19.8755 16.0908 19.819 16.185 19.7811C16.2792 19.7433 16.38 19.7248 16.4815 19.7269C16.583 19.729 16.683 19.7516 16.7755 19.7933C16.868 19.835 16.9512 19.895 17.0199 19.9697L18.4949 21.4437L22.9799 16.9597C23.1211 16.8187 23.3124 16.7396 23.5119 16.7396C23.7114 16.7396 23.9027 16.8187 24.0439 16.9597" fill="white"/>
</svg>
