<svg width="40" height="40" viewBox="0 0 40 40" fill="none" xmlns="http://www.w3.org/2000/svg">
<circle cx="20" cy="20" r="20" fill="#AE8BD2"/>
<path d="M26.097 28.476L26.1014 28.4749C26.4675 28.3836 26.6516 28.3377 26.807 28.268L26.097 28.476ZM26.097 28.476C24.859 28.786 24.24 28.94 23.621 29.054L26.097 28.476ZM26.6053 27.8105L26.6053 27.8105C26.8317 27.7107 27.0299 27.5564 27.1822 27.3614C27.3344 27.1666 27.4361 26.9371 27.4782 26.6934L26.6053 27.8105ZM26.6053 27.8105L26.6023 27.8118M26.6053 27.8105L26.6023 27.8118M26.6023 27.8118C26.4968 27.8591 26.3647 27.894 25.976 27.9909L25.9755 27.991M26.6023 27.8118L25.9755 27.991M25.9755 27.991C24.7323 28.3023 24.1305 28.4518 23.5304 28.5623M25.9755 27.991L23.5304 28.5623M14.0247 27.9908L14.0252 27.9909L14.0386 27.9943C15.2723 28.3024 15.8715 28.4521 16.4683 28.5622L14.0247 27.9908ZM14.0247 27.9908C13.6385 27.8948 13.5022 27.8581 13.3953 27.8113C13.1687 27.7114 12.9703 27.557 12.8179 27.3618C12.6654 27.1666 12.5637 26.9366 12.5218 26.6924L12.5216 26.6915M14.0247 27.9908L12.5216 26.6915M12.5216 26.6915C12.5018 26.5773 12.5 26.4396 12.5 26.037V20C12.5 19.5144 12.5011 19.2006 12.5322 18.9694M12.5216 26.6915L12.5322 18.9694M12.5322 18.9694C12.5613 18.7527 12.6084 18.6847 12.6466 18.6466M12.5322 18.9694L12.6466 18.6466M12.6466 18.6466C12.6847 18.6084 12.7527 18.5613 12.9694 18.5322M12.6466 18.6466L12.9694 18.5322M12.9694 18.5322C13.2006 18.5011 13.5144 18.5 14 18.5M12.9694 18.5322L14 18.5M14 18.5H26M14 18.5H26M26 18.5C26.4856 18.5 26.7994 18.5011 27.0306 18.5322M26 18.5L27.0306 18.5322M27.0306 18.5322C27.2473 18.5613 27.3153 18.6084 27.3534 18.6466M27.0306 18.5322L27.3534 18.6466M27.3534 18.6466C27.3916 18.6847 27.4387 18.7527 27.4678 18.9694M27.3534 18.6466L27.4678 18.9694M27.4678 18.9694C27.4989 19.2006 27.5 19.5144 27.5 20M27.4678 18.9694L27.5 20M27.5 20V26.038M27.5 20V26.038M27.5 26.038C27.5 26.4365 27.4983 26.5763 27.4783 26.693L27.5 26.038ZM23.5304 28.5623C21.1963 28.9912 18.8036 28.9912 16.4685 28.5623L23.5304 28.5623Z" stroke="white"/>
<path d="M24.5 18V17C24.5 15.8065 24.0259 14.6619 23.182 13.818C22.3381 12.9741 21.1935 12.5 20 12.5C18.8065 12.5 17.6619 12.9741 16.818 13.818C15.9741 14.6619 15.5 15.8065 15.5 17V18" stroke="white"/>
<path d="M20 25C21.1046 25 22 24.1046 22 23C22 21.8954 21.1046 21 20 21C18.8954 21 18 21.8954 18 23C18 24.1046 18.8954 25 20 25Z" fill="white"/>
<path d="M20 24V26.5" stroke="white" stroke-linecap="round"/>
</svg>
