<svg width="20" height="20" viewBox="0 0 20 20" fill="none" xmlns="http://www.w3.org/2000/svg"><path d="M2.733 2.032a.95.95 0 0 0-.444.275c-.222.222-.275.366-.275.732 0 .266.013.337.075.469.06.125.697.781 3.242 3.329l3.17 3.172-3.158 3.158c-3.535 3.535-3.32 3.291-3.338 3.772-.013.241-.003.291.072.46.096.216.318.444.525.534.1.047.203.063.428.063.519 0 .225.256 3.807-3.323l3.164-3.163 3.166 3.163c3.579 3.58 3.285 3.323 3.804 3.323.225 0 .328-.016.428-.062.207-.091.429-.32.525-.535.076-.169.085-.219.072-.46-.018-.48.197-.237-3.338-3.772l-3.157-3.158 3.17-3.172c2.544-2.548 3.182-3.204 3.241-3.33.063-.13.075-.202.075-.468 0-.26-.012-.338-.069-.453a1.2 1.2 0 0 0-.51-.497c-.146-.07-.212-.082-.453-.082-.23 0-.309.016-.437.075-.125.06-.779.694-3.335 3.251L10 8.51 6.82 5.333C4.21 2.729 3.61 2.145 3.482 2.086c-.19-.088-.563-.113-.75-.054" fill="currentColor"/></svg>