<svg width="32" height="32" viewBox="0 0 32 32" fill="none" xmlns="http://www.w3.org/2000/svg">
<rect width="32" height="32" rx="4" fill="white"/>
<rect x="4" y="5" width="24" height="27" fill="#242424"/>
<path d="M3.5 0.121014C3.24375 0.189764 2.79375 0.364763 2.5 0.508512C2.06875 0.721014 1.85625 0.883512 1.375 1.37101C0.8875 1.85226 0.725 2.06476 0.5125 2.49601C0.36875 2.78976 0.19375 3.25226 0.125 3.52101C0 4.00851 0 4.25226 0 15.996C0 27.7398 0 27.9835 0.125 28.471C0.19375 28.7398 0.36875 29.2023 0.5125 29.496C0.725 29.9273 0.8875 30.1398 1.375 30.621C1.85625 31.1085 2.06875 31.271 2.5 31.4835C3.5625 32.0148 3.35 31.996 9.075 31.996H14.125V26.3398V20.6835H12.25H10.375V17.871V15.0585H12.2438H14.1125L14.1438 12.821C14.1813 10.396 14.2125 10.1023 14.5688 9.18351C15.0813 7.85226 16.3563 6.57726 17.6875 6.06476C18.675 5.68351 18.8 5.67101 22.2688 5.63976L25.4375 5.60851V8.42727V11.246H22.5938H19.75V13.1523V15.0585H22.5625C24.7688 15.0585 25.375 15.0773 25.375 15.1335C25.375 15.1773 25.175 16.446 24.925 17.946L24.4688 20.6835H22.1125H19.75V26.3398V31.996H23.8625C28.5312 31.996 28.4563 32.0023 29.5 31.4835C29.9312 31.271 30.1438 31.1085 30.625 30.621C31.1125 30.1398 31.275 29.9273 31.4875 29.496C31.6313 29.2023 31.8062 28.7398 31.875 28.471C32 27.9835 32 27.7398 32 15.996C32 4.25226 32 4.00851 31.875 3.52101C31.8062 3.25226 31.6313 2.78976 31.4875 2.49601C31.275 2.06476 31.1125 1.85226 30.625 1.37101C30.1438 0.883512 29.9312 0.721014 29.5 0.508512C29.2063 0.364763 28.7437 0.189764 28.475 0.121014C27.9875 -0.00398636 27.75 -0.00398636 15.975 0.00226402C4.325 0.00226402 3.95625 0.0085125 3.5 0.121014Z" fill="white"/>
</svg>
