<svg width="20" height="20" viewBox="0 0 20 20" fill="none" xmlns="http://www.w3.org/2000/svg"><path d="M.281 4.068A.5.5 0 0 0 0 4.545c0 .222.094.375.281.478.13.068.219.068 9.719.068s9.59 0 9.719-.068A.5.5 0 0 0 20 4.545a.5.5 0 0 0-.281-.477C19.589 4 19.5 4 10 4S.41 4 .281 4.068m0 5.455A.5.5 0 0 0 0 10c0 .222.094.375.281.477.13.068.219.068 9.719.068s9.59 0 9.719-.068A.5.5 0 0 0 20 10a.5.5 0 0 0-.281-.477c-.13-.069-.219-.069-9.719-.069s-9.59 0-9.719.069m0 5.454a.5.5 0 0 0-.281.477c0 .222.094.375.281.478C.411 16 .5 16 10 16s9.59 0 9.719-.068a.5.5 0 0 0 .281-.478.5.5 0 0 0-.281-.477c-.13-.068-.219-.068-9.719-.068s-9.59 0-9.719.068" fill="currentColor"/></svg>