<svg width="32" height="32" viewBox="0 0 32 32" fill="none" xmlns="http://www.w3.org/2000/svg"><rect width="32" height="32" rx="16" fill="#fff"/><path fill="#242424" d="M3.428 5.484h25.257v21.029H3.428z"/><path d="M6.952.106C3.53.681.67 3.566.108 7.002c-.144.893-.144 17.095 0 17.988.562 3.467 3.434 6.34 6.9 6.902.893.144 17.091.144 17.984 0 3.466-.562 6.338-3.435 6.9-6.902.144-.893.144-17.095 0-17.988-.562-3.467-3.434-6.34-6.9-6.902-.85-.137-17.216-.131-18.04.006M21.214 5.69c2.486.238 4.459 1.999 5.015 4.485.093.437.106.993.106 5.821 0 4.816-.013 5.39-.107 5.821-.505 2.255-2.154 3.904-4.408 4.41-.437.094-.993.106-5.82.106-4.815 0-5.389-.012-5.82-.106-2.254-.506-3.903-2.155-4.409-4.41-.093-.437-.106-.993-.106-5.82 0-5.885-.006-5.728.4-6.778.418-1.08 1.318-2.148 2.304-2.742.668-.4 1.586-.712 2.298-.78.818-.076 9.723-.082 10.547-.007" fill="#fff"/><path d="M10.224 7.622c-1.28.374-2.292 1.405-2.623 2.673-.143.55-.137 10.85.006 11.405.331 1.287 1.405 2.361 2.686 2.692.337.088 1.055.1 5.707.1 5.907 0 5.658.019 6.52-.418.599-.3 1.255-.956 1.554-1.556.437-.862.419-.612.419-6.52 0-5.91.018-5.66-.419-6.521-.3-.6-.955-1.256-1.555-1.556-.861-.437-.605-.418-6.556-.412-4.915 0-5.396.013-5.74.113m11.61 2.248a.88.88 0 0 1 .412.756.88.88 0 0 1-.413.756c-.38.25-.949.112-1.217-.294-.144-.218-.156-.65-.025-.893.206-.406.855-.575 1.242-.325m-4.784 1.605c.568.119 1.43.55 1.886.937 1.118.95 1.686 2.161 1.686 3.58 0 .793-.112 1.292-.43 1.967a4.58 4.58 0 0 1-2.161 2.192c-.706.344-1.262.475-2.03.475s-1.324-.131-2.03-.475a4.47 4.47 0 0 1-2.123-2.124c-.355-.724-.468-1.211-.468-2.03s.113-1.311.469-2.03a4.6 4.6 0 0 1 2.023-2.086c1.011-.524 1.998-.65 3.178-.406" fill="#fff"/><path d="M15.07 13.304a2.9 2.9 0 0 0-1.649 1.499c-.194.4-.2.443-.2 1.193 0 .762.006.793.213 1.218a3 3 0 0 0 1.348 1.349c.425.206.456.212 1.218.212s.793-.006 1.218-.212a3 3 0 0 0 1.349-1.35c.206-.424.212-.455.212-1.217s-.006-.793-.212-1.218a2.96 2.96 0 0 0-1.35-1.343c-.405-.2-.493-.219-1.123-.231-.562-.019-.75 0-1.024.1" fill="#fff"/></svg>