<svg width="22" height="22" viewBox="0 0 22 22" fill="none" xmlns="http://www.w3.org/2000/svg">
<path d="M2.29175 10.9998C2.29175 6.895 2.29175 4.84167 3.56683 3.56659C4.84191 2.2915 6.89433 2.2915 11.0001 2.2915C15.1049 2.2915 17.1582 2.2915 18.4333 3.56659C19.7084 4.84167 19.7084 6.89409 19.7084 10.9998C19.7084 15.1047 19.7084 17.158 18.4333 18.4331C17.1582 19.7082 15.1058 19.7082 11.0001 19.7082C6.89525 19.7082 4.84191 19.7082 3.56683 18.4331C2.29175 17.158 2.29175 15.1056 2.29175 10.9998Z" stroke="white" stroke-width="1.5" stroke-linecap="round" stroke-linejoin="round"/>
<path d="M16.049 5.95801H16.0398M15.125 10.9997C15.125 12.0937 14.6904 13.1429 13.9168 13.9165C13.1432 14.6901 12.094 15.1247 11 15.1247C9.90598 15.1247 8.85677 14.6901 8.08318 13.9165C7.3096 13.1429 6.875 12.0937 6.875 10.9997C6.875 9.90566 7.3096 8.85645 8.08318 8.08286C8.85677 7.30927 9.90598 6.87467 11 6.87467C12.094 6.87467 13.1432 7.30927 13.9168 8.08286C14.6904 8.85645 15.125 9.90566 15.125 10.9997Z" stroke="white" stroke-width="1.5" stroke-linecap="round" stroke-linejoin="round"/>
</svg>
