<svg width="32" height="32" viewBox="0 0 32 32" fill="none" xmlns="http://www.w3.org/2000/svg"><rect width="32" height="32" rx="16" fill="#fff"/><path fill="#242424" d="M0 4.229h32v23.543H0z"/><path d="M3.2.12C1.725.509.5 1.74.125 3.222 0 3.696 0 3.965 0 15.991c0 13.67-.03 12.64.438 13.602a4.24 4.24 0 0 0 1.969 1.969c.962.469-.07.438 13.593.438s12.631.03 13.594-.438a4.34 4.34 0 0 0 2.281-2.788C32 28.3 32 28.03 32 15.998s0-12.302-.125-12.777a4.37 4.37 0 0 0-3.1-3.1c-.475-.125-.737-.125-12.8-.119C4.063.002 3.645.008 3.2.121m6.394 6.045c1.244.388 2.075 1.7 1.863 2.938a2.78 2.78 0 0 1-2.263 2.275c-1.106.2-2.275-.425-2.8-1.494-.231-.462-.237-.493-.237-1.168 0-.663.006-.707.212-1.126.606-1.23 1.944-1.819 3.225-1.425M22 12.497c2.069.332 3.238 1.6 3.725 4.063.094.457.113 1.113.131 4.788l.025 4.25-.168.17-.17.168h-3.537l-.175-.15-.175-.15-.03-3.838c-.038-3.75-.038-3.838-.176-4.25-.375-1.113-1.137-1.625-2.275-1.532-.969.082-1.594.644-1.975 1.782l-.168.481L17 21.942c-.037 4.02-.012 3.8-.419 3.976-.25.1-2.924.118-3.28.018-.457-.13-.426.357-.426-6.638v-6.294l.15-.175.15-.175 1.644-.02c2.2-.024 2.181-.037 2.181 1.05l.006.657.194-.25c.525-.662 1.238-1.181 1.95-1.406.719-.232 2.025-.313 2.85-.188m-11.331.332.175.168.019 6.239c.012 6.094.012 6.238-.106 6.432-.188.306-.432.343-2.094.318-1.281-.018-1.469-.03-1.625-.13-.363-.238-.35-.007-.35-6.527 0-4.013.025-6.07.069-6.225a.6.6 0 0 1 .262-.363c.188-.112.3-.119 1.838-.106l1.643.019z" fill="#fff"/></svg>