<svg width="32" height="32" viewBox="0 0 32 32" fill="none" xmlns="http://www.w3.org/2000/svg"><path d="M15.148 3.614c-1.556.258-2.766.788-3.923 1.726-1.449 1.171-2.43 2.785-2.844 4.681-.097.452-.112.642-.107 1.629 0 1.05.01 1.152.136 1.701a8.7 8.7 0 0 0 1.235 2.858c.5.74 2.396 3.739 2.377 3.758a7 7 0 0 1-.622.136 16 16 0 0 0-2.003.496c-1.95.593-3.238 1.395-3.787 2.353-.228.403-.296.695-.272 1.21.014.413.039.51.19.831.36.754 1.01 1.328 2.11 1.872 1.637.807 3.908 1.332 6.61 1.531.875.063 3.17.063 4.016 0 4.219-.32 7.389-1.424 8.487-2.96.326-.447.452-.846.452-1.386 0-.666-.233-1.18-.782-1.73-.968-.968-2.796-1.736-5.29-2.217a7 7 0 0 1-.622-.136c-.01-.01.589-.967 1.328-2.124.743-1.162 1.453-2.31 1.58-2.547a8.2 8.2 0 0 0 .704-1.945c.127-.55.136-.651.136-1.701.005-.987-.01-1.177-.107-1.629-.738-3.388-3.315-5.853-6.679-6.387-.525-.088-1.871-.098-2.323-.02m2.172 1.522c2.635.428 4.774 2.498 5.348 5.177.107.515.121 2.09.02 2.552a8 8 0 0 1-.652 1.784c-.253.476-5.727 9.076-5.77 9.076-.015 0-1.094-1.687-2.407-3.748a1227 1227 0 0 0-2.81-4.404c-.962-1.483-1.297-2.499-1.297-3.972 0-2.294 1.157-4.36 3.135-5.605.608-.379 1.56-.734 2.31-.86.51-.088 1.589-.088 2.124 0m-2.975 18.419c.754 1.18 1.425 2.182 1.498 2.236.194.14.651.14.846 0 .073-.054.738-1.04 1.482-2.212.744-1.162 1.38-2.13 1.415-2.154.087-.058 1.405.16 2.3.384 1.647.404 2.906.997 3.509 1.648.37.399.403.715.121 1.08-.204.272-.282.345-.646.597-1.25.87-3.811 1.546-6.636 1.755-.875.064-3.062.064-3.937 0-3.53-.257-6.47-1.215-7.301-2.372-.263-.36-.22-.67.14-1.06.764-.826 2.519-1.521 4.876-1.934.374-.069.744-.117.827-.112.13.01.238.16 1.506 2.143" fill="currentColor"/><path d="M15.342 8.077c-.2.054-.55.19-.778.302-.335.165-.5.291-.875.67-.379.375-.505.54-.67.876a3.5 3.5 0 0 0-.4 1.7c0 .643.113 1.129.4 1.702.165.336.291.501.67.875.375.38.54.506.875.671.574.287 1.06.399 1.702.399s1.128-.112 1.701-.399c.335-.165.5-.291.875-.67.38-.375.506-.54.67-.876.288-.573.4-1.06.4-1.701 0-.642-.112-1.128-.4-1.701-.164-.336-.29-.501-.67-.875-.374-.38-.54-.506-.875-.671a5 5 0 0 0-.797-.302c-.515-.131-1.322-.126-1.828 0m1.716 1.551c.525.209.997.676 1.21 1.21.16.399.16 1.177 0 1.58-.213.53-.68.997-1.215 1.21-.398.161-1.176.161-1.575 0a2.25 2.25 0 0 1-1.21-1.21c-.15-.384-.18-1.03-.068-1.385.238-.715.666-1.172 1.346-1.43.409-.155 1.084-.145 1.512.025" fill="currentColor"/></svg>