<svg width="32" height="32" viewBox="0 0 32 32" fill="none" xmlns="http://www.w3.org/2000/svg"><path d="M5.029 7.486a2.26 2.26 0 0 0-1.381 1.4c-.087.258-.092.5-.092 7.253 0 6.79.005 6.99.092 7.258a2.22 2.22 0 0 0 1.405 1.4c.262.087.559.092 10.947.092s10.685-.005 10.947-.092a2.22 2.22 0 0 0 1.405-1.4c.088-.268.093-.467.093-7.258s-.005-6.99-.093-7.258a2.22 2.22 0 0 0-1.405-1.4c-.262-.087-.554-.092-10.966-.087-10.301 0-10.71.005-10.952.092m16.576 5.639c-4.074 4.054-4.307 4.278-4.642 4.443a2.13 2.13 0 0 1-1.264.214 2.3 2.3 0 0 1-.661-.214c-.336-.165-.57-.389-4.643-4.443L6.108 8.852h19.784zm-13.14.214 2.796 2.8-3.126 3.126-3.121 3.12V9.956l.33.291c.18.165 1.585 1.556 3.121 3.092m18.521 2.834v6.212l-3.12-3.125-3.126-3.121 3.091-3.087c1.702-1.696 3.107-3.087 3.121-3.087.02 0 .034 2.795.034 6.208m-14.146 1.55c1.201 1.211 1.945 1.585 3.16 1.585.656 0 1.118-.107 1.643-.37.433-.218.768-.485 1.454-1.16l.544-.536.477.443a257 257 0 0 1 3.125 3.091l2.65 2.655H6.107l3.091-3.087c1.702-1.697 3.116-3.087 3.14-3.087.02 0 .249.209.501.467" fill="currentColor"/></svg>