<svg width="32" height="32" viewBox="0 0 32 32" fill="none" xmlns="http://www.w3.org/2000/svg">
<rect width="32" height="32" rx="4" fill="white"/>
<rect x="4" y="6" width="24" height="20" fill="#242424"/>
<path d="M13.9674 0.0850697C11.0799 0.46007 8.43611 1.56632 6.12361 3.35382C5.39236 3.92257 4.14861 5.14757 3.54236 5.89757C1.81736 8.03507 0.673611 10.5601 0.186111 13.3101C0.0111111 14.2851 -0.0576389 16.6288 0.0548611 17.6976C0.323611 20.1913 1.19236 22.6351 2.54236 24.7101C3.15486 25.6476 3.69236 26.3163 4.52986 27.1726C7.14861 29.8601 10.4549 31.4851 14.2174 31.9226C15.0549 32.0226 17.0924 32.0038 17.9986 31.8976C22.6736 31.3163 26.8486 28.6976 29.4549 24.7101C30.7674 22.7038 31.6049 20.3976 31.9049 17.9913C32.0299 16.9788 32.0299 15.0101 31.9049 13.9913C31.3299 9.35382 28.7174 5.16632 24.7799 2.57882C22.7236 1.22882 20.4361 0.391321 17.9986 0.0850697C17.0486 -0.0274315 14.8674 -0.0274315 13.9674 0.0850697ZM14.2799 12.9663C15.5174 15.6663 16.5361 17.8538 16.5486 17.8226C16.5549 17.7976 17.4424 15.5913 18.5174 12.9288L20.4674 8.08507L23.2361 8.06632L25.9986 8.05382V8.23507C25.9986 8.39132 25.8611 8.54757 25.1236 9.24757L24.2486 10.0726V15.9913V21.9163L25.0924 22.7288C25.8174 23.4288 25.9361 23.5726 25.9361 23.7351V23.9288H22.0299H18.1236V23.7538C18.1236 23.6101 18.2799 23.4226 18.9986 22.7163L19.8736 21.8601L19.8674 17.2226V12.5851L19.0736 14.5851C18.6361 15.6851 17.6299 18.2226 16.8424 20.2226L15.4049 23.8663H15.0924H14.7799L12.1861 18.2101L9.59236 12.5538L9.57361 16.5101C9.56111 19.4101 9.57986 20.5101 9.62986 20.6351C9.67361 20.7351 10.2049 21.4226 10.8236 22.1663C11.6674 23.1976 11.9361 23.5663 11.9361 23.6913V23.8663H8.96736H5.99861V23.7038C5.99861 23.5913 6.31111 23.1663 7.12361 22.1788C7.74236 21.4288 8.27361 20.7413 8.31111 20.6476C8.39236 20.4351 8.39861 11.1851 8.31736 10.9726C8.28611 10.8913 7.80486 10.2788 7.25486 9.61632C6.47986 8.68507 6.24861 8.36632 6.24861 8.22882V8.05382H9.14236H12.0361L14.2799 12.9663Z" fill="white"/>
</svg>
