<svg width="32" height="32" viewBox="0 0 32 32" fill="none" xmlns="http://www.w3.org/2000/svg">
<rect x="0.000976562" width="32" height="32" rx="4" fill="white"/>
<rect x="4.00098" y="4" width="24" height="24" fill="#242424"/>
<path d="M3.20141 0.124569C1.72641 0.512068 0.501409 1.74332 0.126409 3.22457C0.00140909 3.69957 0.00140909 3.96832 0.00140909 15.9933C0.00140909 29.6621 -0.0298409 28.6308 0.438909 29.5933C0.851409 30.4496 1.55141 31.1496 2.40766 31.5621C3.37016 32.0308 2.33891 31.9996 16.0014 31.9996C29.6639 31.9996 28.6327 32.0308 29.5952 31.5621C30.7139 31.0183 31.5702 29.9746 31.8764 28.7746C32.0014 28.2996 32.0014 28.0308 32.0014 15.9996C32.0014 3.96832 32.0014 3.69957 31.8764 3.22457C31.4952 1.73082 30.2702 0.505819 28.7764 0.124569C28.3014 -0.000431061 28.0389 -0.000431061 15.9764 0.00581932C4.06391 0.00581932 3.64516 0.0120678 3.20141 0.124569ZM16.2577 6.15582C18.7639 6.56832 21.0577 8.27457 22.2702 10.6183C22.9764 11.9871 23.2764 13.1933 23.2764 14.7183C23.2702 17.0433 22.4514 19.0871 20.8327 20.8121L20.3014 21.3746L20.4077 21.5496C20.8952 22.3058 21.5889 22.9371 22.0827 23.0683C22.4202 23.1558 22.9327 23.1558 23.2077 23.0683C23.5264 22.9621 23.9014 22.5121 24.0139 22.1121L24.1077 21.7808L24.8389 21.7621L25.5702 21.7433L25.5389 21.8871C25.3452 22.8058 25.2764 23.0808 25.1264 23.4433C24.8827 24.0496 24.6702 24.3871 24.2514 24.8308C23.5514 25.5808 22.6702 25.9433 21.5327 25.9433C20.7952 25.9433 20.3327 25.8308 19.7577 25.5308C19.0202 25.1433 18.1889 24.3246 17.6202 23.4308C17.4327 23.1433 17.3139 23.0183 17.2514 23.0371C17.2014 23.0558 16.9077 23.1308 16.5952 23.2058C15.8952 23.3683 14.1139 23.3933 13.4077 23.2558C11.7389 22.9246 10.2514 22.1308 9.03266 20.9058C7.76391 19.6371 6.93266 18.0621 6.59516 16.2496C6.44516 15.4621 6.43891 13.9996 6.58891 13.1933C7.05141 10.6683 8.53891 8.49332 10.6889 7.19332C12.3202 6.21207 14.3202 5.83707 16.2577 6.15582Z" fill="white"/>
<path d="M13.9452 7.53007C12.3015 7.99257 10.8765 9.73007 10.264 12.0301C9.82022 13.6926 9.82647 15.8926 10.289 17.4863C10.7077 18.9301 11.2077 19.8301 12.0952 20.7238C12.6265 21.2613 12.8015 21.3926 13.2515 21.6113C13.5452 21.7488 13.9327 21.8926 14.114 21.9301C14.8015 22.0738 15.639 21.9926 16.2827 21.7176L16.5077 21.6301L16.4015 21.4238C16.1515 20.9301 15.6015 20.0551 15.3265 19.7113C14.7452 18.9863 14.1702 18.7676 13.0077 18.8238L12.4265 18.8488L12.1827 18.3676L11.939 17.8801L12.3827 17.6176C13.8515 16.7426 15.8952 16.6363 17.1702 17.3738C17.564 17.5988 18.2015 18.1863 18.564 18.6551C18.7077 18.8426 18.8452 18.9988 18.8702 18.9988C18.939 18.9988 19.3827 17.8176 19.5327 17.2238C19.764 16.3238 19.8327 15.5488 19.7952 14.3863C19.7515 12.8738 19.5015 11.7426 18.964 10.5676C18.489 9.53007 17.6015 8.45507 16.8515 8.00507C16.1515 7.58632 15.789 7.48007 15.0015 7.45507C14.4952 7.44257 14.1827 7.46757 13.9452 7.53007Z" fill="white"/>
</svg>
