<?xml version="1.0" standalone="no"?>
<!DOCTYPE svg PUBLIC "-//W3C//DTD SVG 20010904//EN"
 "http://www.w3.org/TR/2001/REC-SVG-20010904/DTD/svg10.dtd">
<svg version="1.0" xmlns="http://www.w3.org/2000/svg"
 width="160.000000pt" height="160.000000pt" viewBox="0 0 160.000000 160.000000"
 preserveAspectRatio="xMidYMid meet">
<metadata>
Created by potrace 1.14, written by Peter Selinger 2001-2017
</metadata>
<g transform="translate(0.000000,160.000000) scale(0.100000,-0.100000)"
fill="#000000" stroke="none">
<path d="M221 1584 c-85 -30 -152 -90 -193 -172 l-23 -47 0 -565 0 -565 24
-49 c30 -61 97 -127 159 -157 l47 -24 565 0 565 0 48 24 c66 33 120 86 154
151 l28 55 0 565 0 565 -25 50 c-31 61 -97 126 -159 157 l-46 23 -550 2 c-476
2 -556 0 -594 -13z"/>
</g>
</svg>
