<svg width="32" height="32" viewBox="0 0 32 32" fill="none" xmlns="http://www.w3.org/2000/svg">
<rect y="0.000244141" width="32" height="32" rx="4" fill="#242424"/>
<path d="M2.50676 0.0975342C1.38801 0.397533 0.388014 1.40378 0.0942636 2.52878C0.0130136 2.85378 0.000513642 4.43503 0.000513642 15.9975C0.000513642 30.4475 -0.0307364 29.4163 0.394264 30.21C0.650514 30.6975 1.30051 31.3475 1.78801 31.6038C2.58176 32.0288 1.55051 31.9975 16.0005 31.9975C30.4505 31.9975 29.4193 32.0288 30.213 31.6038C30.7005 31.3475 31.3505 30.6975 31.6068 30.21C32.0318 29.4163 32.0005 30.4475 32.0005 15.9975C32.0005 1.54753 32.0318 2.57878 31.6068 1.78503C31.3505 1.29753 30.7005 0.647533 30.213 0.391283C29.4193 -0.0337181 30.4568 -0.00246811 15.9693 0.00378418C4.71301 0.00378418 2.79426 0.016283 2.50676 0.0975342ZM14.3693 8.96003C15.9068 11.1913 17.188 13.0288 17.2193 13.035C17.2568 13.0413 18.8568 11.21 20.7818 8.96628L24.2818 4.87878H25.1755C25.6693 4.87253 26.063 4.89753 26.0505 4.92253C26.0443 4.95378 24.2443 7.05378 22.063 9.59128C19.8818 12.1288 18.0943 14.2475 18.1005 14.3038C18.1005 14.36 20.063 17.2538 22.4568 20.735C24.8505 24.2225 26.813 27.085 26.813 27.0975C26.813 27.11 25.3818 27.1225 23.6318 27.1225H20.4505L17.5443 22.885C15.9443 20.56 14.5943 18.6038 14.5443 18.535C14.4693 18.4288 14.1568 18.7725 10.7193 22.7725L6.97551 27.1225H6.07551C5.23801 27.1225 5.18176 27.1163 5.25676 27.0163C5.30676 26.96 7.19426 24.76 9.46301 22.1288C11.7255 19.4975 13.588 17.31 13.6068 17.2725C13.6193 17.2288 11.7505 14.46 9.45676 11.1163C7.15676 7.76628 5.25051 4.99128 5.22551 4.94753C5.18801 4.88503 5.81926 4.87253 8.38176 4.88503L11.5818 4.90378L14.3693 8.96003Z" fill="white"/>
<path d="M7.68799 6.29099C7.69424 6.32224 10.7505 10.716 14.488 16.0597L21.288 25.7785L22.8005 25.7972C23.6317 25.8035 24.313 25.791 24.3067 25.766C24.3067 25.7347 21.2442 21.341 17.5067 15.9972L10.7067 6.27848L9.20049 6.25974C8.36924 6.25348 7.68799 6.26599 7.68799 6.29099Z" fill="white"/>
</svg>
