<svg width="80" height="80" viewBox="0 0 80 80" fill="none" xmlns="http://www.w3.org/2000/svg"><circle cx="40" cy="40" r="40" fill="#242424"/><mask id="a" style="mask-type:luminance" maskUnits="userSpaceOnUse" x="21" y="23" width="23" height="34"><path d="M21.667 23.437h21.576v33.23H21.667z" fill="#fff"/></mask><g mask="url(#a)"><path d="m30.196 25.002 11.527 11.526a5 5 0 0 1 1.248 2.083 5 5 0 0 1 .216 1.45 5 5 0 0 1-.216 1.45 5 5 0 0 1-1.248 2.084L30.196 55.12c-3.148 3.148-8.531.917-8.529-3.537V28.53c-.002-4.446 5.381-6.677 8.53-3.53" fill="#fff"/></g><mask id="b" style="mask-type:luminance" maskUnits="userSpaceOnUse" x="21" y="23" width="23" height="26"><path d="M21.667 23.437h21.576v24.982H21.667z" fill="#fff"/></mask><g mask="url(#b)"><path d="M30.196 25.002c-3.13-3.13-8.452-.943-8.527 3.455 0 0 18.138 17.161 15.253 19.958l4.81-4.81a5 5 0 0 0 .874-1.177 5 5 0 0 0 .494-1.381 5 5 0 0 0 0-1.95 5 5 0 0 0-.284-.938 5 5 0 0 0-1.083-1.62z" fill="#fff"/></g><mask id="c" style="mask-type:luminance" maskUnits="userSpaceOnUse" x="50" y="23" width="8" height="8"><path d="M50.893 23.333h6.634v6.678h-6.634z" fill="#fff"/></mask><g mask="url(#c)" fill="#fff"><path d="M57.527 26.636a3.2 3.2 0 0 1-.14.948 3.4 3.4 0 0 1-.246.591 3 3 0 0 1-.355.533 3.2 3.2 0 0 1-.71.643 3.4 3.4 0 0 1-.565.302 3.3 3.3 0 0 1-1.57.233 3 3 0 0 1-.628-.125 3.3 3.3 0 0 1-1.123-.6 3.27 3.27 0 0 1-1.195-2.525 3.3 3.3 0 0 1 .141-.948 3 3 0 0 1 .245-.592 3.25 3.25 0 0 1 1.066-1.175 3.26 3.26 0 0 1 3.064-.302 3.2 3.2 0 0 1 .822.493 3.2 3.2 0 0 1 .643.71 3 3 0 0 1 .303.564 3.4 3.4 0 0 1 .185.613 3.3 3.3 0 0 1 .063.637"/><path d="M57.527 26.636a3.2 3.2 0 0 1-.14.948 3.4 3.4 0 0 1-.246.591 3 3 0 0 1-.355.533 3.2 3.2 0 0 1-.71.643 3.4 3.4 0 0 1-.565.302 3.3 3.3 0 0 1-1.57.233 3 3 0 0 1-.628-.125 3.3 3.3 0 0 1-1.123-.6 3.27 3.27 0 0 1-1.195-2.525 3.3 3.3 0 0 1 .141-.948 3 3 0 0 1 .245-.592 3.25 3.25 0 0 1 1.066-1.175 3.26 3.26 0 0 1 3.064-.302 3.2 3.2 0 0 1 .822.493 3.2 3.2 0 0 1 .643.71 3 3 0 0 1 .303.564 3.4 3.4 0 0 1 .185.613 3.3 3.3 0 0 1 .063.637"/></g><mask id="d" style="mask-type:luminance" maskUnits="userSpaceOnUse" x="35" y="23" width="23" height="34"><path d="M35.354 23.795h22.173v32.632H35.353z" fill="#fff"/></mask><g mask="url(#d)"><path d="M56.061 36.557 44.535 25.03c-3.094-3.096-11.342.495-8.52 3.317l8.29 8.292a5 5 0 0 1 .621.757 5 5 0 0 1 .462.863 5 5 0 0 1 .357 1.422 5 5 0 0 1-.072 1.465 4.9 4.9 0 0 1-.494 1.38 5 5 0 0 1-.874 1.177L36.02 51.99c-2.526 2.523 5.45 6.245 8.514 3.182L56.06 43.643a5 5 0 0 0 1.257-2.088 5 5 0 0 0 .193-.964 5 5 0 0 0 0-.983 5 5 0 0 0-1.118-2.688 5 5 0 0 0-.332-.364" fill="#fff"/></g><mask id="e" style="mask-type:luminance" maskUnits="userSpaceOnUse" x="35" y="23" width="23" height="26"><path d="M35.354 23.795h22.173v24.504H35.353z" fill="#fff"/></mask><g mask="url(#e)"><path d="M56.061 36.557 44.535 25.03c-3.094-3.096-11.342.495-8.52 3.317l8.29 8.292a4.97 4.97 0 0 1 1.429 2.971c2.856 3.353 5.23 6.609 5.724 8.637l4.611-4.61a5 5 0 0 0 .623-.76 5 5 0 0 0 .629-1.328 5 5 0 0 0 .214-1.454 5 5 0 0 0-.097-.977 5 5 0 0 0-.287-.939 5 5 0 0 0-1.09-1.622" fill="#fff"/></g></svg>