<svg width="32" height="32" viewBox="0 0 32 32" fill="none" xmlns="http://www.w3.org/2000/svg">
<rect width="32" height="32" rx="4" fill="white"/>
<rect x="4" y="6" width="24" height="20" fill="#242424"/>
<path d="M6.42776 0.140991C4.50901 0.547241 2.85276 1.56599 1.71526 3.04099C0.890258 4.10974 0.521508 4.85974 0.165258 6.19724L0.0215077 6.72849L0.0090077 15.8035C-0.0097423 24.7972 -0.0097423 24.891 0.115258 25.5222C0.452758 27.1847 1.15276 28.4847 2.33401 29.666C3.51526 30.8472 4.81526 31.5472 6.47776 31.8847C7.10901 32.0097 7.20276 32.0097 16.1965 31.991L25.2715 31.9785L25.8028 31.8347C26.859 31.5535 27.5903 31.2347 28.3653 30.7222C29.8465 29.741 30.9965 28.2785 31.5528 26.666C31.9903 25.4097 31.959 26.1597 31.959 16.0097C31.959 5.85974 31.9903 6.60974 31.5528 5.35349C30.9965 3.74099 29.8465 2.27849 28.3653 1.29724C27.5903 0.78474 26.859 0.46599 25.8028 0.18474L25.2715 0.0409908L16.1465 0.0284901C7.23401 0.0159912 7.00901 0.0222416 6.42776 0.140991ZM21.959 8.85349C23.4653 8.95349 23.7215 8.99724 24.1903 9.23474C24.959 9.62849 25.384 10.2535 25.609 11.3535C25.9715 13.1222 25.9528 19.2722 25.5778 20.7597C25.2465 22.0847 24.6965 22.7097 23.6278 22.9785C22.7215 23.2097 17.2965 23.366 13.584 23.266C9.20901 23.1472 8.37776 23.066 7.67776 22.691C6.99026 22.3222 6.59651 21.7097 6.37151 20.6597C6.13401 19.5472 6.04026 15.791 6.18401 13.1347C6.31526 10.7597 6.72776 9.77849 7.82151 9.21599C8.36526 8.94099 9.11526 8.86599 12.6153 8.73474C14.0028 8.67849 20.6778 8.76599 21.959 8.85349Z" fill="white"/>
<path d="M13.9277 15.7535C13.9277 17.3723 13.9465 18.6973 13.9777 18.6973C14.0277 18.6973 19.2527 15.8973 19.3152 15.8348C19.3402 15.8098 18.259 15.1848 16.909 14.4473C15.5652 13.7098 14.3402 13.041 14.1965 12.9598L13.9277 12.8098V15.7535Z" fill="white"/>
</svg>
