<svg width="44" height="43" viewBox="0 0 44 43" fill="none" xmlns="http://www.w3.org/2000/svg">
<path d="M38.7074 22.8481L37.8824 10.466L32.1762 13.9549C29.3574 13.476 28.6012 13.476 26.4012 12.3815C25.0949 11.7658 23.4449 12.1762 22.6199 12.6551C21.3824 11.3553 13.3387 13.2708 12.4449 13.6812C10.0387 12.9972 6.46367 10.1924 6.46367 10.1924L5.29492 24.2162L6.87617 24.6267C7.01367 25.1056 7.42617 26.2685 7.42617 26.2685C5.91367 28.184 7.70117 30.4415 9.41992 29.689C8.66367 31.6044 10.6574 33.3831 12.2387 32.1517C12.0324 33.9303 13.8887 35.2301 15.2637 33.9987C14.6449 36.1194 17.0512 37.6928 18.4949 35.9826C19.5262 36.6667 20.4887 37.214 21.3137 37.4876C22.7574 38.1033 24.3387 36.7351 24.0637 35.0249C25.7137 36.9403 28.1887 35.0933 27.6387 32.9726C29.4949 34.4092 31.7637 32.0149 30.5949 29.8942C32.6574 31.0572 34.4449 27.9103 32.4512 25.8581L38.7074 22.8481Z" fill="#FFE1BD"/>
<path d="M9.55742 24.8321C10.5887 25.3109 11.2762 26.8844 10.1762 28.2525L9.69492 28.7998C9.14492 29.4839 8.59492 29.6891 8.04492 29.6891C8.45742 29.8944 8.93867 29.8944 9.41992 29.6891C9.48867 29.4839 9.62617 29.2103 9.83242 29.005L10.3137 28.4578C10.5887 28.1157 10.9324 27.8421 11.2074 27.7053C11.7574 26.2687 10.7949 24.9005 9.55742 24.8321ZM17.4637 31.6046C18.5637 31.8782 19.3887 33.3148 18.5637 34.8882L18.1512 35.5039C17.7387 36.2564 17.1887 36.5984 16.6387 36.6669C17.3949 36.8721 18.2199 36.5984 18.7699 35.5723L19.1824 34.9566C20.1449 33.0412 18.8387 31.4678 17.4637 31.6046ZM12.5824 31.0573L13.6824 29.3471C13.6137 28.3894 12.7887 27.5684 11.9637 27.5C12.9949 27.9789 13.6824 29.5523 12.5824 30.9205L12.1012 31.4678C11.5512 32.1519 11.0012 32.3571 10.3824 32.3571C10.9324 32.6307 11.5512 32.5623 12.1699 32.1519C12.2387 31.8098 12.3762 31.3994 12.5824 31.0573ZM15.5387 27.9789C16.6387 28.3209 17.3949 29.8259 16.4324 31.3309L15.1262 33.3832C14.6449 34.1357 14.0949 34.4094 13.5449 34.4094C14.2324 34.6146 15.1262 34.4094 15.7449 33.4516L17.0512 31.3994C18.1512 29.6207 16.9137 27.9105 15.5387 27.9789ZM24.6824 29.6891C24.7512 29.6891 25.5762 29.5523 25.8512 29.5523C24.8199 28.5262 23.1699 29.3471 22.2074 28.7998C22.8949 29.9628 24.3387 29.6891 24.4762 29.6891L26.1262 31.8098C27.5012 33.52 26.4012 35.5039 24.9574 35.7091C26.4699 36.188 27.9824 34.6146 27.5012 32.9044C27.4324 32.8359 24.6824 29.6891 24.6824 29.6891ZM26.3324 25.7214C26.3324 25.7214 27.3637 25.5162 28.2574 25.5162C27.2262 24.6953 25.6449 25.4478 24.6137 24.7637C25.0262 25.653 25.9199 25.653 26.1949 25.653L29.3574 29.2787C30.8012 30.9205 29.7699 32.9044 28.3262 33.2464C29.9762 33.7253 31.5574 31.6046 30.5262 29.7575C29.8387 29.5523 26.3324 25.7214 26.3324 25.7214Z" fill="#E6B796"/>
<path d="M24.1312 33.5891C23.1 32.7682 21.6562 33.3838 21.0375 32.9734C21.3813 33.9311 22.6875 33.7259 22.7562 33.7259C23.925 35.5045 22.6875 37.3516 21.2437 37.4884C22.6875 38.1041 24.2688 36.7359 23.9938 35.0257C23.925 34.9573 22.9625 33.7259 22.9625 33.7259C23.1 33.6575 23.8562 33.5891 24.1312 33.5891ZM37.95 21.6859C37.95 21.6859 36.7813 24.0802 32.2438 25.38C31.625 24.6275 30.3188 23.1225 28.8063 21.8227C29.7688 21.6175 30.25 20.865 31.0062 20.7282C30.7312 20.4545 29.7688 20.5913 29.0125 20.865C27.6375 21.3438 24.475 19.1548 24.475 19.1548L21.8625 19.4968C20.0062 21.2754 16.0187 22.2332 15.8125 19.4968C15.675 17.5813 19.8687 16.2816 21.175 15.0502C22.825 13.4768 24.2688 11.4929 26.95 12.8611C29.15 13.9557 30.0437 13.8873 33.0687 14.4345C34.1 14.6398 34.7875 15.1186 35.5438 16.1448C34.925 14.7082 34.0313 14.0925 32.9313 13.8873L37.7438 11.6298L37.8125 10.4668L32.1063 13.682C29.4937 13.2716 28.5313 13.2716 26.4 12.2454C25.025 11.5613 23.925 11.7666 23.0312 12.3138C21.3813 11.3561 20.4187 11.5613 19.8 11.6982C17.875 12.3138 14.7812 12.3823 12.0312 13.4768C12.5125 13.6136 12.9937 13.7504 13.3375 13.7504C16.0187 12.9295 18.8375 12.9979 20.1437 12.5191C20.5562 12.3823 21.3813 12.3823 22.275 12.8611C21.725 13.34 21.2438 13.8873 20.6938 14.4345C19.3875 15.6659 15.4 17.4445 15.675 19.702C15.8125 20.7966 17.325 23.6698 22.3438 20.4545L24.475 20.1809C24.475 20.1809 28.3937 22.0279 32.0375 26.2693C33.4812 27.9111 32.5875 29.6898 31.1437 30.1002C33 30.4423 34.5813 27.8427 32.7938 26.0641L37.125 23.7382L37.95 21.6859Z" fill="#E6B796"/>
<path d="M36.7116 11.1504L38.9803 22.8483L37.1241 23.6693C36.1616 21.1381 34.7178 15.0497 35.0616 12.1081L36.7116 11.1504Z" fill="#7C7C7C"/>
<path d="M7.63086 25.9954C7.28711 25.1745 7.08086 24.0799 7.08086 24.0799L5.36211 22.917L5.22461 24.2168L6.73711 24.6272C6.94336 25.3113 7.14961 25.8586 7.42461 26.269L7.63086 25.9954Z" fill="#E6B796"/>
<path d="M4.19336 24.0112L7.90586 11.2188L9.62461 12.3817C9.89961 14.2972 6.73711 23.0535 5.56836 24.3533L4.19336 24.0112Z" fill="#7C7C7C"/>
<path d="M36.6437 11.0827C36.0938 11.4247 38.0875 23.2595 38.9125 22.9175C41.525 21.7545 42.6937 21.4125 42.6937 21.4125V7.32018C42.625 7.32018 41.0438 8.48314 36.6437 11.0827ZM1.375 6.15723V23.6015C1.375 23.6015 2.6125 23.8068 4.19375 24.1488C5.0875 24.354 8.31875 11.4931 8.1125 11.2879C5.775 9.7145 1.375 6.15723 1.375 6.15723Z" fill="#171717"/>
</svg>
