<svg width="113" height="39" viewBox="0 0 113 39" fill="none" xmlns="http://www.w3.org/2000/svg">
<g clip-path="url(#clip0_352_257)">
<mask id="mask0_352_257" style="mask-type:luminance" maskUnits="userSpaceOnUse" x="0" y="0" width="112" height="39">
<path d="M111.507 0.88855H0.400391V38.0279H111.507V0.88855Z" fill="white"/>
</mask>
<g mask="url(#mask0_352_257)">
<path d="M102.659 0.888548H9.25317C8.9127 0.888548 8.57631 0.888548 8.23673 0.890405C7.95249 0.892262 7.6705 0.897656 7.38351 0.902196C6.76004 0.909533 6.13805 0.964383 5.52292 1.06627C4.90866 1.17037 4.31364 1.36663 3.75799 1.64843C3.20301 1.9326 2.69592 2.30185 2.2551 2.7428C1.81196 3.18249 1.44258 3.69072 1.16114 4.24795C0.878931 4.80406 0.683244 5.39998 0.580841 6.01514C0.477464 6.62952 0.421837 7.251 0.414456 7.87397C0.405841 8.15864 0.404931 8.44426 0.400391 8.72896V30.1901C0.404931 30.4785 0.405841 30.7578 0.414456 31.0461C0.421839 31.669 0.477467 32.2905 0.580841 32.9049C0.682961 33.5203 0.878659 34.1167 1.16114 34.673C1.44245 35.2284 1.81189 35.7345 2.2551 36.1718C2.69425 36.6147 3.20167 36.9842 3.75799 37.2662C4.31364 37.5488 4.90859 37.7462 5.52292 37.8519C6.13815 37.953 6.76008 38.0079 7.38351 38.016C7.6705 38.0223 7.95249 38.026 8.23673 38.026C8.5763 38.0278 8.91272 38.0278 9.25317 38.0278H102.659C102.993 38.0278 103.332 38.0278 103.666 38.026C103.948 38.026 104.238 38.0223 104.521 38.016C105.143 38.0083 105.764 37.9534 106.378 37.8519C106.994 37.7455 107.592 37.5481 108.149 37.2662C108.705 36.984 109.212 36.6145 109.651 36.1718C110.093 35.7328 110.464 35.2271 110.749 34.673C111.029 34.1163 111.222 33.52 111.323 32.9049C111.427 32.2904 111.484 31.6691 111.495 31.0461C111.499 30.7578 111.499 30.4785 111.499 30.1901C111.506 29.8528 111.506 29.5173 111.506 29.1745V9.74267C111.506 9.40266 111.506 9.06535 111.499 8.72896C111.499 8.44426 111.499 8.15864 111.495 7.87392C111.484 7.2509 111.427 6.62957 111.323 6.0151C111.222 5.40031 111.029 4.80442 110.749 4.24791C110.176 3.13102 109.266 2.22188 108.149 1.64835C107.592 1.36724 106.994 1.17103 106.378 1.06618C105.764 0.963851 105.143 0.908981 104.521 0.902067C104.238 0.897536 103.948 0.892095 103.666 0.890284C103.332 0.888428 102.993 0.888548 102.659 0.888548Z" fill="#171717"/>
<path d="M8.24125 37.2157C7.95835 37.2157 7.6823 37.212 7.40162 37.2057C6.82019 37.1982 6.24012 37.1474 5.66616 37.0543C5.13098 36.962 4.61252 36.7906 4.12791 36.5455C3.64774 36.3025 3.20977 35.9838 2.83082 35.6017C2.44637 35.224 2.1263 34.786 1.88329 34.3051C1.63761 33.8209 1.46757 33.302 1.37913 32.7663C1.2836 32.1908 1.23193 31.6088 1.22453 31.0255C1.22097 30.9068 1.21673 30.621 1.21395 30.4139C1.21183 30.2563 1.21094 30.0988 1.21094 29.9412V8.98483C1.21094 8.81439 1.21198 8.64407 1.21442 8.47366C1.2173 8.27257 1.22141 8.00855 1.22458 7.89861C1.23166 7.31615 1.28304 6.73509 1.37827 6.16042C1.46688 5.62331 1.63705 5.1029 1.88286 4.6172C2.12498 4.13653 2.44327 3.69821 2.8254 3.31922C3.20711 2.93664 3.64646 2.61629 4.12745 2.36988C4.61095 2.12557 5.12842 1.95532 5.66253 1.86484C6.23838 1.77066 6.82046 1.71974 7.40391 1.7125L8.24169 1.70117H103.66L104.508 1.71296C105.087 1.71983 105.663 1.77029 106.234 1.86392C106.773 1.95555 107.296 2.12699 107.785 2.3726C108.749 2.86919 109.533 3.65485 110.028 4.61946C110.269 5.10181 110.437 5.61798 110.525 6.15045C110.62 6.72982 110.674 7.31547 110.686 7.90269C110.689 8.16564 110.689 8.44809 110.689 8.72917C110.696 9.07735 110.696 9.40876 110.696 9.74288V29.1748C110.696 29.5121 110.696 29.8413 110.689 30.1731C110.689 30.4751 110.689 30.7516 110.685 31.0363C110.674 31.6131 110.62 32.1882 110.526 32.7573C110.439 33.2968 110.27 33.8197 110.025 34.3078C109.781 34.7836 109.462 35.2177 109.082 35.5944C108.702 35.9786 108.263 36.2991 107.783 36.5438C107.295 36.7908 106.773 36.9629 106.234 37.0543C105.66 37.148 105.08 37.1987 104.498 37.2057C104.226 37.212 103.941 37.2157 103.665 37.2157L102.659 37.2175L8.24125 37.2157Z" fill="white"/>
<path d="M23.6095 19.3563C23.6198 18.5504 23.8339 17.7602 24.2317 17.0593C24.6296 16.3584 25.1982 15.7695 25.8847 15.3474C25.4486 14.7245 24.8732 14.2119 24.2043 13.8502C23.5353 13.4886 22.7913 13.2879 22.0312 13.2642C20.4098 13.0939 18.8381 14.2344 18.0118 14.2344C17.1696 14.2344 15.8975 13.2811 14.5277 13.3092C13.6417 13.3379 12.7781 13.5955 12.0213 14.0571C11.2644 14.5186 10.6401 15.1684 10.209 15.943C8.34169 19.176 9.73452 23.9274 11.5232 26.5407C12.4182 27.8203 13.4641 29.2498 14.8327 29.1991C16.1719 29.1435 16.6721 28.3451 18.2887 28.3451C19.8903 28.3451 20.3596 29.1991 21.7559 29.1669C23.193 29.1435 24.0984 27.8815 24.962 26.5898C25.6049 25.6779 26.0998 24.6702 26.428 23.6039C25.5931 23.2508 24.8806 22.6596 24.3794 21.9043C23.8783 21.149 23.6104 20.2629 23.6095 19.3563Z" fill="#171717"/>
<path d="M20.9726 11.5459C21.7561 10.6052 22.1421 9.39619 22.0487 8.17554C20.8516 8.30127 19.7458 8.8734 18.9516 9.77793C18.5634 10.2198 18.266 10.7339 18.0765 11.2908C17.887 11.8476 17.8091 12.4364 17.8473 13.0234C18.4461 13.0296 19.0385 12.8998 19.5798 12.6438C20.1212 12.388 20.5974 12.0125 20.9726 11.5459Z" fill="#171717"/>
<path d="M39.677 26.087H35.2822L34.2267 29.2034H32.3652L36.5281 17.6736H38.4621L42.6248 29.2034H40.7315L39.677 26.087ZM35.7374 24.649H39.221L37.5037 19.5913H37.4556L35.7374 24.649Z" fill="#171717"/>
<path d="M51.6137 25.0008C51.6137 27.6131 50.2156 29.2915 48.1057 29.2915C47.5711 29.3195 47.0396 29.1963 46.5718 28.9362C46.1041 28.6761 45.719 28.2895 45.4607 27.8207H45.4208V31.9844H43.6953V20.7973H45.3655V22.1955H45.3973C45.6674 21.7289 46.059 21.3443 46.5303 21.0827C47.0016 20.821 47.535 20.692 48.0739 20.7093C50.2075 20.7093 51.6137 22.3959 51.6137 25.0008ZM49.8402 25.0008C49.8402 23.299 48.9606 22.18 47.6187 22.18C46.3004 22.18 45.4136 23.3225 45.4136 25.0008C45.4136 26.6946 46.3004 27.829 47.6187 27.829C48.9606 27.829 49.8402 26.7182 49.8402 25.0008Z" fill="#171717"/>
<path d="M60.8681 25.0008C60.8681 27.6131 59.4695 29.2915 57.3596 29.2915C56.8251 29.3195 56.2936 29.1963 55.8258 28.9362C55.358 28.6761 54.9729 28.2895 54.7147 27.8207H54.6748V31.9844H52.9492V20.7973H54.6194V22.1955H54.6512C54.9213 21.7289 55.3129 21.3443 55.7842 21.0827C56.2556 20.821 56.789 20.692 57.3278 20.7093C59.4614 20.7093 60.8681 22.3959 60.8681 25.0008ZM59.0941 25.0008C59.0941 23.299 58.2146 22.18 56.8727 22.18C55.5543 22.18 54.6676 23.3225 54.6676 25.0008C54.6676 26.6946 55.5543 27.829 56.8727 27.829C58.2146 27.829 59.0941 26.7182 59.0941 25.0008Z" fill="#171717"/>
<path d="M66.9811 25.9918C67.109 27.1352 68.2197 27.8859 69.7376 27.8859C71.192 27.8859 72.2383 27.1352 72.2383 26.1042C72.2383 25.2093 71.6072 24.6734 70.113 24.3062L68.6188 23.9463C66.5015 23.4348 65.5187 22.4447 65.5187 20.838C65.5187 18.8486 67.2523 17.4822 69.7132 17.4822C72.1504 17.4822 73.8206 18.8486 73.8768 20.838H72.135C72.0307 19.6874 71.0795 18.9928 69.6895 18.9928C68.2996 18.9928 67.3484 19.6956 67.3484 20.7183C67.3484 21.5334 67.9559 22.0131 69.442 22.3803L70.7123 22.6922C73.078 23.2517 74.06 24.2019 74.06 25.8884C74.06 28.0455 72.3426 29.3965 69.6097 29.3965C67.0527 29.3965 65.3263 28.0772 65.2148 25.9917L66.9811 25.9918Z" fill="#171717"/>
<path d="M77.786 18.8093V20.7987H79.3845V22.1652H77.786V26.7994C77.786 27.5194 78.106 27.8548 78.8087 27.8548C78.9985 27.8515 79.188 27.8381 79.3764 27.8148V29.1732C79.0604 29.2322 78.7393 29.2589 78.418 29.253C76.716 29.253 76.0523 28.6137 76.0523 26.9834V22.1652H74.8301V20.7987H76.0523V18.8093H77.786Z" fill="#171717"/>
<path d="M80.3086 25.002C80.3086 22.3571 81.8663 20.6951 84.2954 20.6951C86.7327 20.6951 88.2832 22.3571 88.2832 25.002C88.2832 27.6542 86.7408 29.3089 84.2954 29.3089C81.8509 29.3089 80.3086 27.6542 80.3086 25.002ZM86.5251 25.002C86.5251 23.1876 85.6935 22.1168 84.2954 22.1168C82.8973 22.1168 82.0658 23.1959 82.0658 25.002C82.0658 26.8236 82.8973 27.8863 84.2954 27.8863C85.6935 27.8863 86.5251 26.8236 86.5251 25.002Z" fill="#171717"/>
<path d="M89.707 20.7971H91.3528V22.2279H91.3927C91.504 21.781 91.7658 21.3862 92.134 21.1096C92.5022 20.833 92.9544 20.6916 93.4147 20.7092C93.6135 20.7085 93.8117 20.7301 94.0058 20.7736V22.3876C93.7548 22.3108 93.493 22.2756 93.2306 22.2833C92.9799 22.2731 92.7299 22.3173 92.498 22.4128C92.266 22.5083 92.0574 22.6529 91.8866 22.8367C91.7159 23.0204 91.5868 23.2389 91.5084 23.4773C91.4301 23.7155 91.4041 23.968 91.4325 24.2173V29.2033H89.707V20.7971Z" fill="#171717"/>
<path d="M101.96 26.7357C101.728 28.2617 100.242 29.309 98.3402 29.309C95.8948 29.309 94.377 27.6705 94.377 25.0419C94.377 22.4052 95.903 20.6951 98.2677 20.6951C100.593 20.6951 102.056 22.2928 102.056 24.8415V25.4328H96.1188V25.537C96.0914 25.8463 96.1301 26.158 96.2324 26.4512C96.3347 26.7446 96.4982 27.0126 96.7121 27.2379C96.926 27.4631 97.1853 27.6401 97.473 27.7574C97.7605 27.8747 98.0698 27.9295 98.3801 27.918C98.7879 27.9563 99.1971 27.8618 99.5469 27.6488C99.8966 27.4358 100.168 27.1155 100.321 26.7357H101.96ZM96.127 24.2268H100.33C100.345 23.9486 100.303 23.6702 100.206 23.4092C100.109 23.148 99.9584 22.9099 99.7648 22.7095C99.5712 22.5092 99.3382 22.351 99.0806 22.245C98.823 22.1389 98.5462 22.0873 98.2677 22.0933C97.9867 22.0916 97.7082 22.1455 97.4481 22.2521C97.1882 22.3586 96.9518 22.5156 96.7528 22.714C96.5538 22.9123 96.396 23.1481 96.2885 23.4077C96.1811 23.6675 96.1262 23.9457 96.127 24.2268Z" fill="#171717"/>
<path d="M35.5206 8.9953C35.8824 8.96934 36.2454 9.02399 36.5835 9.15531C36.9215 9.28663 37.2262 9.49134 37.4756 9.75468C37.725 10.018 37.9128 10.3335 38.0256 10.6781C38.1383 11.0229 38.1731 11.3883 38.1275 11.7481C38.1275 13.5181 37.1709 14.5354 35.5206 14.5354H33.5195V8.9953H35.5206ZM34.38 13.7519H35.4245C35.683 13.7674 35.9417 13.7249 36.1817 13.6278C36.4218 13.5307 36.6371 13.3813 36.8122 13.1904C36.9872 12.9995 37.1175 12.7721 37.1935 12.5245C37.2695 12.2769 37.2894 12.0156 37.2516 11.7594C37.2866 11.5042 37.2647 11.2444 37.1875 10.9987C37.1104 10.7529 36.9798 10.5273 36.8052 10.338C36.6306 10.1487 36.4162 10.0003 36.1775 9.90351C35.9389 9.80672 35.6817 9.76394 35.4245 9.77821H34.38V13.7519Z" fill="#171717"/>
<path d="M39.1011 12.4435C39.0748 12.1687 39.1062 11.8915 39.1934 11.6296C39.2805 11.3677 39.4214 11.1269 39.607 10.9226C39.7927 10.7184 40.019 10.5552 40.2714 10.4435C40.5238 10.3319 40.7968 10.2742 41.0728 10.2742C41.3487 10.2742 41.6217 10.3319 41.8742 10.4435C42.1266 10.5552 42.3528 10.7184 42.5384 10.9226C42.7241 11.1269 42.865 11.3677 42.9521 11.6296C43.0393 11.8915 43.0707 12.1687 43.0444 12.4435C43.0712 12.7185 43.0402 12.9961 42.9532 13.2584C42.8664 13.5208 42.7256 13.762 42.5398 13.9666C42.3541 14.1713 42.1277 14.3348 41.875 14.4467C41.6224 14.5587 41.3491 14.6164 41.0728 14.6164C40.7965 14.6164 40.5231 14.5587 40.2705 14.4467C40.0178 14.3348 39.7913 14.1713 39.6056 13.9666C39.42 13.762 39.2792 13.5208 39.1922 13.2584C39.1054 12.9961 39.0743 12.7185 39.1011 12.4435ZM42.1957 12.4435C42.1957 11.5372 41.7886 11.0072 41.0741 11.0072C40.3569 11.0072 39.9534 11.5372 39.9534 12.4435C39.9534 13.3569 40.3569 13.8829 41.0741 13.8829C41.7887 13.8828 42.1957 13.3534 42.1957 12.4435Z" fill="#171717"/>
<path d="M48.2847 14.5351H47.4288L46.5647 11.4559H46.4994L45.6388 14.5351H44.7911L43.6387 10.3542H44.4756L45.2246 13.5445H45.2862L46.1458 10.3542H46.9373L47.7969 13.5445H47.8622L48.6075 10.3542H49.4326L48.2847 14.5351Z" fill="#171717"/>
<path d="M50.4023 10.3543H51.1966V11.0185H51.2582C51.3629 10.7799 51.5392 10.58 51.7629 10.4465C51.9866 10.313 52.2463 10.2525 52.5059 10.2736C52.7093 10.2584 52.9136 10.289 53.1035 10.3634C53.2935 10.4377 53.4644 10.5539 53.6033 10.7033C53.7423 10.8526 53.8459 11.0313 53.9064 11.2261C53.9669 11.421 53.9829 11.6268 53.9531 11.8286V14.5352H53.128V12.0358C53.128 11.3639 52.8359 11.0299 52.2258 11.0299C52.0876 11.0234 51.9497 11.0469 51.8216 11.0987C51.6934 11.1506 51.5779 11.2296 51.4831 11.3301C51.3882 11.4308 51.3163 11.5508 51.2722 11.6818C51.2281 11.8129 51.2128 11.9518 51.2275 12.0894V14.5352H50.4023V10.3543Z" fill="#171717"/>
<path d="M55.2676 8.72241H56.0928V14.5354H55.2676V8.72241Z" fill="#171717"/>
<path d="M57.2397 12.4425C57.2135 12.1678 57.2449 11.8906 57.3321 11.6286C57.4192 11.3667 57.5602 11.1259 57.7459 10.9217C57.9315 10.7175 58.1578 10.5542 58.4102 10.4426C58.6627 10.3309 58.9357 10.2732 59.2117 10.2732C59.4877 10.2732 59.7607 10.3309 60.0131 10.4426C60.2655 10.5542 60.4918 10.7175 60.6774 10.9217C60.8632 11.1259 61.0041 11.3667 61.0912 11.6286C61.1784 11.8906 61.2098 12.1678 61.1836 12.4425C61.2103 12.7176 61.1792 12.9952 61.0923 13.2576C61.0054 13.5198 60.8645 13.761 60.6788 13.9657C60.4932 14.1703 60.2666 14.3339 60.014 14.4458C59.7613 14.5577 59.488 14.6156 59.2117 14.6156C58.9353 14.6156 58.662 14.5577 58.4094 14.4458C58.1567 14.3339 57.9303 14.1703 57.7445 13.9657C57.5588 13.761 57.418 13.5198 57.3311 13.2576C57.2441 12.9952 57.2131 12.7176 57.2397 12.4425ZM60.3344 12.4425C60.3344 11.5363 59.9273 11.0063 59.2128 11.0063C58.4956 11.0063 58.0921 11.5363 58.0921 12.4425C58.0921 13.3561 58.4956 13.882 59.2128 13.882C59.9273 13.882 60.3344 13.3524 60.3344 12.4425Z" fill="#171717"/>
<path d="M62.0527 13.3534C62.0527 12.6008 62.6131 12.1669 63.6078 12.1053L64.7403 12.04V11.6791C64.7403 11.2376 64.4484 10.9882 63.8843 10.9882C63.4237 10.9882 63.1046 11.1573 63.013 11.4529H62.2141C62.2985 10.7348 62.974 10.2742 63.9224 10.2742C64.9706 10.2742 65.5618 10.796 65.5618 11.6791V14.5358H64.7675V13.9482H64.7022C64.5697 14.159 64.3836 14.3308 64.163 14.4461C63.9423 14.5614 63.6951 14.6161 63.4464 14.6046C63.2709 14.6229 63.0935 14.6042 62.9256 14.5497C62.7578 14.4951 62.6033 14.4061 62.4719 14.2883C62.3407 14.1704 62.2355 14.0263 62.1633 13.8652C62.0911 13.7042 62.0534 13.5298 62.0527 13.3534ZM64.7403 12.9961V12.6466L63.7194 12.7118C63.1436 12.7504 62.8824 12.9462 62.8824 13.3149C62.8824 13.6911 63.2089 13.9101 63.6577 13.9101C63.7892 13.9235 63.9221 13.9101 64.0483 13.871C64.1746 13.832 64.2918 13.7679 64.3928 13.6827C64.4938 13.5973 64.5765 13.4927 64.6363 13.3747C64.696 13.2568 64.7313 13.1281 64.7403 12.9961Z" fill="#171717"/>
<path d="M66.6465 12.4432C66.6465 11.122 67.3256 10.2852 68.3819 10.2852C68.6432 10.2731 68.9025 10.3357 69.1296 10.4656C69.3566 10.5955 69.542 10.7873 69.664 11.0187H69.7257V8.72241H70.5508V14.5354H69.7602V13.8748H69.6949C69.5634 14.1046 69.3716 14.2941 69.1402 14.4227C68.9087 14.5513 68.6466 14.6141 68.3819 14.6043C67.3184 14.6043 66.6465 13.7674 66.6465 12.4432ZM67.4988 12.4432C67.4988 13.3299 67.9168 13.8635 68.6159 13.8635C69.3113 13.8635 69.7412 13.3223 69.7412 12.4467C69.7412 11.5754 69.3068 11.0264 68.6159 11.0264C67.9213 11.0264 67.4988 11.5636 67.4988 12.4432Z" fill="#171717"/>
<path d="M73.9644 12.4435C73.9381 12.1687 73.9696 11.8915 74.0567 11.6296C74.1438 11.3677 74.2847 11.1269 74.4704 10.9226C74.656 10.7184 74.8823 10.5552 75.1347 10.4435C75.3871 10.3319 75.66 10.2742 75.9361 10.2742C76.2121 10.2742 76.485 10.3319 76.7375 10.4435C76.9899 10.5552 77.2162 10.7184 77.4018 10.9226C77.5874 11.1269 77.7283 11.3677 77.8155 11.6296C77.9026 11.8915 77.934 12.1687 77.9077 12.4435C77.9345 12.7185 77.9034 12.9961 77.8166 13.2584C77.7296 13.5208 77.5888 13.762 77.4031 13.9666C77.2175 14.1713 76.9911 14.3348 76.7384 14.4467C76.4857 14.5587 76.2124 14.6164 75.9361 14.6164C75.6597 14.6164 75.3865 14.5587 75.1339 14.4467C74.8811 14.3348 74.6547 14.1713 74.469 13.9666C74.2833 13.762 74.1425 13.5208 74.0556 13.2584C73.9687 12.9961 73.9376 12.7185 73.9644 12.4435ZM77.0591 12.4435C77.0591 11.5372 76.6519 11.0072 75.9375 11.0072C75.2202 11.0072 74.8168 11.5372 74.8168 12.4435C74.8168 13.3569 75.2203 13.8829 75.9375 13.8829C76.6519 13.8828 77.0591 13.3534 77.0591 12.4435Z" fill="#171717"/>
<path d="M79.0137 10.3541H79.8079V11.0182H79.8696C79.9742 10.7797 80.1507 10.5797 80.3742 10.4462C80.5979 10.3128 80.8577 10.2523 81.1173 10.2734C81.3207 10.2581 81.525 10.2888 81.7149 10.3632C81.9048 10.4375 82.0757 10.5537 82.2147 10.703C82.3536 10.8524 82.4572 11.0311 82.5178 11.2258C82.5783 11.4207 82.5942 11.6266 82.5644 11.8284V14.535H81.7393V12.0356C81.7393 11.3637 81.4473 11.0296 80.8371 11.0296C80.6989 11.0231 80.5611 11.0467 80.4329 11.0985C80.3047 11.1504 80.1892 11.2293 80.0944 11.3299C79.9996 11.4306 79.9277 11.5505 79.8835 11.6816C79.8394 11.8126 79.8241 11.9516 79.8388 12.0891V14.535H79.0137V10.3541Z" fill="#171717"/>
<path d="M87.2279 9.31323V10.3732H88.1338V11.0682H87.2279V13.218C87.2279 13.656 87.4085 13.8477 87.8192 13.8477C87.9244 13.8474 88.0293 13.841 88.1338 13.8287V14.516C87.9857 14.5425 87.8355 14.5566 87.685 14.5582C86.7673 14.5582 86.4019 14.2353 86.4019 13.4293V11.0682H85.7383V10.3732H86.4019V9.31323H87.2279Z" fill="#171717"/>
<path d="M89.2598 8.72241H90.0777V11.0264H90.1429C90.2526 10.7856 90.4338 10.5845 90.662 10.4505C90.89 10.3164 91.1539 10.256 91.4176 10.2774C91.6201 10.2664 91.8224 10.3003 92.0102 10.3764C92.198 10.4526 92.3667 10.5693 92.5042 10.7181C92.6418 10.867 92.7447 11.0443 92.8058 11.2377C92.8669 11.4309 92.8845 11.6353 92.8575 11.8361V14.5354H92.0316V12.0397C92.0316 11.3719 91.7206 11.0336 91.1376 11.0336C90.9958 11.022 90.8532 11.0415 90.7196 11.0908C90.5861 11.14 90.4651 11.2178 90.3648 11.3188C90.2645 11.4197 90.1875 11.5414 90.1391 11.6753C90.0908 11.8091 90.0723 11.9518 90.0849 12.0935V14.5354H89.2598V8.72241Z" fill="#171717"/>
<path d="M97.669 13.406C97.5569 13.7881 97.314 14.1186 96.9828 14.3398C96.6516 14.5608 96.2532 14.6584 95.8574 14.6156C95.5819 14.6228 95.3082 14.5701 95.0552 14.4609C94.8022 14.3518 94.5759 14.189 94.3921 13.9836C94.2084 13.7782 94.0715 13.5354 93.991 13.2719C93.9106 13.0084 93.8884 12.7306 93.926 12.4576C93.8894 12.1838 93.9119 11.9052 93.9922 11.6409C94.0725 11.3766 94.2087 11.1327 94.3914 10.9256C94.5743 10.7185 94.7994 10.553 95.0517 10.4405C95.304 10.3279 95.5775 10.2709 95.8537 10.2733C97.0171 10.2733 97.7189 11.068 97.7189 12.3809V12.6689H94.7665V12.7151C94.7536 12.8685 94.7729 13.023 94.8231 13.1685C94.8734 13.314 94.9536 13.4474 95.0583 13.5603C95.1632 13.673 95.2905 13.7626 95.432 13.8233C95.5734 13.884 95.726 13.9145 95.88 13.9128C96.0774 13.9365 96.2774 13.9009 96.4544 13.8107C96.6316 13.7204 96.7779 13.5796 96.8747 13.406H97.669ZM94.7665 12.0586H96.8783C96.8887 11.9183 96.8696 11.7774 96.8223 11.6448C96.775 11.5123 96.7005 11.3912 96.6036 11.2891C96.5067 11.1871 96.3895 11.1066 96.2596 11.0525C96.1296 10.9986 95.9898 10.9723 95.8491 10.9756C95.7065 10.9737 95.5649 11.0005 95.4326 11.0544C95.3004 11.1081 95.1804 11.1878 95.0795 11.2887C94.9786 11.3897 94.8989 11.5098 94.8452 11.642C94.7915 11.7743 94.7647 11.9159 94.7665 12.0586Z" fill="#171717"/>
</g>
</g>
<defs>
<clipPath id="clip0_352_257">
<rect width="111.997" height="38.69" fill="white" transform="translate(0.0722656 0.113281)"/>
</clipPath>
</defs>
</svg>
