<svg width="158" height="68" viewBox="0 0 158 68" fill="none" xmlns="http://www.w3.org/2000/svg">
<rect x="0.5625" width="157" height="68" rx="16" fill="white"/>
<g clip-path="url(#clip0_869_198)">
<mask id="mask0_869_198" style="mask-type:luminance" maskUnits="userSpaceOnUse" x="19" y="18" width="29" height="32">
<path d="M47.6875 18.25H19.6875V49.75H47.6875V18.25Z" fill="white"/>
</mask>
<g mask="url(#mask0_869_198)">
<path d="M42.5225 34.8411C42.5085 32.2687 43.668 30.3271 46.0149 28.8972C44.7018 27.0117 42.7181 25.9743 40.0987 25.771C37.6191 25.5748 34.9089 27.222 33.9171 27.222C32.8694 27.222 30.4665 25.8411 28.5807 25.8411C24.6831 25.9042 20.541 28.9603 20.541 35.1775C20.541 37.014 20.8763 38.9112 21.5468 40.8692C22.4409 43.4416 25.6679 49.75 29.0346 49.6449C30.7948 49.6028 32.0382 48.3902 34.3292 48.3902C36.5504 48.3902 37.7029 49.6449 39.6657 49.6449C43.0603 49.5958 45.98 43.8622 46.8322 41.2827C42.278 39.1309 42.5225 34.9743 42.5225 34.8411ZM38.569 23.3318C40.4759 21.0607 40.3013 18.993 40.2454 18.25C38.562 18.3481 36.6132 19.3995 35.5027 20.6963C34.2803 22.0841 33.5609 23.8014 33.7145 25.736C35.5376 25.8761 37.2 24.9369 38.569 23.3318Z" fill="black"/>
</g>
</g>
<path d="M69.1758 27.3301C68.1914 27.8861 67.0977 28.1641 65.8945 28.1641C64.4954 28.1641 63.363 27.7129 62.4971 26.8105C61.6357 25.9082 61.2051 24.7142 61.2051 23.2285C61.2051 21.7109 61.6836 20.4668 62.6406 19.4961C63.6022 18.5208 64.819 18.0332 66.291 18.0332C67.3574 18.0332 68.2529 18.2064 68.9775 18.5527V19.8242C68.1846 19.3229 67.2458 19.0723 66.1611 19.0723C65.0628 19.0723 64.1628 19.4505 63.4609 20.207C62.7591 20.9635 62.4082 21.9434 62.4082 23.1465C62.4082 24.3861 62.734 25.3613 63.3857 26.0723C64.0374 26.7786 64.9215 27.1318 66.0381 27.1318C66.8037 27.1318 67.4668 26.9792 68.0273 26.6738V23.9258H65.8809V22.8867H69.1758V27.3301ZM76.9346 24.7803H71.9922C72.0104 25.5596 72.2201 26.1611 72.6211 26.585C73.0221 27.0088 73.5736 27.2207 74.2754 27.2207C75.0638 27.2207 75.7884 26.9609 76.4492 26.4414V27.4941C75.834 27.9408 75.0205 28.1641 74.0088 28.1641C73.0199 28.1641 72.2428 27.8473 71.6777 27.2139C71.1126 26.5758 70.8301 25.6803 70.8301 24.5273C70.8301 23.4382 71.1377 22.5518 71.7529 21.8682C72.3727 21.18 73.1406 20.8359 74.0566 20.8359C74.9727 20.8359 75.6813 21.1322 76.1826 21.7246C76.6839 22.3171 76.9346 23.1396 76.9346 24.1924V24.7803ZM75.7861 23.8301C75.7816 23.1829 75.6243 22.6794 75.3145 22.3193C75.0091 21.9593 74.583 21.7793 74.0361 21.7793C73.5075 21.7793 73.0586 21.9684 72.6895 22.3467C72.3203 22.7249 72.0924 23.2194 72.0059 23.8301H75.7861ZM81.8838 27.9316C81.6195 28.0775 81.2708 28.1504 80.8379 28.1504C79.612 28.1504 78.999 27.4668 78.999 26.0996V21.957H77.7959V21H78.999V19.291L80.1201 18.9287V21H81.8838V21.957H80.1201V25.9014C80.1201 26.3708 80.1999 26.7057 80.3594 26.9062C80.5189 27.1068 80.7832 27.207 81.1523 27.207C81.4349 27.207 81.6787 27.1296 81.8838 26.9746V27.9316ZM87.7969 19.2227C87.5964 19.2227 87.4255 19.1543 87.2842 19.0176C87.1429 18.8809 87.0723 18.7077 87.0723 18.498C87.0723 18.2884 87.1429 18.1152 87.2842 17.9785C87.4255 17.8372 87.5964 17.7666 87.7969 17.7666C88.002 17.7666 88.1751 17.8372 88.3164 17.9785C88.4622 18.1152 88.5352 18.2884 88.5352 18.498C88.5352 18.6986 88.4622 18.8695 88.3164 19.0107C88.1751 19.152 88.002 19.2227 87.7969 19.2227ZM88.3438 28H87.2227V21H88.3438V28ZM93.8604 27.9316C93.596 28.0775 93.2474 28.1504 92.8145 28.1504C91.5885 28.1504 90.9756 27.4668 90.9756 26.0996V21.957H89.7725V21H90.9756V19.291L92.0967 18.9287V21H93.8604V21.957H92.0967V25.9014C92.0967 26.3708 92.1764 26.7057 92.3359 26.9062C92.4954 27.1068 92.7598 27.207 93.1289 27.207C93.4115 27.207 93.6553 27.1296 93.8604 26.9746V27.9316ZM102.125 28.1641C101.09 28.1641 100.263 27.8382 99.6436 27.1865C99.0283 26.5303 98.7207 25.6621 98.7207 24.582C98.7207 23.4062 99.042 22.488 99.6846 21.8271C100.327 21.1663 101.195 20.8359 102.289 20.8359C103.333 20.8359 104.146 21.1572 104.729 21.7998C105.317 22.4424 105.611 23.3333 105.611 24.4727C105.611 25.5892 105.295 26.4847 104.661 27.1592C104.032 27.8291 103.187 28.1641 102.125 28.1641ZM102.207 21.7793C101.487 21.7793 100.917 22.0254 100.498 22.5176C100.079 23.0052 99.8691 23.6797 99.8691 24.541C99.8691 25.3704 100.081 26.0244 100.505 26.5029C100.929 26.9814 101.496 27.2207 102.207 27.2207C102.932 27.2207 103.488 26.986 103.875 26.5166C104.267 26.0472 104.463 25.3796 104.463 24.5137C104.463 23.6387 104.267 22.9642 103.875 22.4902C103.488 22.0163 102.932 21.7793 102.207 21.7793ZM113.213 28H112.092V24.0078C112.092 22.5221 111.549 21.7793 110.465 21.7793C109.904 21.7793 109.439 21.9912 109.07 22.415C108.706 22.8343 108.523 23.3652 108.523 24.0078V28H107.402V21H108.523V22.1621H108.551C109.079 21.278 109.845 20.8359 110.848 20.8359C111.613 20.8359 112.199 21.0843 112.604 21.5811C113.01 22.0732 113.213 22.7865 113.213 23.7207V28Z" fill="black"/>
<path d="M71.1484 51H69.1094L68.1016 48.1484H63.6953L62.7266 51H60.6953L64.8906 39.7969H66.9844L71.1484 51ZM67.6094 46.6328L66.0547 42.1641C66.0078 42.0182 65.9583 41.7839 65.9062 41.4609H65.875C65.8281 41.7578 65.776 41.9922 65.7188 42.1641L64.1797 46.6328H67.6094ZM74.3359 49.8203H74.3047V54.6797H72.4922V43H74.3047V44.4062H74.3359C74.9557 43.3438 75.862 42.8125 77.0547 42.8125C78.0703 42.8125 78.862 43.1693 79.4297 43.8828C79.9974 44.5964 80.2812 45.5547 80.2812 46.7578C80.2812 48.0911 79.9609 49.1589 79.3203 49.9609C78.6797 50.763 77.8047 51.1641 76.6953 51.1641C75.6745 51.1641 74.888 50.7161 74.3359 49.8203ZM74.2891 46.6641V47.6562C74.2891 48.2396 74.474 48.7344 74.8438 49.1406C75.2188 49.5469 75.6927 49.75 76.2656 49.75C76.9375 49.75 77.4635 49.4896 77.8438 48.9688C78.2292 48.4427 78.4219 47.7109 78.4219 46.7734C78.4219 45.987 78.2422 45.3724 77.8828 44.9297C77.5286 44.4818 77.0469 44.2578 76.4375 44.2578C75.7917 44.2578 75.2708 44.487 74.875 44.9453C74.4844 45.4036 74.2891 45.9766 74.2891 46.6641ZM83.9766 49.8203H83.9453V54.6797H82.1328V43H83.9453V44.4062H83.9766C84.5964 43.3438 85.5026 42.8125 86.6953 42.8125C87.7109 42.8125 88.5026 43.1693 89.0703 43.8828C89.638 44.5964 89.9219 45.5547 89.9219 46.7578C89.9219 48.0911 89.6016 49.1589 88.9609 49.9609C88.3203 50.763 87.4453 51.1641 86.3359 51.1641C85.3151 51.1641 84.5286 50.7161 83.9766 49.8203ZM83.9297 46.6641V47.6562C83.9297 48.2396 84.1146 48.7344 84.4844 49.1406C84.8594 49.5469 85.3333 49.75 85.9062 49.75C86.5781 49.75 87.1042 49.4896 87.4844 48.9688C87.8698 48.4427 88.0625 47.7109 88.0625 46.7734C88.0625 45.987 87.8828 45.3724 87.5234 44.9297C87.1693 44.4818 86.6875 44.2578 86.0781 44.2578C85.4323 44.2578 84.9115 44.487 84.5156 44.9453C84.125 45.4036 83.9297 45.9766 83.9297 46.6641ZM95.8672 50.5547V48.6406C96.0391 48.7969 96.2422 48.9375 96.4766 49.0625C96.7161 49.1875 96.9688 49.2943 97.2344 49.3828C97.5 49.4661 97.7656 49.5312 98.0312 49.5781C98.2969 49.625 98.5417 49.6484 98.7656 49.6484C99.5469 49.6484 100.128 49.5182 100.508 49.2578C100.893 48.9974 101.086 48.6198 101.086 48.125C101.086 47.8594 101.021 47.6302 100.891 47.4375C100.766 47.2396 100.589 47.0599 100.359 46.8984C100.13 46.737 99.8594 46.5833 99.5469 46.4375C99.2396 46.2865 98.9089 46.1302 98.5547 45.9688C98.1745 45.7656 97.8203 45.5599 97.4922 45.3516C97.1641 45.1432 96.8776 44.9141 96.6328 44.6641C96.3932 44.4089 96.2031 44.1224 96.0625 43.8047C95.9271 43.487 95.8594 43.1146 95.8594 42.6875C95.8594 42.1615 95.9766 41.7057 96.2109 41.3203C96.4505 40.9297 96.763 40.6094 97.1484 40.3594C97.5391 40.1042 97.9818 39.9167 98.4766 39.7969C98.9714 39.6719 99.4766 39.6094 99.9922 39.6094C101.164 39.6094 102.018 39.7422 102.555 40.0078V41.8438C101.919 41.3854 101.102 41.1562 100.102 41.1562C99.8255 41.1562 99.5495 41.1823 99.2734 41.2344C99.0026 41.2865 98.7578 41.3724 98.5391 41.4922C98.3255 41.612 98.151 41.7656 98.0156 41.9531C97.8802 42.1406 97.8125 42.3672 97.8125 42.6328C97.8125 42.8828 97.8646 43.099 97.9688 43.2812C98.0729 43.4635 98.224 43.6302 98.4219 43.7812C98.625 43.9323 98.8698 44.0807 99.1562 44.2266C99.4479 44.3672 99.7839 44.5208 100.164 44.6875C100.555 44.8906 100.922 45.1042 101.266 45.3281C101.615 45.5521 101.919 45.7995 102.18 46.0703C102.445 46.3411 102.654 46.6432 102.805 46.9766C102.961 47.3047 103.039 47.6797 103.039 48.1016C103.039 48.6693 102.924 49.1484 102.695 49.5391C102.466 49.9297 102.156 50.2474 101.766 50.4922C101.38 50.737 100.935 50.9141 100.43 51.0234C99.9245 51.1328 99.3906 51.1875 98.8281 51.1875C98.6406 51.1875 98.4089 51.1719 98.1328 51.1406C97.862 51.1146 97.5833 51.0729 97.2969 51.0156C97.0104 50.9635 96.7396 50.8984 96.4844 50.8203C96.2292 50.7422 96.0234 50.6536 95.8672 50.5547ZM108.648 50.9141C108.294 51.0911 107.828 51.1797 107.25 51.1797C105.698 51.1797 104.922 50.4349 104.922 48.9453V44.4219H103.586V43H104.922V41.1484L106.734 40.6328V43H108.648V44.4219H106.734V48.4219C106.734 48.8958 106.82 49.2344 106.992 49.4375C107.164 49.6406 107.451 49.7422 107.852 49.7422C108.159 49.7422 108.424 49.6536 108.648 49.4766V50.9141ZM113.664 51.1875C112.43 51.1875 111.443 50.8151 110.703 50.0703C109.969 49.3203 109.602 48.3281 109.602 47.0938C109.602 45.75 109.984 44.7005 110.75 43.9453C111.521 43.1901 112.557 42.8125 113.859 42.8125C115.109 42.8125 116.083 43.1797 116.781 43.9141C117.479 44.6484 117.828 45.6667 117.828 46.9688C117.828 48.2448 117.451 49.2682 116.695 50.0391C115.945 50.8047 114.935 51.1875 113.664 51.1875ZM113.75 44.2578C113.042 44.2578 112.482 44.5052 112.07 45C111.659 45.4948 111.453 46.1771 111.453 47.0469C111.453 47.8854 111.661 48.5469 112.078 49.0312C112.495 49.5104 113.052 49.75 113.75 49.75C114.464 49.75 115.01 49.513 115.391 49.0391C115.776 48.5651 115.969 47.8906 115.969 47.0156C115.969 46.1354 115.776 45.4557 115.391 44.9766C115.01 44.4974 114.464 44.2578 113.75 44.2578ZM124.32 44.7266C124.102 44.5547 123.786 44.4688 123.375 44.4688C122.839 44.4688 122.391 44.7109 122.031 45.1953C121.672 45.6797 121.492 46.3385 121.492 47.1719V51H119.68V43H121.492V44.6484H121.523C121.701 44.0859 121.971 43.6484 122.336 43.3359C122.706 43.0182 123.117 42.8594 123.57 42.8594C123.898 42.8594 124.148 42.9089 124.32 43.0078V44.7266ZM132.234 47.4922H126.781C126.802 48.2318 127.029 48.8021 127.461 49.2031C127.898 49.6042 128.497 49.8047 129.258 49.8047C130.112 49.8047 130.896 49.5495 131.609 49.0391V50.5C130.88 50.9583 129.917 51.1875 128.719 51.1875C127.542 51.1875 126.617 50.8255 125.945 50.1016C125.279 49.3724 124.945 48.349 124.945 47.0312C124.945 45.7865 125.312 44.7734 126.047 43.9922C126.786 43.2057 127.703 42.8125 128.797 42.8125C129.891 42.8125 130.737 43.1641 131.336 43.8672C131.935 44.5703 132.234 45.5469 132.234 46.7969V47.4922ZM130.484 46.2109C130.479 45.5599 130.326 45.0547 130.023 44.6953C129.721 44.3307 129.305 44.1484 128.773 44.1484C128.253 44.1484 127.81 44.3385 127.445 44.7188C127.086 45.099 126.865 45.5964 126.781 46.2109H130.484Z" fill="black"/>
<defs>
<clipPath id="clip0_869_198">
<rect width="28" height="31.5" fill="white" transform="translate(20.5625 18.25)"/>
</clipPath>
</defs>
</svg>
