<svg width="49" height="49" viewBox="0 0 49 49" fill="none" xmlns="http://www.w3.org/2000/svg">
<rect width="49" height="49" rx="24.5" fill="#171717"/>
<rect x="0.5" y="0.5" width="48" height="48" rx="24" stroke="#F7F7F9" stroke-opacity="0.4"/>
<path d="M34.1995 25.2267C34.2334 22.581 35.6488 20.0775 37.8941 18.6917C36.4776 16.6608 34.1051 15.3731 31.6367 15.2956C29.004 15.0182 26.4517 16.8772 25.1101 16.8772C23.7425 16.8772 21.6769 15.3232 19.4526 15.3691C16.5533 15.4631 13.8504 17.1179 12.4399 19.6626C9.40771 24.9328 11.6694 32.6782 14.574 36.9382C16.0272 39.0243 17.7256 41.3544 19.9479 41.2718C22.1225 41.1812 22.9347 39.8796 25.5597 39.8796C28.1604 39.8796 28.9224 41.2718 31.1897 41.2192C33.5233 41.1812 34.9935 39.1239 36.3957 37.0182C37.4398 35.5318 38.2433 33.8891 38.7763 32.1508C36.034 30.9864 34.2027 28.2159 34.1995 25.2267Z" fill="white"/>
<path d="M29.9167 12.494C31.189 10.9607 31.8159 8.98982 31.6641 7C29.7203 7.20496 27.9247 8.13761 26.6352 9.61212C25.3742 11.0528 24.718 12.989 24.8421 14.9027C26.7866 14.9228 28.6982 14.0155 29.9167 12.494Z" fill="white"/>
</svg>
