<svg width="22" height="19" viewBox="0 0 22 19" fill="none" xmlns="http://www.w3.org/2000/svg">
<g clip-path="url(#clip0_352_175)">
<path d="M2 2.95325L9.77212 8.99823C10.4943 9.55996 11.5057 9.55996 12.2279 8.99823L20 2.95325M4.2 17.9532H17.8C18.9201 17.9532 19.4802 17.9532 19.908 17.7352C20.2843 17.5435 20.5903 17.2375 20.782 16.8612C21 16.4334 21 15.8733 21 14.7532V5.15325C21 4.03315 21 3.47309 20.782 3.04527C20.5903 2.66894 20.2843 2.36298 19.908 2.17124C19.4802 1.95325 18.9201 1.95325 17.8 1.95325H4.2C3.07989 1.95325 2.51984 1.95325 2.09202 2.17124C1.71569 2.36298 1.40973 2.66894 1.21799 3.04527C1 3.47309 1 4.03314 1 5.15325V14.7532C1 15.8733 1 16.4334 1.21799 16.8612C1.40973 17.2375 1.71569 17.5435 2.09202 17.7352C2.51984 17.9532 3.0799 17.9532 4.2 17.9532Z" stroke="#171717" stroke-width="2"/>
</g>
<defs>
<clipPath id="clip0_352_175">
<rect width="22" height="18" fill="white" transform="translate(0 0.953247)"/>
</clipPath>
</defs>
</svg>
