<svg width="32" height="33" viewBox="0 0 32 33" fill="none" xmlns="http://www.w3.org/2000/svg">
<g clip-path="url(#clip0_352_198)">
<path d="M32 16.2433C32 7.40673 24.8366 0.243286 16 0.243286C7.16344 0.243286 0 7.40673 0 16.2433C0 25.0798 7.16344 32.2433 16 32.2433C24.8366 32.2433 32 25.0798 32 16.2433Z" fill="#171717"/>
<path d="M22.2281 20.8683L22.9375 16.2433H18.5V13.242C18.5 11.9767 19.12 10.7433 21.1075 10.7433H23.125V6.80579C23.125 6.80579 21.2941 6.49329 19.5434 6.49329C15.8888 6.49329 13.5 8.70829 13.5 12.7183V16.2433H9.4375V20.8683H13.5V32.0489C14.3147 32.1767 15.1494 32.2433 16 32.2433C16.8506 32.2433 17.6853 32.1767 18.5 32.0489V20.8683H22.2281Z" fill="white"/>
</g>
<defs>
<clipPath id="clip0_352_198">
<rect width="32" height="32" fill="white" transform="translate(0 0.243286)"/>
</clipPath>
</defs>
</svg>
