<svg width="32" height="33" viewBox="0 0 32 33" fill="none" xmlns="http://www.w3.org/2000/svg">
<g clip-path="url(#clip0_352_192)">
<path d="M32 16.2433C32 7.40673 24.8366 0.243286 16 0.243286C7.16344 0.243286 0 7.40673 0 16.2433C0 25.0798 7.16344 32.2433 16 32.2433C24.8366 32.2433 32 25.0798 32 16.2433Z" fill="#171717"/>
<path d="M16.001 7.28941C18.9162 7.28941 19.2618 7.29901 20.4138 7.35341C21.4794 7.40141 22.0586 7.58061 22.4426 7.73101C22.9514 7.92941 23.3162 8.16621 23.697 8.54701C24.0778 8.92781 24.3146 9.29261 24.513 9.80141C24.6634 10.1854 24.8394 10.7646 24.8906 11.8302C24.9418 12.9822 24.9546 13.3278 24.9546 16.243C24.9546 19.1582 24.945 19.5038 24.8906 20.6558C24.8426 21.7214 24.6634 22.3006 24.513 22.6846C24.3146 23.1934 24.0778 23.5582 23.697 23.939C23.3162 24.3198 22.9514 24.5566 22.4426 24.755C22.0586 24.9054 21.4794 25.0814 20.4138 25.1326C19.2618 25.1838 18.9162 25.1966 16.001 25.1966C13.0858 25.1966 12.7402 25.187 11.5882 25.1326C10.5226 25.0846 9.94337 24.9054 9.55937 24.755C9.05057 24.5566 8.68576 24.3198 8.30496 23.939C7.92416 23.5582 7.68736 23.1934 7.48896 22.6846C7.33856 22.3006 7.16256 21.7214 7.11136 20.6558C7.06016 19.5038 7.04736 19.1582 7.04736 16.243C7.04736 13.3278 7.05696 12.9822 7.11136 11.8302C7.15936 10.7646 7.33856 10.1854 7.48896 9.80141C7.68736 9.29261 7.92416 8.92781 8.30496 8.54701C8.68576 8.16621 9.05057 7.92941 9.55937 7.73101C9.94337 7.58061 10.5226 7.40461 11.5882 7.35341C12.7402 7.29901 13.0858 7.28941 16.001 7.28941ZM16.001 5.32141C13.0346 5.32141 12.6634 5.33421 11.4986 5.38861C10.337 5.44301 9.54336 5.62541 8.84576 5.89741C8.12896 6.17261 7.51776 6.54701 6.91296 7.15501C6.30497 7.76301 5.93377 8.37101 5.65217 9.09101C5.38337 9.78541 5.19777 10.579 5.14337 11.7438C5.08897 12.9086 5.07617 13.2798 5.07617 16.2462C5.07617 19.2126 5.08897 19.5838 5.14337 20.7486C5.19777 21.9102 5.38017 22.7038 5.65217 23.4014C5.93057 24.115 6.30497 24.7262 6.91296 25.331C7.52096 25.939 8.12897 26.3102 8.84896 26.5918C9.54336 26.8606 10.337 27.0462 11.5018 27.1006C12.6666 27.155 13.0378 27.1678 16.0042 27.1678C18.9706 27.1678 19.3418 27.155 20.5066 27.1006C21.6682 27.0462 22.4618 26.8638 23.1594 26.5918C23.873 26.3134 24.4842 25.939 25.089 25.331C25.697 24.723 26.0682 24.115 26.3498 23.395C26.6186 22.7006 26.8042 21.907 26.8586 20.7422C26.913 19.5774 26.9258 19.2062 26.9258 16.2398C26.9258 13.2734 26.913 12.9022 26.8586 11.7374C26.8042 10.5758 26.6218 9.78221 26.3498 9.08461C26.0714 8.37101 25.697 7.75981 25.089 7.15501C24.481 6.54701 23.873 6.17581 23.153 5.89421C22.4586 5.62541 21.665 5.43981 20.5002 5.38541C19.3386 5.33421 18.9674 5.32141 16.001 5.32141Z" fill="white"/>
<path d="M16.0002 10.6337C12.9026 10.6337 10.3906 13.1457 10.3906 16.2433C10.3906 19.3409 12.9026 21.8529 16.0002 21.8529C19.0978 21.8529 21.6098 19.3409 21.6098 16.2433C21.6098 13.1457 19.0978 10.6337 16.0002 10.6337ZM16.0002 19.8849C13.9906 19.8849 12.3586 18.2561 12.3586 16.2433C12.3586 14.2305 13.9906 12.6017 16.0002 12.6017C18.0098 12.6017 19.6418 14.2305 19.6418 16.2433C19.6418 18.2561 18.0098 19.8849 16.0002 19.8849Z" fill="white"/>
<path d="M21.8296 11.7247C22.5542 11.7247 23.1416 11.1373 23.1416 10.4127C23.1416 9.68812 22.5542 9.10071 21.8296 9.10071C21.105 9.10071 20.5176 9.68812 20.5176 10.4127C20.5176 11.1373 21.105 11.7247 21.8296 11.7247Z" fill="white"/>
</g>
<defs>
<clipPath id="clip0_352_192">
<rect width="32" height="32" fill="white" transform="translate(0 0.243286)"/>
</clipPath>
</defs>
</svg>
