<svg width="32" height="32" viewBox="0 0 32 32" fill="none" xmlns="http://www.w3.org/2000/svg">
<g clip-path="url(#clip0_869_280)">
<path fill-rule="evenodd" clip-rule="evenodd" d="M0 0V32H32V0H0ZM21.015 11.995C21.015 12.495 20.61 12.895 20.115 12.895C19.615 12.895 19.215 12.495 19.215 11.995C19.215 11.495 19.615 11.095 20.115 11.095C20.61 11.095 21.015 11.495 21.015 11.995ZM12.26 15.995C12.26 13.87 13.985 12.145 16.11 12.145C18.235 12.145 19.96 13.875 19.96 15.995C19.96 18.12 18.235 19.85 16.11 19.85C13.985 19.85 12.26 18.125 12.26 15.995ZM13.61 15.995C13.61 17.38 14.73 18.495 16.11 18.495C17.49 18.495 18.61 17.38 18.61 15.995C18.61 14.615 17.49 13.5 16.11 13.5C14.73 13.5 13.61 14.615 13.61 15.995ZM19.14 9.895C18.35 9.86 18.11 9.85 16.11 9.85C14.11 9.85 13.87 9.855 13.085 9.895C12.345 9.925 11.95 10.055 11.685 10.155C11.335 10.29 11.085 10.45 10.825 10.715C10.565 10.98 10.4 11.23 10.265 11.58C10.165 11.84 10.04 12.24 10.005 12.97C9.97 13.76 9.96 13.995 9.96 16.005C9.96 18.005 9.97 18.24 10.005 19.03C10.04 19.76 10.165 20.16 10.265 20.42C10.4 20.77 10.565 21.025 10.825 21.285C11.085 21.55 11.335 21.705 11.685 21.845C11.95 21.95 12.345 22.075 13.085 22.105C13.87 22.14 14.11 22.15 16.11 22.15C18.11 22.15 18.35 22.14 19.14 22.105C19.875 22.075 20.27 21.945 20.535 21.845C20.885 21.71 21.135 21.55 21.4 21.285C21.66 21.025 21.82 20.77 21.955 20.42C22.06 20.16 22.18 19.76 22.215 19.03C22.25 18.24 22.26 18.005 22.26 16.005C22.26 13.995 22.25 13.76 22.215 12.97C22.18 12.24 22.06 11.84 21.955 11.58C21.82 11.23 21.66 10.98 21.4 10.715C21.135 10.45 20.885 10.295 20.535 10.155C20.27 10.05 19.875 9.925 19.14 9.895ZM13.015 8.545C13.82 8.51 14.075 8.5 16.11 8.5C18.135 8.5 18.4 8.51 19.19 8.54H19.205C20.005 8.575 20.55 8.705 21.03 8.89C21.52 9.085 21.935 9.34 22.355 9.755C22.77 10.17 23.03 10.59 23.22 11.085C23.405 11.565 23.53 12.105 23.57 12.905C23.605 13.705 23.615 13.96 23.615 15.995C23.615 18.035 23.605 18.29 23.57 19.09C23.53 19.89 23.405 20.435 23.22 20.91C23.03 21.4 22.77 21.825 22.355 22.24C21.935 22.655 21.52 22.915 21.03 23.105C20.55 23.29 20 23.42 19.205 23.455C18.405 23.49 18.155 23.5 16.115 23.5C14.075 23.5 13.82 23.49 13.02 23.455C12.22 23.42 11.675 23.29 11.2 23.105C10.71 22.91 10.29 22.655 9.875 22.24C9.455 21.825 9.195 21.405 9.005 20.91C8.82 20.43 8.695 19.89 8.66 19.09C8.625 18.29 8.615 18.035 8.615 15.995C8.615 13.96 8.625 13.705 8.66 12.91C8.695 12.105 8.82 11.565 9.005 11.085C9.195 10.6 9.455 10.175 9.875 9.76C10.29 9.345 10.705 9.085 11.2 8.89C11.675 8.71 12.22 8.58 13.015 8.545Z" fill="white"/>
</g>
<defs>
<clipPath id="clip0_869_280">
<rect width="32" height="32" rx="16" fill="white"/>
</clipPath>
</defs>
</svg>
