<svg width="32" height="33" viewBox="0 0 32 33" fill="none" xmlns="http://www.w3.org/2000/svg">
<g clip-path="url(#clip0_352_206)">
<path d="M32 16.2433C32 7.40673 24.8366 0.243286 16 0.243286C7.16344 0.243286 0 7.40673 0 16.2433C0 25.0798 7.16344 32.2433 16 32.2433C24.8366 32.2433 32 25.0798 32 16.2433Z" fill="#171717"/>
<path d="M7.77863 13.2523H11.2719V24.4942H7.77863V13.2523ZM9.52656 7.66418C10.6437 7.66418 11.5505 8.57101 11.5505 9.69073C11.5505 10.8105 10.6437 11.7173 9.52656 11.7173C8.40683 11.7173 7.50001 10.8105 7.50001 9.69073C7.49738 8.57363 8.40421 7.66418 9.52656 7.66418Z" fill="white"/>
<path d="M13.4648 13.2521H16.8161V14.7871H16.8634C17.3287 13.9039 18.4668 12.9708 20.17 12.9708C23.7079 12.9708 24.3624 15.2996 24.3624 18.325V24.494H20.8692V19.0294C20.8692 17.7231 20.8455 16.0487 19.0529 16.0487C17.234 16.0487 16.9554 17.4681 16.9554 18.9348V24.4966H13.4648V13.2521Z" fill="white"/>
</g>
<defs>
<clipPath id="clip0_352_206">
<rect width="32" height="32" fill="white" transform="translate(0 0.243286)"/>
</clipPath>
</defs>
</svg>
