<svg width="32" height="32" viewBox="0 0 32 32" fill="none" xmlns="http://www.w3.org/2000/svg">
<g clip-path="url(#clip0_869_289)">
<path fill-rule="evenodd" clip-rule="evenodd" d="M0 0V32H32V0H0ZM12.9 22H10.2V13.3H12.9V22ZM11.55 12.15C10.7 12.15 10 11.45 10 10.6C10 9.75 10.7 9.05 11.55 9.05C12.4 9.05 13.1 9.75 13.1 10.6C13.1 11.45 12.4 12.15 11.55 12.15ZM23 22H20.3V17.8C20.3 16.8 20.3 15.5 18.9 15.5C17.5 15.5 17.3 16.6 17.3 17.75V22H14.6V13.3H17.2V14.5H17.25C17.6 13.8 18.5 13.1 19.8 13.1C22.55 13.1 23.05 14.9 23.05 17.25V22H23Z" fill="white"/>
</g>
<defs>
<clipPath id="clip0_869_289">
<rect width="32" height="32" rx="16" fill="white"/>
</clipPath>
</defs>
</svg>
