<svg width="19" height="20" viewBox="0 0 19 20" fill="none" xmlns="http://www.w3.org/2000/svg">
<g clip-path="url(#clip0_352_180)">
<path d="M5.98026 7.30838C6.6162 8.63291 7.48312 9.87431 8.58101 10.9722C9.67891 12.0701 10.9203 12.937 12.2448 13.5729C12.3588 13.6276 12.4157 13.655 12.4878 13.676C12.744 13.7507 13.0585 13.697 13.2755 13.5417C13.3365 13.498 13.3888 13.4458 13.4932 13.3413C13.8126 13.0219 13.9724 12.8622 14.133 12.7577C14.7387 12.3639 15.5195 12.3639 16.1252 12.7577C16.2858 12.8622 16.4455 13.0219 16.765 13.3413L16.943 13.5194C17.4286 14.005 17.6714 14.2477 17.8033 14.5085C18.0656 15.0271 18.0656 15.6395 17.8033 16.1581C17.6714 16.4189 17.4286 16.6616 16.943 17.1472L16.799 17.2913C16.3151 17.7752 16.0731 18.0171 15.7441 18.2019C15.3791 18.407 14.8121 18.5544 14.3935 18.5532C14.0162 18.5521 13.7583 18.4789 13.2425 18.3325C10.4709 17.5458 7.85553 16.0615 5.6736 13.8796C3.49168 11.6977 2.00738 9.08233 1.22071 6.31068C1.07432 5.79494 1.00113 5.53707 1.00001 5.15975C0.99876 4.74107 1.1462 4.17412 1.35126 3.80909C1.53605 3.48013 1.77801 3.23816 2.26193 2.75424L2.40597 2.61021C2.89155 2.12463 3.13434 1.88183 3.3951 1.74994C3.91369 1.48765 4.52611 1.48765 5.0447 1.74994C5.30546 1.88183 5.54825 2.12462 6.03383 2.61021L6.21189 2.78826C6.53133 3.1077 6.69104 3.26742 6.79547 3.42803C7.18927 4.03372 7.18927 4.81456 6.79547 5.42025C6.69105 5.58086 6.53133 5.74058 6.21189 6.06002C6.10744 6.16447 6.05521 6.21669 6.0115 6.27774C5.85616 6.49468 5.80252 6.80923 5.8772 7.0654C5.89821 7.13748 5.92556 7.19445 5.98026 7.30838Z" stroke="#171717" stroke-width="2" stroke-linecap="round" stroke-linejoin="round"/>
</g>
<defs>
<clipPath id="clip0_352_180">
<rect width="19" height="19" fill="white" transform="translate(0 0.553223)"/>
</clipPath>
</defs>
</svg>
