<svg width="156" height="68" viewBox="0 0 156 68" fill="none" xmlns="http://www.w3.org/2000/svg">
<rect x="0.5625" width="154.766" height="68" rx="16" fill="white"/>
<g clip-path="url(#clip0_869_209)">
<path d="M35.7775 38.2792C39.0945 36.4578 41.6092 35.07 41.8259 34.9622C42.5193 34.5934 43.2353 33.6175 41.8259 32.8594C41.3709 32.6211 38.9209 31.2764 35.7775 29.5424L31.4199 33.9431L35.7775 38.2792Z" fill="#FFD900"/>
<path d="M31.42 33.9431L17.5449 47.9271C17.8706 47.9702 18.2383 47.884 18.6718 47.6456C19.5819 47.1474 29.2298 41.8787 35.7775 38.2802L31.42 33.9431Z" fill="#F43249"/>
<path d="M31.42 33.9431L35.7776 29.564C35.7776 29.564 19.6478 20.7615 18.6719 20.2417C18.3042 20.0239 17.8922 19.9592 17.5234 20.0239L31.42 33.9431Z" fill="#00EE76"/>
<path d="M31.4196 33.9431L17.523 20.0239C16.959 20.1544 16.4824 20.6526 16.4824 21.6716C16.4824 23.2977 16.4824 44.9347 16.4824 46.2794C16.4824 47.2121 16.8512 47.884 17.5446 47.9487L31.4196 33.9431Z" fill="#00D3FF"/>
</g>
<path d="M69.1758 27.3301C68.1914 27.8861 67.0977 28.1641 65.8945 28.1641C64.4954 28.1641 63.363 27.7129 62.4971 26.8105C61.6357 25.9082 61.2051 24.7142 61.2051 23.2285C61.2051 21.7109 61.6836 20.4668 62.6406 19.4961C63.6022 18.5208 64.819 18.0332 66.291 18.0332C67.3574 18.0332 68.2529 18.2064 68.9775 18.5527V19.8242C68.1846 19.3229 67.2458 19.0723 66.1611 19.0723C65.0628 19.0723 64.1628 19.4505 63.4609 20.207C62.7591 20.9635 62.4082 21.9434 62.4082 23.1465C62.4082 24.3861 62.734 25.3613 63.3857 26.0723C64.0374 26.7786 64.9215 27.1318 66.0381 27.1318C66.8037 27.1318 67.4668 26.9792 68.0273 26.6738V23.9258H65.8809V22.8867H69.1758V27.3301ZM76.9346 24.7803H71.9922C72.0104 25.5596 72.2201 26.1611 72.6211 26.585C73.0221 27.0088 73.5736 27.2207 74.2754 27.2207C75.0638 27.2207 75.7884 26.9609 76.4492 26.4414V27.4941C75.834 27.9408 75.0205 28.1641 74.0088 28.1641C73.0199 28.1641 72.2428 27.8473 71.6777 27.2139C71.1126 26.5758 70.8301 25.6803 70.8301 24.5273C70.8301 23.4382 71.1377 22.5518 71.7529 21.8682C72.3727 21.18 73.1406 20.8359 74.0566 20.8359C74.9727 20.8359 75.6813 21.1322 76.1826 21.7246C76.6839 22.3171 76.9346 23.1396 76.9346 24.1924V24.7803ZM75.7861 23.8301C75.7816 23.1829 75.6243 22.6794 75.3145 22.3193C75.0091 21.9593 74.583 21.7793 74.0361 21.7793C73.5075 21.7793 73.0586 21.9684 72.6895 22.3467C72.3203 22.7249 72.0924 23.2194 72.0059 23.8301H75.7861ZM81.8838 27.9316C81.6195 28.0775 81.2708 28.1504 80.8379 28.1504C79.612 28.1504 78.999 27.4668 78.999 26.0996V21.957H77.7959V21H78.999V19.291L80.1201 18.9287V21H81.8838V21.957H80.1201V25.9014C80.1201 26.3708 80.1999 26.7057 80.3594 26.9062C80.5189 27.1068 80.7832 27.207 81.1523 27.207C81.4349 27.207 81.6787 27.1296 81.8838 26.9746V27.9316ZM87.7969 19.2227C87.5964 19.2227 87.4255 19.1543 87.2842 19.0176C87.1429 18.8809 87.0723 18.7077 87.0723 18.498C87.0723 18.2884 87.1429 18.1152 87.2842 17.9785C87.4255 17.8372 87.5964 17.7666 87.7969 17.7666C88.002 17.7666 88.1751 17.8372 88.3164 17.9785C88.4622 18.1152 88.5352 18.2884 88.5352 18.498C88.5352 18.6986 88.4622 18.8695 88.3164 19.0107C88.1751 19.152 88.002 19.2227 87.7969 19.2227ZM88.3438 28H87.2227V21H88.3438V28ZM93.8604 27.9316C93.596 28.0775 93.2474 28.1504 92.8145 28.1504C91.5885 28.1504 90.9756 27.4668 90.9756 26.0996V21.957H89.7725V21H90.9756V19.291L92.0967 18.9287V21H93.8604V21.957H92.0967V25.9014C92.0967 26.3708 92.1764 26.7057 92.3359 26.9062C92.4954 27.1068 92.7598 27.207 93.1289 27.207C93.4115 27.207 93.6553 27.1296 93.8604 26.9746V27.9316ZM102.125 28.1641C101.09 28.1641 100.263 27.8382 99.6436 27.1865C99.0283 26.5303 98.7207 25.6621 98.7207 24.582C98.7207 23.4062 99.042 22.488 99.6846 21.8271C100.327 21.1663 101.195 20.8359 102.289 20.8359C103.333 20.8359 104.146 21.1572 104.729 21.7998C105.317 22.4424 105.611 23.3333 105.611 24.4727C105.611 25.5892 105.295 26.4847 104.661 27.1592C104.032 27.8291 103.187 28.1641 102.125 28.1641ZM102.207 21.7793C101.487 21.7793 100.917 22.0254 100.498 22.5176C100.079 23.0052 99.8691 23.6797 99.8691 24.541C99.8691 25.3704 100.081 26.0244 100.505 26.5029C100.929 26.9814 101.496 27.2207 102.207 27.2207C102.932 27.2207 103.488 26.986 103.875 26.5166C104.267 26.0472 104.463 25.3796 104.463 24.5137C104.463 23.6387 104.267 22.9642 103.875 22.4902C103.488 22.0163 102.932 21.7793 102.207 21.7793ZM113.213 28H112.092V24.0078C112.092 22.5221 111.549 21.7793 110.465 21.7793C109.904 21.7793 109.439 21.9912 109.07 22.415C108.706 22.8343 108.523 23.3652 108.523 24.0078V28H107.402V21H108.523V22.1621H108.551C109.079 21.278 109.845 20.8359 110.848 20.8359C111.613 20.8359 112.199 21.0843 112.604 21.5811C113.01 22.0732 113.213 22.7865 113.213 23.7207V28Z" fill="black"/>
<path d="M63.7969 46.9375V51H61.9453V39.7969H65.3438C66.6302 39.7969 67.6276 40.0964 68.3359 40.6953C69.0443 41.2943 69.3984 42.138 69.3984 43.2266C69.3984 44.3151 69.0286 45.2057 68.2891 45.8984C67.5495 46.5911 66.5495 46.9375 65.2891 46.9375H63.7969ZM63.7969 41.3281V45.4219H65C65.7969 45.4219 66.4036 45.237 66.8203 44.8672C67.237 44.4974 67.4453 43.9766 67.4453 43.3047C67.4453 41.987 66.6797 41.3281 65.1484 41.3281H63.7969ZM72.9219 51H71.1016V39.1562H72.9219V51ZM81.4297 51H79.6719V49.75H79.6406C79.0885 50.7083 78.2786 51.1875 77.2109 51.1875C76.4245 51.1875 75.8073 50.974 75.3594 50.5469C74.9167 50.1198 74.6953 49.5547 74.6953 48.8516C74.6953 47.3411 75.5651 46.4609 77.3047 46.2109L79.6797 45.875C79.6797 44.7344 79.138 44.1641 78.0547 44.1641C77.1016 44.1641 76.2422 44.4922 75.4766 45.1484V43.5625C76.3203 43.0625 77.2943 42.8125 78.3984 42.8125C80.4193 42.8125 81.4297 43.8073 81.4297 45.7969V51ZM79.6797 47.0703L78 47.3047C77.4792 47.3724 77.0859 47.5 76.8203 47.6875C76.5599 47.8698 76.4297 48.1927 76.4297 48.6562C76.4297 48.9948 76.5495 49.2734 76.7891 49.4922C77.0339 49.7057 77.3594 49.8125 77.7656 49.8125C78.3177 49.8125 78.7734 49.6198 79.1328 49.2344C79.4974 48.8438 79.6797 48.3542 79.6797 47.7656V47.0703ZM90.5781 43L86.9688 52.2812C86.2188 53.9375 85.1667 54.7656 83.8125 54.7656C83.4323 54.7656 83.1146 54.7318 82.8594 54.6641V53.1562C83.1458 53.25 83.4062 53.2969 83.6406 53.2969C84.3177 53.2969 84.8229 52.9635 85.1562 52.2969L85.6953 50.9844L82.5156 43H84.5234L86.4297 48.8125C86.4505 48.8854 86.4974 49.0781 86.5703 49.3906H86.6094C86.6354 49.2708 86.6823 49.0833 86.75 48.8281L88.75 43H90.5781ZM95.8828 50.5547V48.6406C96.0547 48.7969 96.2578 48.9375 96.4922 49.0625C96.7318 49.1875 96.9844 49.2943 97.25 49.3828C97.5156 49.4661 97.7812 49.5312 98.0469 49.5781C98.3125 49.625 98.5573 49.6484 98.7812 49.6484C99.5625 49.6484 100.143 49.5182 100.523 49.2578C100.909 48.9974 101.102 48.6198 101.102 48.125C101.102 47.8594 101.036 47.6302 100.906 47.4375C100.781 47.2396 100.604 47.0599 100.375 46.8984C100.146 46.737 99.875 46.5833 99.5625 46.4375C99.2552 46.2865 98.9245 46.1302 98.5703 45.9688C98.1901 45.7656 97.8359 45.5599 97.5078 45.3516C97.1797 45.1432 96.8932 44.9141 96.6484 44.6641C96.4089 44.4089 96.2188 44.1224 96.0781 43.8047C95.9427 43.487 95.875 43.1146 95.875 42.6875C95.875 42.1615 95.9922 41.7057 96.2266 41.3203C96.4661 40.9297 96.7786 40.6094 97.1641 40.3594C97.5547 40.1042 97.9974 39.9167 98.4922 39.7969C98.987 39.6719 99.4922 39.6094 100.008 39.6094C101.18 39.6094 102.034 39.7422 102.57 40.0078V41.8438C101.935 41.3854 101.117 41.1562 100.117 41.1562C99.8411 41.1562 99.5651 41.1823 99.2891 41.2344C99.0182 41.2865 98.7734 41.3724 98.5547 41.4922C98.3411 41.612 98.1667 41.7656 98.0312 41.9531C97.8958 42.1406 97.8281 42.3672 97.8281 42.6328C97.8281 42.8828 97.8802 43.099 97.9844 43.2812C98.0885 43.4635 98.2396 43.6302 98.4375 43.7812C98.6406 43.9323 98.8854 44.0807 99.1719 44.2266C99.4635 44.3672 99.7995 44.5208 100.18 44.6875C100.57 44.8906 100.938 45.1042 101.281 45.3281C101.63 45.5521 101.935 45.7995 102.195 46.0703C102.461 46.3411 102.669 46.6432 102.82 46.9766C102.977 47.3047 103.055 47.6797 103.055 48.1016C103.055 48.6693 102.94 49.1484 102.711 49.5391C102.482 49.9297 102.172 50.2474 101.781 50.4922C101.396 50.737 100.951 50.9141 100.445 51.0234C99.9401 51.1328 99.4062 51.1875 98.8438 51.1875C98.6562 51.1875 98.4245 51.1719 98.1484 51.1406C97.8776 51.1146 97.599 51.0729 97.3125 51.0156C97.026 50.9635 96.7552 50.8984 96.5 50.8203C96.2448 50.7422 96.0391 50.6536 95.8828 50.5547ZM108.664 50.9141C108.31 51.0911 107.844 51.1797 107.266 51.1797C105.714 51.1797 104.938 50.4349 104.938 48.9453V44.4219H103.602V43H104.938V41.1484L106.75 40.6328V43H108.664V44.4219H106.75V48.4219C106.75 48.8958 106.836 49.2344 107.008 49.4375C107.18 49.6406 107.466 49.7422 107.867 49.7422C108.174 49.7422 108.44 49.6536 108.664 49.4766V50.9141ZM113.68 51.1875C112.445 51.1875 111.458 50.8151 110.719 50.0703C109.984 49.3203 109.617 48.3281 109.617 47.0938C109.617 45.75 110 44.7005 110.766 43.9453C111.536 43.1901 112.573 42.8125 113.875 42.8125C115.125 42.8125 116.099 43.1797 116.797 43.9141C117.495 44.6484 117.844 45.6667 117.844 46.9688C117.844 48.2448 117.466 49.2682 116.711 50.0391C115.961 50.8047 114.951 51.1875 113.68 51.1875ZM113.766 44.2578C113.057 44.2578 112.497 44.5052 112.086 45C111.674 45.4948 111.469 46.1771 111.469 47.0469C111.469 47.8854 111.677 48.5469 112.094 49.0312C112.51 49.5104 113.068 49.75 113.766 49.75C114.479 49.75 115.026 49.513 115.406 49.0391C115.792 48.5651 115.984 47.8906 115.984 47.0156C115.984 46.1354 115.792 45.4557 115.406 44.9766C115.026 44.4974 114.479 44.2578 113.766 44.2578ZM124.336 44.7266C124.117 44.5547 123.802 44.4688 123.391 44.4688C122.854 44.4688 122.406 44.7109 122.047 45.1953C121.688 45.6797 121.508 46.3385 121.508 47.1719V51H119.695V43H121.508V44.6484H121.539C121.716 44.0859 121.987 43.6484 122.352 43.3359C122.721 43.0182 123.133 42.8594 123.586 42.8594C123.914 42.8594 124.164 42.9089 124.336 43.0078V44.7266ZM132.25 47.4922H126.797C126.818 48.2318 127.044 48.8021 127.477 49.2031C127.914 49.6042 128.513 49.8047 129.273 49.8047C130.128 49.8047 130.911 49.5495 131.625 49.0391V50.5C130.896 50.9583 129.932 51.1875 128.734 51.1875C127.557 51.1875 126.633 50.8255 125.961 50.1016C125.294 49.3724 124.961 48.349 124.961 47.0312C124.961 45.7865 125.328 44.7734 126.062 43.9922C126.802 43.2057 127.719 42.8125 128.812 42.8125C129.906 42.8125 130.753 43.1641 131.352 43.8672C131.951 44.5703 132.25 45.5469 132.25 46.7969V47.4922ZM130.5 46.2109C130.495 45.5599 130.341 45.0547 130.039 44.6953C129.737 44.3307 129.32 44.1484 128.789 44.1484C128.268 44.1484 127.826 44.3385 127.461 44.7188C127.102 45.099 126.88 45.5964 126.797 46.2109H130.5Z" fill="black"/>
<defs>
<clipPath id="clip0_869_209">
<rect width="28" height="28" fill="white" transform="translate(20.5625 20)"/>
</clipPath>
</defs>
</svg>
