<svg width="127" height="39" viewBox="0 0 127 39" fill="none" xmlns="http://www.w3.org/2000/svg">
<g clip-path="url(#clip0_352_226)">
<mask id="mask0_352_226" style="mask-type:luminance" maskUnits="userSpaceOnUse" x="0" y="0" width="126" height="38">
<path d="M125.382 0.924805H0.632812V37.9901H125.382V0.924805Z" fill="white"/>
</mask>
<g mask="url(#mask0_352_226)">
<mask id="mask1_352_226" style="mask-type:luminance" maskUnits="userSpaceOnUse" x="0" y="0" width="126" height="38">
<path d="M125.4 0.924805H0.650391V37.9901H125.4V0.924805Z" fill="white"/>
</mask>
<g mask="url(#mask1_352_226)">
<path d="M120.605 37.8975H5.3523C2.81673 37.8975 0.742188 35.823 0.742188 33.2874V5.62671C0.742188 3.09114 2.81673 1.0166 5.3523 1.0166H120.605C123.141 1.0166 125.215 3.09114 125.215 5.62671V33.2874C125.215 35.823 123.141 37.8975 120.605 37.8975Z" fill="white"/>
<path d="M120.605 1.0166H5.3523C2.81673 1.0166 0.742188 3.09114 0.742188 5.62671V33.2874C0.742188 35.823 2.81673 37.8975 5.3523 37.8975H120.605C123.141 37.8975 125.215 35.823 125.215 33.2874V5.62671C125.215 3.09114 123.141 1.0166 120.605 1.0166ZM120.605 1.75422C122.741 1.75422 124.477 3.49167 124.477 5.62671V33.2874C124.477 35.4228 122.741 37.1603 120.605 37.1603H5.3523C3.21726 37.1603 1.4798 35.4228 1.4798 33.2874V5.62671C1.4798 3.49167 3.21726 1.75422 5.3523 1.75422H120.605Z" fill="#171717"/>
<path d="M19.7516 18.833L9.93555 29.2517C9.93591 29.2538 9.93665 29.2556 9.93702 29.2578C10.238 30.389 11.2713 31.2221 12.4977 31.2221C12.988 31.2221 13.4482 31.0896 13.8429 30.8569L13.8742 30.8385L24.9235 24.4627L19.7516 18.833Z" fill="#EB3131"/>
<path d="M29.6813 17.0599L29.6719 17.0534L24.9016 14.2881L19.5273 19.0703L24.9203 24.4625L29.6655 21.7246C30.4974 21.2755 31.062 20.3986 31.062 19.3872C31.062 18.3831 30.5049 17.5104 29.6813 17.0599Z" fill="#F6B60B"/>
<path d="M9.93378 9.47852C9.87477 9.69611 9.84375 9.92403 9.84375 10.1607V28.5708C9.84375 28.8071 9.8744 29.0358 9.93414 29.2525L20.088 19.1005L9.93378 9.47852Z" fill="#5778C5"/>
<path d="M19.8243 19.3649L24.9051 14.2857L13.8684 7.88676C13.4672 7.64648 12.9991 7.50781 12.4981 7.50781C11.2717 7.50781 10.2371 8.34232 9.93591 9.47499L9.93555 9.47785L19.8243 19.3649Z" fill="#3BAD49"/>
</g>
<path d="M44.4469 10.4621C44.4469 11.2345 44.2182 11.8497 43.76 12.3086C43.2396 12.8542 42.5614 13.1273 41.7275 13.1273C40.9291 13.1273 40.2502 12.8507 39.6919 12.2967C39.1326 11.7431 38.8535 11.0567 38.8535 10.2376C38.8535 9.41824 39.1326 8.73216 39.6919 8.17822C40.2502 7.62463 40.9291 7.34766 41.7275 7.34766C42.1237 7.34766 42.503 7.42511 42.8633 7.57964C43.2234 7.73454 43.5123 7.94015 43.7284 8.19767L43.2421 8.68422C42.8759 8.24664 42.3716 8.02802 41.7275 8.02802C41.1452 8.02802 40.6417 8.23261 40.2168 8.64208C39.7917 9.05202 39.5792 9.58357 39.5792 10.2376C39.5792 10.8917 39.7917 11.4233 40.2168 11.8332C40.6417 12.2426 41.1452 12.4473 41.7275 12.4473C42.3453 12.4473 42.8603 12.2416 43.2727 11.8296C43.5403 11.5612 43.6952 11.1882 43.7365 10.7091H41.7275V10.0446H44.4084C44.4343 10.1891 44.4469 10.3277 44.4469 10.4621Z" fill="#171717"/>
<path d="M44.4473 10.4615H44.3551C44.3544 11.2164 44.1339 11.8027 43.6952 12.2429L43.6942 12.2436C43.1903 12.7705 42.5423 13.0334 41.728 13.0344C40.9508 13.0334 40.3003 12.7683 39.7571 12.231C39.2152 11.6924 38.9472 11.0352 38.9462 10.2371C38.9472 9.4386 39.2152 8.78166 39.7571 8.24357C40.3003 7.70584 40.9508 7.44039 41.728 7.43928C42.1123 7.43928 42.4782 7.51424 42.8273 7.6637C43.1766 7.81427 43.4525 8.01159 43.6581 8.25656L43.7288 8.19709L43.6636 8.1319L43.1773 8.61882L43.2424 8.68364L43.3135 8.62464C42.9302 8.16538 42.3922 7.93386 41.728 7.93524C41.124 7.9345 40.5928 8.15026 40.1533 8.5753C39.7097 9.00174 39.4867 9.56316 39.4874 10.2371C39.4867 10.9109 39.7097 11.4723 40.1533 11.8988C40.5928 12.3239 41.124 12.5396 41.728 12.5389C42.3662 12.54 42.9101 12.3236 43.3383 11.8942C43.6243 11.6075 43.7864 11.2103 43.8289 10.7164L43.8375 10.6163H41.8202V10.1362H44.4088V10.044L44.3179 10.0602C44.3432 10.2 44.3551 10.3329 44.3551 10.4615H44.4473H44.5395C44.5395 10.3214 44.5265 10.1773 44.4995 10.0275L44.4859 9.95179H41.6357V10.7085V10.8007H43.737V10.7085L43.6451 10.7006C43.6045 11.1646 43.4567 11.5139 43.2079 11.7639C42.8117 12.1585 42.3255 12.3534 41.728 12.3544C41.1672 12.3537 40.6915 12.1607 40.2812 11.7663C39.875 11.3734 39.6729 10.8717 39.6719 10.2371C39.6729 9.60244 39.875 9.10076 40.2812 8.70781C40.6915 8.31346 41.1672 8.12038 41.728 8.11964C42.3514 8.12112 42.8223 8.3271 43.1719 8.74312L43.2368 8.8202L43.794 8.26228L43.8537 8.20254L43.7993 8.13799C43.5728 7.86793 43.271 7.65356 42.9 7.49442C42.5283 7.33482 42.1361 7.25488 41.728 7.25488C40.9083 7.25414 40.201 7.54228 39.6272 8.11246C39.0512 8.68153 38.761 9.39683 38.7617 10.2371C38.761 11.077 39.0512 11.7926 39.6276 12.3621C40.201 12.9318 40.9083 13.2196 41.728 13.2189C42.5816 13.2196 43.2897 12.9361 43.827 12.3717L43.7604 12.308L43.8256 12.3732C44.3032 11.896 44.5401 11.2513 44.5395 10.4615H44.4473Z" fill="#171717"/>
<path d="M48.6964 8.15131H46.177V9.90536H48.4489V10.5702H46.177V12.3242H48.6964V13.0038H45.4668V7.47168H48.6964V8.15131Z" fill="#171717"/>
<path d="M48.6967 8.15097V8.05877H46.0852V9.99723H48.3571V10.4773L46.0852 10.4776V12.4161H48.6046V12.9113H45.5594V7.56355H48.6046V8.15097H48.6967H48.789V7.47135V7.37915H45.375V13.0956H48.789V12.3239V12.2316H46.2696V10.662H48.5416V9.90502V9.81282H46.2696V8.24318H48.789V8.15097H48.6967Z" fill="#171717"/>
<path d="M51.694 13.0038H50.9826V8.15131H49.4375V7.47168H53.2391V8.15131H51.694V13.0038Z" fill="#171717"/>
<path d="M51.6944 13.0035V12.9113H51.0753V8.05877H49.5301V7.56355H53.1472V8.05877H51.6021V13.0035H51.6944H51.7865V8.24318H53.3317V7.47135V7.37915H49.3457V8.15097V8.24318H50.8908V13.0956H51.6944H51.7865V13.0035H51.6944Z" fill="#171717"/>
<path d="M55.9902 13.0038V7.47168H56.7009V13.0038H55.9902Z" fill="#171717"/>
<path d="M55.9907 13.0032H56.0829V7.5633H56.609V12.9111H55.9907V13.0032V13.0954H56.7013H56.7934V7.37891H55.9907H55.8984V13.0954H55.9907V13.0032Z" fill="#171717"/>
<path d="M59.8541 13.0038H59.1428V8.15131H57.5977V7.47168H61.3992V8.15131H59.8541V13.0038Z" fill="#171717"/>
<path d="M59.8543 13.0032V12.9111H59.2352V8.05852H57.6902V7.5633H61.3073V8.05852H59.7622V13.0032H59.8543H59.9466V8.24293H61.4917V7.47111V7.37891H57.5059V8.15073V8.24293H59.0509V13.0954H59.8543H59.9466V13.0032H59.8543Z" fill="#171717"/>
<path d="M65.0644 11.8256C65.4739 12.2402 65.9749 12.4473 66.5673 12.4473C67.1598 12.4473 67.6612 12.2402 68.07 11.8256C68.4798 11.4111 68.6851 10.8812 68.6851 10.2376C68.6851 9.59407 68.4798 9.06419 68.07 8.64964C67.6612 8.2351 67.1598 8.02802 66.5673 8.02802C65.9749 8.02802 65.4739 8.2351 65.0644 8.64964C64.6556 9.06419 64.4503 9.59407 64.4503 10.2376C64.4503 10.8812 64.6556 11.4111 65.0644 11.8256ZM68.5958 12.2888C68.0519 12.848 67.3756 13.1273 66.5673 13.1273C65.7584 13.1273 65.0824 12.848 64.5396 12.2888C63.9954 11.7301 63.7246 11.0462 63.7246 10.2376C63.7246 9.42903 63.9954 8.74508 64.5396 8.18651C65.0824 7.62712 65.7584 7.34766 66.5673 7.34766C67.3713 7.34766 68.0458 7.6286 68.5922 8.19011C69.1378 8.75162 69.4109 9.4341 69.4109 10.2376C69.4109 11.0462 69.1385 11.7301 68.5958 12.2888Z" fill="#171717"/>
<path d="M65.0647 11.825L64.9992 11.8899C65.4239 12.321 65.9536 12.54 66.5678 12.5389C67.1814 12.54 67.712 12.321 68.136 11.8899C68.5634 11.4584 68.7784 10.9001 68.7778 10.2371C68.7784 9.57405 68.5634 9.01576 68.136 8.58426C67.712 8.15311 67.1814 7.93414 66.5678 7.93524C65.9536 7.93414 65.4239 8.15311 64.9992 8.58426C64.5727 9.01576 64.3574 9.57405 64.3585 10.2371C64.3574 10.9001 64.5727 11.4584 64.9992 11.8899L65.0647 11.825L65.1304 11.7602C64.7392 11.3622 64.5437 10.8616 64.543 10.2371C64.5437 9.61258 64.7392 9.11192 65.1304 8.71389C65.5251 8.31595 65.9964 8.12075 66.5678 8.11964C67.1386 8.12075 67.6112 8.31595 68.0048 8.71389C68.3967 9.11192 68.5922 9.61258 68.5929 10.2371C68.5922 10.8616 68.3967 11.3622 68.0048 11.7602C67.6112 12.1582 67.1386 12.3534 66.5678 12.3545C65.9964 12.3534 65.5251 12.1582 65.1304 11.7602L65.0647 11.825ZM68.5962 12.2882L68.5303 12.2241C68.0016 12.7658 67.3551 13.0334 66.5678 13.0344C65.7801 13.0334 65.1335 12.7658 64.6059 12.2241C64.0783 11.6806 63.818 11.0252 63.8171 10.2371C63.818 9.44901 64.0783 8.79355 64.6059 8.25002C65.1335 7.70833 65.7801 7.44039 66.5678 7.43928C67.35 7.44039 67.9951 7.70944 68.5267 8.25398C69.0561 8.8 69.318 9.45446 69.3191 10.2371C69.318 11.0252 69.0569 11.6806 68.5303 12.2241L68.5962 12.2882L68.6625 12.3523C69.2214 11.7782 69.5041 11.0661 69.5035 10.2371C69.5041 9.41269 69.2203 8.70209 68.6588 8.12545C68.0971 7.54661 67.3933 7.25387 66.5678 7.25489C65.7379 7.25387 65.032 7.54522 64.4738 8.12186C63.9137 8.69627 63.632 9.40798 63.6328 10.2371C63.632 11.0661 63.9137 11.7782 64.4738 12.3526C65.032 12.9292 65.7379 13.2196 66.5678 13.2189C67.3973 13.2196 68.1031 12.9289 68.6625 12.3523L68.5962 12.2882Z" fill="#171717"/>
<path d="M70.4082 13.0038V7.47168H71.2734L73.962 11.7753H73.9926L73.962 10.7092V7.47168H74.6733V13.0038H73.9314L71.1185 8.49163H71.0879L71.1185 9.55813V13.0038H70.4082Z" fill="#171717"/>
<path d="M70.4086 13.0032H70.5007V7.5633H71.2225L73.9112 11.8669H73.993H74.0876L74.0545 10.7072V7.5633H74.5814V12.9111H73.9829L71.17 8.39885H71.0882H70.9935L71.0266 9.55902V12.9111H70.4086V13.0032V13.0954H71.1187H71.211V9.55607L71.1804 8.48856L71.0882 8.49105V8.58325H71.1187V8.49105L71.0406 8.5401L73.8805 13.0954H74.6737H74.7658V7.37891H73.9623H73.8701V10.7097L73.9007 11.7772L73.993 11.7747V11.6826H73.9623V11.7747L74.0405 11.7258L71.3248 7.37891H70.4086H70.3164V13.0954H70.4086V13.0032Z" fill="#171717"/>
<path d="M99.3243 28.678H101.045V17.1517H99.3243V28.678ZM114.821 21.3037L112.849 26.301H112.79L110.742 21.3037H108.889L111.959 28.2882L110.209 32.1734H112.003L116.734 21.3037H114.821ZM105.064 27.3688C104.499 27.3688 103.714 27.0872 103.714 26.3899C103.714 25.5003 104.693 25.1592 105.538 25.1592C106.295 25.1592 106.65 25.3224 107.11 25.545C106.976 26.6125 106.057 27.3688 105.064 27.3688ZM105.272 21.0515C104.026 21.0515 102.735 21.6004 102.202 22.8164L103.729 23.4538C104.055 22.8164 104.663 22.6085 105.301 22.6085C106.19 22.6085 107.096 23.1427 107.11 24.0917V24.2102C106.798 24.0322 106.131 23.7653 105.315 23.7653C103.67 23.7653 101.994 24.6697 101.994 26.3603C101.994 27.9026 103.343 28.8963 104.855 28.8963C106.012 28.8963 106.65 28.3772 107.051 27.7694H107.11V28.6589H108.77V24.2397C108.77 22.1936 107.244 21.0515 105.272 21.0515ZM94.6386 22.7068H92.1915V18.7558H94.6386C95.9248 18.7558 96.6551 19.8208 96.6551 20.7313C96.6551 21.6246 95.9248 22.7068 94.6386 22.7068ZM94.5944 17.1517H90.4719V28.678H92.1915V24.311H94.5944C96.5011 24.311 98.3756 22.9305 98.3756 20.7313C98.3756 18.5322 96.5011 17.1517 94.5944 17.1517ZM72.1145 27.371C70.926 27.371 69.9308 26.3758 69.9308 25.009C69.9308 23.6279 70.926 22.6175 72.1145 22.6175C73.288 22.6175 74.2089 23.6279 74.2089 25.009C74.2089 26.3758 73.288 27.371 72.1145 27.371ZM74.09 21.9491H74.0306C73.6445 21.4887 72.9014 21.0728 71.9658 21.0728C70.0051 21.0728 68.2078 22.7957 68.2078 25.009C68.2078 27.2075 70.0051 28.9157 71.9658 28.9157C72.9014 28.9157 73.6445 28.4997 74.0306 28.0246H74.09V28.589C74.09 30.0895 73.288 30.8916 71.9956 30.8916C70.941 30.8916 70.2874 30.1338 70.0198 29.4952L68.5197 30.119C68.9505 31.1588 70.0944 32.4364 71.9956 32.4364C74.0158 32.4364 75.724 31.2478 75.724 28.3513V21.3105H74.09V21.9491ZM76.9123 28.678H78.6353V17.1513H76.9123V28.678ZM81.1755 24.8754C81.1309 23.3601 82.349 22.5879 83.2252 22.5879C83.909 22.5879 84.488 22.9294 84.6807 23.42L81.1755 24.8754ZM86.5229 23.5683C86.1966 22.6917 85.2008 21.0728 83.1658 21.0728C81.1456 21.0728 79.4673 22.6622 79.4673 24.9942C79.4673 27.1927 81.1309 28.9157 83.3588 28.9157C85.1566 28.9157 86.1966 27.8164 86.6271 27.1779L85.2902 26.2865C84.8449 26.9401 84.2354 27.371 83.3588 27.371C82.4825 27.371 81.8588 26.9698 81.4575 26.1827L86.7009 24.0139L86.5229 23.5683ZM44.7477 22.276V23.9396H48.7286C48.6097 24.8754 48.2978 25.5586 47.8225 26.034C47.2434 26.6135 46.3372 27.2521 44.7477 27.2521C42.2967 27.2521 40.3807 25.2766 40.3807 22.8256C40.3807 20.3747 42.2967 18.399 44.7477 18.399C46.0698 18.399 47.0352 18.9189 47.7482 19.5874L48.9217 18.4141C47.9265 17.4632 46.6043 16.7354 44.7477 16.7354C41.3906 16.7354 38.5684 19.4685 38.5684 22.8256C38.5684 26.1827 41.3906 28.9157 44.7477 28.9157C46.5601 28.9157 47.9265 28.3219 48.9959 27.2075C50.0951 26.1082 50.437 24.5635 50.437 23.3159C50.437 22.9294 50.4074 22.5732 50.3476 22.276H44.7477ZM54.9628 27.371C53.7742 27.371 52.7492 26.3906 52.7492 24.9942C52.7492 23.5831 53.7742 22.6175 54.9628 22.6175C56.1508 22.6175 57.1759 23.5831 57.1759 24.9942C57.1759 26.3906 56.1508 27.371 54.9628 27.371ZM54.9628 21.0728C52.7938 21.0728 51.0261 22.7216 51.0261 24.9942C51.0261 27.2521 52.7938 28.9157 54.9628 28.9157C57.1313 28.9157 58.899 27.2521 58.899 24.9942C58.899 22.7216 57.1313 21.0728 54.9628 21.0728ZM63.5498 27.371C62.3616 27.371 61.3366 26.3906 61.3366 24.9942C61.3366 23.5831 62.3616 22.6175 63.5498 22.6175C64.7379 22.6175 65.7629 23.5831 65.7629 24.9942C65.7629 26.3906 64.7379 27.371 63.5498 27.371ZM63.5498 21.0728C61.3809 21.0728 59.6135 22.7216 59.6135 24.9942C59.6135 27.2521 61.3809 28.9157 63.5498 28.9157C65.7183 28.9157 67.4861 27.2521 67.4861 24.9942C67.4861 22.7216 65.7183 21.0728 63.5498 21.0728Z" fill="#171717"/>
</g>
</g>
<defs>
<clipPath id="clip0_352_226">
<rect width="126" height="38.6129" fill="white" transform="translate(0.0703125 0.151367)"/>
</clipPath>
</defs>
</svg>
