<svg width="70" height="70" viewBox="0 0 70 70" fill="none" xmlns="http://www.w3.org/2000/svg">
<path d="M61.7675 9.62126C63.2088 8.5304 65.2067 8.6945 66.5621 9.89041C68.3856 11.4994 68.3725 14.3359 66.6306 16.0327C64.451 18.1558 62.5783 20.2278 61.0121 22.2486C58.7652 25.1696 57.3421 27.379 56.7429 28.877C56.1438 30.375 55.582 32.1726 55.0577 34.2697L55.5071 34.9438C60.5253 34.9438 64.1953 36.0297 66.5171 38.2018C68.8389 40.3738 69.9998 43.7443 69.9998 48.3131C69.9998 51.8332 68.7266 55.0164 66.18 57.8625C63.7084 60.7087 60.6002 62.1317 56.8552 62.1317C52.5861 62.1317 49.0285 60.9334 46.1823 58.5366C43.3362 56.1399 41.9131 52.2826 41.9131 46.9649C41.9131 39.9244 44.0851 32.6593 48.4293 25.1696C52.2361 18.6528 56.6822 13.47 61.7675 9.62126ZM27.0868 9.62126C28.5281 8.5304 30.526 8.6945 31.8814 9.89041C33.7048 11.4994 33.6915 14.3356 31.9497 16.0327C29.7918 18.135 27.9565 20.1696 26.4437 22.1362C24.1968 25.0572 22.7363 27.3041 22.0622 28.877C21.4631 30.4499 20.9013 32.2474 20.377 34.2697L20.8264 34.9438C25.8445 34.9438 29.5146 36.0297 31.8364 38.2018C34.1583 40.3738 35.3191 43.7443 35.3191 48.3131C35.3191 51.8332 34.0459 55.0164 31.4993 57.8625C29.0277 60.7087 25.9194 62.1317 22.1745 62.1317C17.9054 62.1317 14.3477 60.9334 11.5016 58.5366C8.65549 56.1399 7.23242 52.2826 7.23242 46.9649C7.23242 39.9244 9.40443 32.6593 13.7485 25.1696C17.5554 18.6528 22.0015 13.47 27.0868 9.62126Z" fill="#DDDDDD"/>
</svg>
