<svg width="32" height="33" viewBox="0 0 32 33" fill="none" xmlns="http://www.w3.org/2000/svg">
<g clip-path="url(#clip0_352_202)">
<path d="M32 16.2433C32 7.40673 24.8366 0.243286 16 0.243286C7.16344 0.243286 0 7.40673 0 16.2433C0 25.0798 7.16344 32.2433 16 32.2433C24.8366 32.2433 32 25.0798 32 16.2433Z" fill="#171717"/>
<path d="M12.2874 24.371C19.833 24.371 23.9642 18.1182 23.9642 12.6942C23.9642 12.5182 23.9642 12.339 23.9514 12.163C24.7546 11.5806 25.449 10.8638 25.9994 10.0383C25.2506 10.371 24.457 10.5886 23.6442 10.6846C24.5018 10.1727 25.1418 9.36625 25.449 8.41585C24.6426 8.89265 23.7626 9.23185 22.8442 9.41105C21.289 7.75985 18.6906 7.67985 17.0394 9.23185C15.9738 10.2335 15.5226 11.7278 15.8522 13.1518C12.553 12.9854 9.47786 11.427 7.39466 8.86385C6.30666 10.739 6.86026 13.1358 8.66506 14.3422C8.01226 14.323 7.37226 14.147 6.80266 13.8302C6.80266 13.8462 6.80266 13.8654 6.80266 13.8814C6.80266 15.8334 8.17866 17.5166 10.0954 17.9038C9.49066 18.067 8.85706 18.0926 8.24266 17.9742C8.78026 19.6446 10.3194 20.7902 12.0762 20.8254C10.6234 21.9678 8.82826 22.5886 6.98186 22.5854C6.65546 22.5854 6.32906 22.5662 6.00586 22.5246C7.87466 23.731 10.0602 24.371 12.2874 24.3678" fill="white"/>
</g>
<defs>
<clipPath id="clip0_352_202">
<rect width="32" height="32" fill="white" transform="translate(0 0.243286)"/>
</clipPath>
</defs>
</svg>
