<svg width="32" height="32" viewBox="0 0 32 32" fill="none" xmlns="http://www.w3.org/2000/svg">
<g clip-path="url(#clip0_869_271)">
<path fill-rule="evenodd" clip-rule="evenodd" d="M0 0V32H32V0H0ZM22.35 12.75C22.35 12.9 22.35 13.05 22.35 13.15C22.35 17.5 19.05 22.5 13.05 22.5C11.2 22.5 9.45 21.95 8 21.05C8.25 21.1 8.5 21.1 8.8 21.1C10.35 21.1 11.75 20.6 12.9 19.7C11.45 19.65 10.25 18.7 9.85 17.4C10.05 17.45 10.25 17.45 10.45 17.45C10.75 17.45 11.05 17.4 11.3 17.35C9.8 17.05 8.65 15.7 8.65 14.15V14.1C9.1 14.35 9.6 14.5 10.15 14.5C9.25 13.9 8.7 12.9 8.7 11.75C8.7 11.15 8.85 10.6 9.15 10.1C10.75 12.1 13.2 13.4 15.9 13.55C15.85 13.3 15.8 13.05 15.8 12.8C15.8 11 17.25 9.5 19.1 9.5C20.05 9.5 20.9 9.9 21.5 10.55C22.25 10.4 22.95 10.15 23.6 9.75C23.35 10.5 22.85 11.15 22.15 11.55C22.8 11.45 23.45 11.3 24.05 11.05C23.55 11.7 23 12.25 22.35 12.75Z" fill="white"/>
</g>
<defs>
<clipPath id="clip0_869_271">
<rect width="32" height="32" rx="16" fill="white"/>
</clipPath>
</defs>
</svg>
