<svg xmlns="http://www.w3.org/2000/svg" data-name="Layer 1" viewBox="0 0 130 130" id="flag-of-india"><rect width="140" height="35.15" x="1" y="47.42" fill="#f0f5f9"></rect><rect width="128" height="27.09" x="1" y="24.36" fill="#f28623"></rect><rect width="128" height="27.09" x="1" y="78.55" fill="#65b54e"></rect><circle cx="65" cy="65" r="10.38" fill="#00247d" transform="rotate(-13.28 65 65.03)"></circle><path fill="#f0f5f9" d="M69.11,73.37l.35-.85a.85.85,0,0,1,.78-.52h.92a.84.84,0,0,0,.84-.84v-.92a.85.85,0,0,1,.52-.78l.85-.35a.85.85,0,0,0,.46-1.1l-.36-.85a.84.84,0,0,1,.19-.91l.65-.65a.84.84,0,0,0,0-1.19l-.65-.65a.85.85,0,0,1-.18-.92l.35-.85a.84.84,0,0,0-.46-1.1l-.85-.35a.85.85,0,0,1-.52-.78v-.92a.84.84,0,0,0-.84-.84h-.92a.85.85,0,0,1-.78-.52l-.35-.85a.85.85,0,0,0-1.1-.46l-.85.36a.84.84,0,0,1-.91-.19l-.65-.65a.84.84,0,0,0-1.19,0l-.65.65a.85.85,0,0,1-.92.18L62,56.17a.84.84,0,0,0-1.1.46l-.35.85a.85.85,0,0,1-.78.52h-.92a.84.84,0,0,0-.84.84v.92a.85.85,0,0,1-.52.78l-.85.35a.85.85,0,0,0-.46,1.1l.36.85a.84.84,0,0,1-.19.91l-.65.65a.84.84,0,0,0,0,1.19l.65.65a.85.85,0,0,1,.18.92l-.35.85a.84.84,0,0,0,.46,1.1l.85.35a.85.85,0,0,1,.52.78v.92a.84.84,0,0,0,.84.84h.92a.85.85,0,0,1,.78.52l.35.85a.85.85,0,0,0,1.1.46l.85-.36a.84.84,0,0,1,.91.19l.65.65a.84.84,0,0,0,1.19,0l.65-.65a.85.85,0,0,1,.92-.18l.85.35A.84.84,0,0,0,69.11,73.37Z"></path><path fill="#00247d" d="M65.06 56.76L65 56.39l-.06.37a25.29 25.29 0 0 0 0 7.67l.06.37.06-.37A25.29 25.29 0 0 0 65.06 56.76zM65.06 65.57L65 65.2l-.06.37a25.29 25.29 0 0 0 0 7.67l.06.37.06-.37A25.29 25.29 0 0 0 65.06 65.57zM73.24 65.06l.37-.06-.37-.06a25.29 25.29 0 0 0-7.67 0L65.2 65l.37.06A25.29 25.29 0 0 0 73.24 65.06zM64.43 65.06L64.8 65l-.37-.06a25.29 25.29 0 0 0-7.67 0l-.37.06.37.06A25.29 25.29 0 0 0 64.43 65.06zM70.87 59.21l.22-.3-.3.22a24.54 24.54 0 0 0-5.43 5.43l-.22.3.3-.22A24.54 24.54 0 0 0 70.87 59.21zM64.64 65.44l.22-.3-.3.22a24.54 24.54 0 0 0-5.43 5.43l-.22.3.3-.22A24.54 24.54 0 0 0 64.64 65.44zM70.79 70.87l.3.22-.22-.3a24.54 24.54 0 0 0-5.43-5.43l-.3-.22.22.3A24.54 24.54 0 0 0 70.79 70.87zM64.56 64.64l.3.22-.22-.3a24.54 24.54 0 0 0-5.43-5.43l-.3-.22.22.3A24.54 24.54 0 0 0 64.56 64.64zM61.9 57.36L61.7 57l.09.37a25 25 0 0 0 2.94 7.09l.19.32-.08-.37A25 25 0 0 0 61.9 57.36zM65.27 65.5l-.19-.32.08.37a25 25 0 0 0 2.94 7.09l.2.32-.09-.37A25 25 0 0 0 65.27 65.5zM72.64 61.9l.32-.2-.37.09a25 25 0 0 0-7.09 2.94l-.32.19.37-.08A25 25 0 0 0 72.64 61.9zM64.5 65.27l.32-.19-.37.08a25 25 0 0 0-7.09 2.94l-.32.2.37-.09A25 25 0 0 0 64.5 65.27zM68.21 57.41L68.3 57l-.2.32a25 25 0 0 0-2.94 7.09l-.08.37.19-.32A25 25 0 0 0 68.21 57.41zM64.84 65.55l.08-.37-.19.32a25 25 0 0 0-2.94 7.09L61.7 73l.2-.32A25 25 0 0 0 64.84 65.55zM72.59 68.21l.37.09-.32-.2a25 25 0 0 0-7.09-2.94l-.37-.08.32.19A25 25 0 0 0 72.59 68.21zM64.45 64.84l.37.08-.32-.19a25 25 0 0 0-7.09-2.94L57 61.7l.32.2A25 25 0 0 0 64.45 64.84z"></path><circle cx="65" cy="65" r="2.06" fill="#00247d"></circle></svg>